<mxfile host="app.diagrams.net" modified="2023-05-20T10:34:12.336Z" agent="Mozilla/5.0 (Windows NT 10.0; Win64; x64) AppleWebKit/537.36 (KHTML, like Gecko) Chrome/113.0.0.0 Safari/537.36 Edg/113.0.1774.42" etag="JBQ2kM6YqWskQURzhFZ5" version="21.3.2" type="github">
  <diagram name="Page-1" id="2FWf5eptZKTZ_Wuz4hT4">
    <mxGraphModel dx="1050" dy="581" grid="1" gridSize="10" guides="1" tooltips="1" connect="1" arrows="1" fold="1" page="1" pageScale="1" pageWidth="827" pageHeight="1169" math="0" shadow="0">
      <root>
        <mxCell id="0" />
        <mxCell id="1" parent="0" />
        <mxCell id="iexFrpo45ZPIpEkn8Zlm-25" value="" style="rounded=1;whiteSpace=wrap;html=1;arcSize=5;fillColor=#fff2cc;strokeColor=#d6b656;fontColor=#333333;" parent="1" vertex="1">
          <mxGeometry x="442" y="200" width="170" height="240" as="geometry" />
        </mxCell>
        <mxCell id="iexFrpo45ZPIpEkn8Zlm-24" value="" style="rounded=1;whiteSpace=wrap;html=1;arcSize=5;fillColor=#d0ebe5;strokeColor=#179c7d;glass=0;fontColor=#333333;" parent="1" vertex="1">
          <mxGeometry x="260" y="200" width="170" height="240" as="geometry" />
        </mxCell>
        <mxCell id="iexFrpo45ZPIpEkn8Zlm-1" value="" style="shape=image;verticalLabelPosition=bottom;labelBackgroundColor=default;verticalAlign=top;aspect=fixed;imageAspect=0;image=data:image/jpeg,/9j/4AAQSkZJRgABAQAAAQABAAD/2wBDAAgGBgcGBQgHBwcJCQgKDBQNDAsLDBkSEw8UHRofHh0aHBwgJC4nICIsIxwcKDcpLDAxNDQ0Hyc5PTgyPC4zNDL/wAALCADgAOABAREA/8QAHwAAAQUBAQEBAQEAAAAAAAAAAAECAwQFBgcICQoL/8QAtRAAAgEDAwIEAwUFBAQAAAF9AQIDAAQRBRIhMUEGE1FhByJxFDKBkaEII0KxwRVS0fAkM2JyggkKFhcYGRolJicoKSo0NTY3ODk6Q0RFRkdISUpTVFVWV1hZWmNkZWZnaGlqc3R1dnd4eXqDhIWGh4iJipKTlJWWl5iZmqKjpKWmp6ipqrKztLW2t7i5usLDxMXGx8jJytLT1NXW19jZ2uHi4+Tl5ufo6erx8vP09fb3+Pn6/9oACAEBAAA/AMpcheaxtf1250ySKC1VQzrvLsM+2BVrw9q02rQTeeqiSLHzKMAg1rHr0p4OQBT2XIJpkBHmYNTzRHaDzUag5q3H80eDSAADFNK5BHehY89afsAUj1qB84PFQZ45p8JwTSz5K1AvUVJ3wQaFB5pH4XNQEZpjZ2801xgUzqDUZyTimMKugHHNRXNjZ3yKl1CHCn5T0I/Gn2trBZQmK1jEaZ5A7/WplJzzUsQPP1qcJlDUCgowPvV18lRjvUaJ2I6elSxcEihiAxwMUg3ZyOlTIm5cjrT/AC+OcVUkQsxIYYxVZ0Ip0aEGpJUGz8KrwjMnOcipmQ9KTZjpUUgYDFRYIUim7Tt561Gy5pqqeaYRg1C9XUJxT9oxkU5FJFGTux3qYAhQamVjtxngVEwz9M1OZPlAB6UKSTzUi9c0EZOQeKVMgEHpU8fA6Ur8jHFVWAwfc1EVGeRTgOBxTmyVNVh8sp9alZsnOaQdTUUnIqPjvTWwBg1H1HBpuNoqJzzUD8GrqdKdnC09SecGhSNwNWP4Bj0pyj5etN7HBp3JxzUi5yMYqToDntTlOQR1pV5HTmpR6YpGI6E03HynioWX5TSD0FLu+Xnv0qq4+fdinA8gdaeinmo24z71E3AzUbEgf1qIDdSjoc1EwBzUEnWraDOR7U/bxTkU0qg5/GrCLwKm2kCo8AcU8LxSk8U/JZcCnKvNSp3wKkx+tRkbqT+AD9ajdSBg1GBg5pOuM9M1Gy80vBIPYU/IA+tQsPzppGAcjiomX5c9c0wdOKacLmom61A+OtTq5GcU8SHIp4lOaDId1TxS5FS+YSpFNDktzUhlxTN5PepY5Pepdxz1pwJHANPLH5euKNwwOajZ+MDr3phfK9ajD4BNNL4U0Ic0ElSR2pFY800mml6Yx7ZqImmOc1CxqFzVhRUg4FPTGCaD2qVcAZqUEYpd69SOaQtuPSm559KkVsMcipVbmniQbfel8zK/SgkGjqpOckUwkbaYTkZqNhlenFIjYOMdqVmyaM4HFMPamNz04qMnGaQ4ppwc1A3WoWwTVrHFL+FPQ8AYqdQCtLnjFOWg+9IODmlHzcU4dcVJ29KfEMg8Zp6r6Uu3k5FMYdT0FRn7lGOKO1RYw3HWjuaUjIpmMkAimsOKiI2nmmsOOKYe9Qmom61bByKUnAoU9qkyduacrcdamjAx2pwIpGwCOlKCAwNOUAtUjLgZzxmhTtaplIBOaeSpBANR9QQTUfBXtSDhen50Ed/WoypyaQrjFOI64qM01veo3UE1FnBwaa3WoT1qJhzU4p2MrSLnpTwxUY7VIgJBNWEHyg0mOKCOeaQ9eKcOh5OacjErtzwaemVPPOKXHU5p6Hb16U2Q5Yn15qPJxTsgDr1pfQU053UnRsE0mfem5zxTWBxzTGHeo2GahY4OKjzzTG61MCKdu4oBGaVnHSpkb5eDVgHK02lOKQjGOlOAz+FPK4IIpwB5NKU460crznrScbWz6VHyMZp2zIOafjAA70hXByMU1l96aFJFIBg800jgUwjjmo2qFwKjxUZHNSD1pTnFC9c9aGPI4qSMkCrKEkUo64p/HrTM/N9KlzkZBp4zSqGzTiCe9OWPIyeg602VcKDjrUJIPHpT1BMfXpTjgAZJzSZ560jEnPem54yKQDJyTTSPyqNsYqJulRNUfQVGetSr0pccULyaDw/NPU4zmrCcfSnZPXNKx6HvQoyeeM08ZBAFWFXC5o5AyaNwzT1ZWzuz9KbKowMAj2quygjjNPUgIcnoPWnFgQB6UgA96RjgHFMLfKaRcHFDHGah3ZNMY8VEcnNRc9qaacKU8ihfvUh61Kp45qZWwBRu9u9SbskUu7A96cjZYelWEYFfagkknFG4DBwKkQcAgA0SBgAf61XY4KginYBX2pu2lA4pH9KYQMdKFHSmtyccUyom54ph6YqImmtwKVehozgUoPrSMOaepGKlRh2oB5qTINKWBwKmUrnBqQMAeOlLuy3FKvzHA69qlA+XJ7elKw+U4bj9aquMd6AFK4zzQODingkDpSEfNmkYU05GBTCcj3pj/KOtREfL70wjim7eKjYcdKByMUHpQBQ2QeRQTgCnoaXNSqwxQxAGakVgQPWp0IxzTwRuPFPTAI4qb12gnHWg52nPT0qs68/WgLtXd3oPOMnmlA6c9KCCWJ70hGaaeuMVGQeKaRnrUbGmYppqJqB6UHpQKc2SR6UxhinL92gdakUcc0Hmnx9KlRv51OD7VKvUdKnQfj7U0kfMuOnrUDnkdMUv3hikIAIpeAelBPXmm5z2pKY2Bnmo+MZqNzTOnNITxUTDmkFKy8ZoAo6nFBFKq8U4Jg1JtppBzT1BqRFqZc/SpUBHP86sF8Ly2aYzYJK45FVpD81KDkDp9Kf6Dik5zzQTweOopAeaKjbAPXrUROFPvURIPTrSdelIelRMcGmg0ueOtOXpxSdyaUnK8Uq8CjORUq5AxTS3NPD8cVNGe3eptpz0qUDAHpSn7nocUwswGagLZOKfGf8AOKeTg00Nk5pWPBpADntSHI44qN6iIGKYQAaZ0pjHjFNJHrSd6MU5cgUE0vRaUdKQGn5IPFGeKfGpY1bhiwQatEUhwRgUx+ByaYSdtQdDUyDjJ7mn4PpTCORimtkdRT+gBprMCOtRM2RUZ5zTTimnrUbrxz2qImlpecU9cY5FBXvTSOBxSjpTR15qUAmnhMdanjAFWYzgc1IDnNMByQaHpjHA96hOT9Keh+XHepugH0puDuoZOxpGGFxUbZC+9RnpkCmk8VEeTSEEc1Gxz1qB81IaXtSq3bNOB6+lNbpQmTwBT1iJ61Mq4pep5zmpkXA/Gp1BFGSD0oGcU7gqdw+lMf7uMc1ERxmlU4qXOVBoXG6kfrjJqFySaG+571GchSKYQabtK0VXYcnrURBxTweKO1LzRyaeik1ZROM4p2KdtGaVlxyKcvOOOlSg+vSlyc4pw6//AF6VgNmc5pjZJzUJyGpyZ7mpSDjjFNUYOaVvpUTcZxTT0HFNPAPpUbdDimknrTGJx0/EVAzHFMOc1KsfUU8R8UoT9KMYbpT0HBqxGPloA5pzDBpGOB0pydalPIpueCacGzUmFOcnj0FRvx61EeTT0XPB9akK4UU0ctjtSZOaGXvUbAhajIO00wg9KYw4HpUbcCoWPSozmriL1NOxjrTsDAphGTkUKOcE1ZTheTSqOQaH+8KQ8ilHWpl5HvTSeMULwPrTlOQaH4yOx9aizk+1TRjAzxmlZuOaZuO7aKf/ABUjd6iPSo3+7jNRMQPWmE5xTXqFsVE3WrwG3IFOxmlIwKZnmheelTjO3NKCc9aXtk03pT1IzxUq9DTGPpSqO5607HpimtuxTMdzT4ycHNPPIPNNUYOaU0jtxg1XJI6mkZu1MPqelRc5yKazEjrUJOajbrV5STmnqefxo9qQD25pwXbzjg1KAdvSmjn8Kec7RhetKYyR0xQEIOak56Y600A55zT/AMOKUqSM0jA85BqMkAYp8YBpWwG9qUEdKQnmmvhqhYUxqYwFMY1Gx4pmBio3UVfQZBPrRt70p9qUL831oI6+1SouV5oEfFO2nPeht2fvGkUNnk1NgkZpu3A604DjmlIJ6EikOSDk5qIrTo+uKldQMn2qMHke9Ic560059ajb61G3tTDTGphGQTTO1ROa/9k=;fontColor=#333333;" parent="1" vertex="1">
          <mxGeometry x="166" y="210" width="70" height="70" as="geometry" />
        </mxCell>
        <mxCell id="iexFrpo45ZPIpEkn8Zlm-2" value="" style="shape=image;verticalLabelPosition=bottom;labelBackgroundColor=default;verticalAlign=top;aspect=fixed;imageAspect=0;image=data:image/jpeg,/9j/4AAQSkZJRgABAQAAAQABAAD/2wBDAAgGBgcGBQgHBwcJCQgKDBQNDAsLDBkSEw8UHRofHh0aHBwgJC4nICIsIxwcKDcpLDAxNDQ0Hyc5PTgyPC4zNDL/wAALCADgAOABAREA/8QAHwAAAQUBAQEBAQEAAAAAAAAAAAECAwQFBgcICQoL/8QAtRAAAgEDAwIEAwUFBAQAAAF9AQIDAAQRBRIhMUEGE1FhByJxFDKBkaEII0KxwRVS0fAkM2JyggkKFhcYGRolJicoKSo0NTY3ODk6Q0RFRkdISUpTVFVWV1hZWmNkZWZnaGlqc3R1dnd4eXqDhIWGh4iJipKTlJWWl5iZmqKjpKWmp6ipqrKztLW2t7i5usLDxMXGx8jJytLT1NXW19jZ2uHi4+Tl5ufo6erx8vP09fb3+Pn6/9oACAEBAAA/AOVWpVqVKlFPBp496eBUnenrnFOXrTqa1Hal60EjFNHWg/dqNuhpynjNIaO5pDwfwpuRgVE56/WoycE0hOTUfYUxjyarLUq1MnWpRTxinjFPqQdaeMZpwxkUo70jCkPQU9RxTWFNFNbOKa3elA4pCDRg5NHcj2prD5RUTDiomB5pvf8ACm+lRmq6DmpVGKmQZNTAU7AzUigU4U8daeozTwOcU4CmsOaMdKXPFI3Wm96CKjfoaeOnNBpD3ppyab2FNfGMVE+MGo6Z6Uw1WSpVODU0ZqYdacKkGKcO1PHBFSDrTxnNOGcmmnrilxhetNFIaMUetRv0NOB4pOOtB6E0nOc1GR0pj1CRxTT1P0ph7U09vrVZOlSryTUydalB6U9SKeOcU+pAM4qQdTT1HNOHWmkfPQRmkwKQ0nek7Go36Uv8NA9KD0NB/pTOwqN+BUeAVNRHqfpTRyRTWqsnSpF61MtTCnDrUgp/Q1IKlFOHWn96aeTRxjFIOlNIo703HFRv0pw6Ud6QnqKD/SmdgKjfpUJyM+9NPU/SkHJqNqqpUq9amWpV608HmpAKf0qQVKtO5Jpc/wA6TvSjk0nrQcYpp603tUb96cOAaFHpSeuaVulM4HSo39cVCxyKYRz+FIKjYdKrLUqCpkqQU5etTLUnU04VKvFOHWigcHml70h6nFFNph6GmMODT8cUCkPc0N/So/TjtTG6Y9aiYDB5phoU81G4FVVFSr1qValwM05akFPqQdqkB5p4OaQdacOppQpJ9qRhg0hyBTKQ1G3Q09TxSjrSGmueOPSmelRt2zTGOV6VGc803o34U1s4qqgqVetSoMHFTgc0qipAOak9KfgcU9Rk/hThikp6j5qmOBnBqInk0MflFR0wjrTGHWpFxigdaG601xweajPFMfJxUTHjFM9aafvfhTSegqqtSr1qZPvVMM5qRetPH3qcKkx0p6inAcUgFPU4JyKeCNwI5pkh5OBxTSflFMpppp++Kev1opDSMODTDTGqFhTDxmm98Uw9BVdakWpl61YUdKlKbV3ZFCn5qcPvVJ0Ap4pwPpQBxTieTQp5HFI5JpvamU0ZyaQj5qeo4oxgikbpQR8lRnrTW6CmNt8vgc1XJ68UgHOcU1x0qBMVKo5qRRzU68U/cT1GfSlHJpfxqQc1Ko4p4ODRmlxnk0Dg0pGVNNIO2o8UmAM4ppHzGnDgH6UvpmkbpTWPBph6/hTSelRyHg4qA96UdT9KRx0qslSqOalUc1JmkXLjBDKDUqIqABRinrUi1IpyKeBzTtucUYoAxT1+6c0w8VETSdzTB1NOHQ0daQnmmnoaZ3/CmscYqJieKiPekB+b8KUngVWU4NSqeakB5p/pTkz/ABY/CpO9PAqTGMU8Ding81JnIFKcD8aYD605GwDTJPWoyaaetIOfzoz1pQabnk0jHg0wnr9KYxOQKawwoque9J/FQT0qEHLZxipRyakHWpAMkCnKBmngU4dakznFPXkU9RzUoGCKVhjrUZHtQOnWlbBUHNQmjNNB70HrxSAUdzSEZzTGGCfpTCuSKbIpUCoCOtN/ipD2qJOalXrTx1qVegpwBBzUgNKDUgOR0qROmKeO9SA8ilcEgVGTxTCeDQSelMzSHNIMnmjBFAFN5zSmnFABn2qJ2xjFV5XLEVFzzTe9NJ6VGnrUvenjqamHQVIPu4pRTuhp69BUi9akU07OKcWzimGk6A008imGk5pq9KWik707YSCRio2zyCaibtUJHOc00nk1GTzTTSR81MFpw61IO1SDrin45pcU5egqRelOWn4zR0P40Uh6UgxjpTG4zTW4IpAMUvegU3PNSRtt+hprkMSarP1FRMORTDjmmdzTWqOMnNWQf5UoOalXqKeD81SjBo609RinrzTx0p3ajHNDDHSm9jRjC1Ee9Ix5pAcnil70g4NJ3pw6Uw1G2DULdqjx1ph4JprVGmQehqYFvQ1Iuf7pqZcg/dOKkCAtnDflUgXsA35UbTjgH8qeoP8AdNSKjE/dNSBG/uHFO8s8cEfhQUOeh/KmlG9D+VN8tsdDRtfHQ1GyNn7ppjKeODSBDzxRtbPQ0BGPY/lSoh3cig7umKYVbg47VGwYZwKhwxPQ9KZtOelMZTnoaYQT2NUVuSMkn9acl6HfarHP0qyHmBzuOD0HFJ9rdRkucZ9BT47/AD0kJ/CplvHx95vyFOF3LjG5j+Ap63MmOrn8BT1vJB3enrdzHozgY6YFON3KR95/yFH2uUHBL/lR9rlzwXx9P/r0w3ko7v8AXFN+2yYxub60fapT3f8AIVGbuQNj5vypRdybj97r6f8A16U3UhGRuH4UoupB2Y0fbHHZvypGvpNuPm+uKYb6TnlsY9KY983bcB9KhN9ISOTj02037Yck4b8qYbtye+PpTDdOWzz+VZ4XJIpYY8Tk9sY/WrkjnzFAPSmKh2HPc1IkOwk44qxGhMePepI4yGOTUqoeee9Gz5BzUkcWB17Yp+z39aa0RJzn3p23B60x48gDPeo2iAxg9KdtxQYwWpoTlue9P8vIPNKqcHmk2DHWonXpg96aUznNRvGMHmoCmOM00p70gj60eX1OarqPmzTx9/jv/jUiLumJNWAvGP8AaqcKCAaFGKeq8/j/AEqVRQq8D61KoINO7HIoI4zRgEUhximFetNxz+FBHNEagkn3p/tTVHU0EVF1H40jdPpUb8k1EU5/Cm7elG3rTQvFVlHNPC81KgwTU3GB9amX7uKXAxxT1XH51IBzmlQcVJilxQaQjB/CkIprdKZ3/CgGnRGnEc0mKa2elRjoKQjrUbdWpmO/tTccCk70VTTjFSLUijmpPQVMgyKd3xUgBqRehpY6kPU0nJ5oHSg9aRjTW5pp/pSUqdak6mk7daaxFM4wOlMY4BpjAZNINqrz6UxmHGAaaT3xSE1UHQU9alj6VKBUqDrT1AyKkA5p4pVABp/86QHGR60vSmnrQ3SkLDFRk80ZpoPNOzSA00nmkzSMflP1qMt1qOSTy4mfG7apOB3rk08SX32oFgjRk48sL29jXUFu9IW4NV15/CpV4p61KvSpUqQH5qkyM0qng/SpFp3bNJ2pQOKG4NNbnFRkU2kZSrHnpTR1p/bmmjrSGmjtSE8H60xu9NIqoLG1EomFvGJM53Yqbr+dIe9f/9k=;fontColor=#333333;" parent="1" vertex="1">
          <mxGeometry x="166" y="286" width="70" height="70" as="geometry" />
        </mxCell>
        <mxCell id="iexFrpo45ZPIpEkn8Zlm-4" value="" style="shape=image;verticalLabelPosition=bottom;labelBackgroundColor=default;verticalAlign=top;aspect=fixed;imageAspect=0;image=data:image/jpeg,/9j/4AAQSkZJRgABAQAAAQABAAD/2wBDAAgGBgcGBQgHBwcJCQgKDBQNDAsLDBkSEw8UHRofHh0aHBwgJC4nICIsIxwcKDcpLDAxNDQ0Hyc5PTgyPC4zNDL/wAALCADgAOABAREA/8QAHwAAAQUBAQEBAQEAAAAAAAAAAAECAwQFBgcICQoL/8QAtRAAAgEDAwIEAwUFBAQAAAF9AQIDAAQRBRIhMUEGE1FhByJxFDKBkaEII0KxwRVS0fAkM2JyggkKFhcYGRolJicoKSo0NTY3ODk6Q0RFRkdISUpTVFVWV1hZWmNkZWZnaGlqc3R1dnd4eXqDhIWGh4iJipKTlJWWl5iZmqKjpKWmp6ipqrKztLW2t7i5usLDxMXGx8jJytLT1NXW19jZ2uHi4+Tl5ufo6erx8vP09fb3+Pn6/9oACAEBAAA/AOMFOFKOtKKdUiDin9KBzmlAzinY+anCnDrSEfLTKRulR5zTTTaSmnimmmNUZprUw0U00tWxThS0tPUVKnSlNKBSind6UcU/PNB4qM9PxpGFRU00nam009aaaa9RnrTGpp60nSm0oq3kZpRTuMU7jNPSnjGadkUoOBTuM0ueadSr0oOKaaaaYaYab2pvam009aY1MNMam96Q02lpvnv60omc96eJmpwmepBM9OEz04TtQbhwKRbiT1NPFzJkU/7S+ev60v2mT1P50faZOmaPtD+tRtcyeppouJD3pPOcg80nmvR5r0wyvTGmeozM/rSNK1N81iKTzWpplakMrU3zmp1KOtSU8VIOlKKcBQwpo4OKd/FTx1pwpD1oqNutNHWlFFBpjdBUTHio80NTe1BppppptT0o60/0qRafTgKf2pKb3pccg1KKWg001G3WmijvRmgnmmZqNqioak7UlNNNpKsmkHWpAO9SLT6cKfTTTeM08Cn0Z4opKjf6UgpKBQTzUZ60x6hNDHmkzxQaaabSVZ7UKOakAqQU6nLTu1ITTe9SA80+gjIphBGe9GRUbHmkpPWlHIpD1pp61G9RGmmkHSikAGMlgoHUmkO0rlWVh6qc0w9at+tA61IKeKcKeKXtTTSY5pw61IKd2pDTGAIqInBwaBSUDik6mmnrTG6VEaa3Wk7UdqpanHJLAgjBIByyjvUGmQyxPIzqVQjGD3NX6uUg+9Ugp4pwFP7UoPFIRmkHWlHJqUdKd2pD0prVC4zTVzzRmkophprVEaRutIelJ2pCaaScU2rdJ3qQU8Gng07OaUUnrRmlHWpRTu1BppqFqTHWo880q8UHrTDTG6VGaQ0h+7SU00hptWs0L1qSnCninCndqbnrSd6cPvCphTs8Uhpp61E59KQd6Yy8kikU0E8009aY1MNNPWk7Uh6U0000lWfWhTUgNPB4p60tLk000Zpw61MtSDvSEVGe9RmkAxSHvUfQ0tNaozTDSGk7UhpppppKtUgp4p4p608UtMNHenelSqakFHamd6ibrSDocUh71GetAppNRmmmkbrTe1BplIaQ1bpB1p4FOFPApw6U6mmmjrUmelSDoKcDxR2pp61GRzSdM0hpmKTtTCaaRTCaRutIelNNNpKSreKQdakFOpwp2aWkNNHWnjk1Ko4p1HU00/epjdab60h6mkzTTTCBmmNTO1I1N7Uh6U2kPSm1dpB1p4p1OFO7UopppO9SL1FSA0o70UlRtTecU09aTNNpOaY1MNNNIelIelNo7U2rnrSCnind6eDTu1GaQmm96eCc0+nClpp61G3Wm54ptJSd6Q0xu9MNJnik7UhpppDTat0g61IKdThTh0paQ009acOtSYpwo7U01Gxpvak70YpKQ1G3SmGkNJ2pDTaQ02rVKOtPHWnU4U4UtIaTvSjrUlLR2prGomPNA70nel7UmKaaY1RmkPSg9KaaaaQ0lWaF61IKd3p1KKWkNFOFPFL2pDTDyTUZFAHFHc0o6UlIaiammmmjtTTSGkNNNWe1Ap4pwp1OFLSGgdad2p4peKaTTcUwijtTacKKYajam000dqQ02kppqz60AU8U4U4UopaQ0A07PSn5paSkNRtSdqSnCkpppjUw02jtSGmmkNNNWRSinClFPpR0paQ9KQdaUnmnjpTqKQ1GxpDQKWkzTTTGphppPWjtSGm02irFOFKKdThSiikPSk70oHNSCnUdqQ96ibrQaKBRTDTWqM000UlIaaaSrPalFOFOpaAeKcOlNagCnU9ad3o7U2mMKQ0ClApDTDTG6Uw9aaaSkNJSGmmrVKtOzS0tKKcKRjQOtO704U6jtSYpjdKbQBTh0pD0qM0xjTO9NNHammkNJTTVmlFOFOFLS06kNIOtPp4paXHFIRUbUmOKUUCg9KibrTGFMppo7UhpKaaQ1//Z;fontColor=#333333;" parent="1" vertex="1">
          <mxGeometry x="166" y="362" width="70" height="70" as="geometry" />
        </mxCell>
        <mxCell id="iexFrpo45ZPIpEkn8Zlm-5" value="Original" style="text;html=1;strokeColor=none;fillColor=none;align=center;verticalAlign=middle;whiteSpace=wrap;rounded=0;fontColor=#333333;" parent="1" vertex="1">
          <mxGeometry x="171" y="175" width="60" height="30" as="geometry" />
        </mxCell>
        <mxCell id="iexFrpo45ZPIpEkn8Zlm-6" value="" style="shape=image;verticalLabelPosition=bottom;labelBackgroundColor=default;verticalAlign=top;aspect=fixed;imageAspect=0;image=data:image/jpeg,/9j/4AAQSkZJRgABAQAAAQABAAD/2wBDAAgGBgcGBQgHBwcJCQgKDBQNDAsLDBkSEw8UHRofHh0aHBwgJC4nICIsIxwcKDcpLDAxNDQ0Hyc5PTgyPC4zNDL/2wBDAQkJCQwLDBgNDRgyIRwhMjIyMjIyMjIyMjIyMjIyMjIyMjIyMjIyMjIyMjIyMjIyMjIyMjIyMjIyMjIyMjIyMjL/wAARCADgAOADASIAAhEBAxEB/8QAHwAAAQUBAQEBAQEAAAAAAAAAAAECAwQFBgcICQoL/8QAtRAAAgEDAwIEAwUFBAQAAAF9AQIDAAQRBRIhMUEGE1FhByJxFDKBkaEII0KxwRVS0fAkM2JyggkKFhcYGRolJicoKSo0NTY3ODk6Q0RFRkdISUpTVFVWV1hZWmNkZWZnaGlqc3R1dnd4eXqDhIWGh4iJipKTlJWWl5iZmqKjpKWmp6ipqrKztLW2t7i5usLDxMXGx8jJytLT1NXW19jZ2uHi4+Tl5ufo6erx8vP09fb3+Pn6/8QAHwEAAwEBAQEBAQEBAQAAAAAAAAECAwQFBgcICQoL/8QAtREAAgECBAQDBAcFBAQAAQJ3AAECAxEEBSExBhJBUQdhcRMiMoEIFEKRobHBCSMzUvAVYnLRChYkNOEl8RcYGRomJygpKjU2Nzg5OkNERUZHSElKU1RVVldYWVpjZGVmZ2hpanN0dXZ3eHl6goOEhYaHiImKkpOUlZaXmJmaoqOkpaanqKmqsrO0tba3uLm6wsPExcbHyMnK0tPU1dbX2Nna4uPk5ebn6Onq8vP09fb3+Pn6/9oADAMBAAIRAxEAPwDAAwKaVyc06l780EsTbgUEdKfwRxSHGaAuNIpVFOxQMZoC43HNLjil4o4NAXGbadjijj8aXjHvQFxMU1hT+KD+lAXGqtGOacMUcUBcbjik25NO4pOM+9AXArxSYp5xjjrScUBcQilApePwpeKAuNxzSgYpeKXigLjMc0/HFJ3p3GOOtAXExRilpeO1AXEAxSHmnDFJ0oC5D3FDEBsEinH6VnXkEjSZViKQGiORxS4qG0RkiAY5NTnrTEFHvSk80meaA6iY9aXFGcUA8UAIBzzQfQUZ7UdqAAUGjPPSlbmgEIOmaTHrSijOKAG0oHNAoz2oAU+gpBSk8UA80AxQKXHFFGaA6iAetOxSA04HjpQA3HODSn2pM+1OPSgEIKDRnnpSk5oAB0pKAfajvQCGE80hGT04oo5z7UDHAcY7UUZ45pO9AhcUozQaBmgBKKQk9qUZAoAMc0Gk57dKXtzQAooIoGaU/rQA3mkpRmk5zxQAUAflScgUgz+FAdBxGaUCjtzQM5oBjsUnNL/Ok5oAUCnYpmTnincgUAA6+1KRxTRTj0oAQUuKQZzTvrQAHpTQOadzSd+KARDTh0puPelAoBjscUYxS0mKAFoHPFGKULQDGHrS9qQjmlxxQAnvTsU3GKXtQA4UNSCg0AIB2o70AUnU0ABHFIKDQBQHQXHFKBSHgUqigB2OKMZ4pccUAUAIBTscUgGTQaAE75pT0zTKU8CgBR1pxpgGaXHNADh0oxRj3oA5oBEAxS5596ARRjmgGOzxxS5pPpR1oAcMfhRx+FAFOxhaB9RhHrSgZFJjB5qVRxQIhI596Wnlab3xQA0HmnHp7UuBSnpQBH/Kk+tPx3pMetADe1ID69akwMYphXmgOgEjtQrDNN9qF60ATE8cUAikAp2AOaB9QxjrSHkUpGOtBwBQIjHXnrSkjtS45pGx2oAAeacSO1MUinEc5oAeuKeBTUwakAoH0KQNJuxS9RTcc0CZJuyKXdzTccc0qjmhAO3ZNP3H0oCZNOxgY70DGGpFbA6VGQc1ME+WgCNjxUZJ9KmK4pjCgQwseKCx9KXBzTsUARFjnpTC5z0qVqiJwaAFDnHSkLk8U4dKbjmgGIScUzed3SpWB2+1NVTnkUASK+aN5z0pMGnAH0oH1Hbjik3HHSk5pedppCE3UHJFNBPSnsTimA3JBHFO3ZNNyfSk53ZNAE6tg1MnNQJktVhOKBmfyKAaYDnvT1waBMfnI5pVPNHGKci80APDetBbml28YpQnagY1Tk1OMhajAANWVTcvWhh5lZjxURb1q20XOajaMUCK+7NIX5xTyoBoZAx4oAYenvUGcsamcEcZqFcA0APOQKauc08ncuc0kY4zmkK4rHihcmlYDrQDimG4pYU5TTSmTTgMDHegY0HJpxBCmkI20/qvWkw13IRwaex+WkUDrTW60XFcch5pWyGGaYDg0r5J60XDUmjHOamU1WQ4GM1MpxTTGZmaepqNcU7P50AyUvtFKkmaiPSheOlAFtZeKVpOOtQoAKGG7jtQPqKJzuxV2Kb5etZ/lgHmp0wFoAsPOKiaXAzUWRSP0pi1FaUE0LLVc4PSlQcUgQ6aYDJzVRZ8safOu7I7VB5QTk0wJ/OG080iXAAxmqzAEU0KAPekJ7F5pxjrSicEVRPTjrTlINAjRSYetP8ANXOc1QQgfSnHBPtQU9y154JIzQ0ox1qqFA60cFTmhh1J1lHrStLjkVVQDPvUkmAvHWgS3JfMzThJjvVUkcYpxbJ4osCLccgL4qzHyaz4yA3NaEJAGaB9DP24owc4qVPcUMvtQBEeOKkUDig9OlO2kigLDyVxxTfemkHOaQE5zTGPPvT9wC1EAWNSFTikxCLyMd6c33cUi9OlPP3aeoEewDtSYA57U8rnFNZSGpAtiCQZORUDqQOatMcHJFQO2SaNQZXI4NMUHp3qVulMB46UC6CY7U9FAoY/IOPxpA3SgQ4DnjpT+n0qNid4NODYbOKaKe44Z6npS5AUjFRhiSacW+U8UmT1FQDHvTj83FRK/wAuKlzlRTAXaF60hwrUjknFJyTnFIdtBwPzZq3FJgc1QMuD0q1bHzfahaDRPxQDl/amHNKDSGSMAaBSA8c05cmnYAIzTfLBqQjmk5zQFhEUCpABikA9KfsNAJDFXmnPHxxTghqQIStMLEAXFI4yak2HJxTGDZpCsV5EyKqshyaukNmoyhJp6gyky4FMCk9elXZITjiofLYLQLoQSLwB2pAvSnSbsc9KRdxpWExxXPPenbfl460nzZ5pwJFGo2iEA5pxGFNJzuOKcynacUMV9SNcAVOPujFVwjbealG5VHpTAfIVTBbgUJPCeFbJqpeCWSI47CsK3+1pcgE8ZpWsCR0Uoy5ardmw5zWcGkZeTzUts7hiCaabsUti+WzT4xnmom4PFSxggZxSsDLG0YoXGaZzjNPTk0DHnmm8A05hSbCRQAoYelSAgdahVCDU4hJoAcMHmnhgB0pqREHFPKYosIiYjtUf3qlKZzUTKR0oGRuMcU0EEGldS3NMVcZoERyPio8grmnTJ71EBjigTGugxntTFAFPfgU0DNAmBGTikI/hzStnqKTGRmjoN7jehxTwRtNRY5NKV460MXUUYK5qVsCIGq69MVI/+rFDQhdyjqOtQyRxGQEIAakPzAe1RMMtmkNdx3y9BQg2k4pqrl85p8YO88U0tNBosDBYZq0pxxUDJyMVIoYHk0FFjIIx3oTg03HHHWnr1FFhdSRutKpI+lNfgihTzTGS9TU8ZqAVMvAoGTDhs02Q8UgbNOIyKNBFctiomY/hU5XmmMnFICvmmMamKUxkGKYiq5BqI+vep3XiodvGDSsIjkxjI601CKc3pSIADTExx44HSmjHTtTmHp0puBikN2uRsBnnpQcYpSvOTQ4G2mxdSMH86c7fKPWmIOeac/tSsLQFYdvxocDPFNXC9acMDrRZAnYAAOaDIE5FOxkVGUzRuUttS8M4pQe1KTSKOaBsmz8op4PTioj0qVegouArZJzTkzu6Uo561MiA0DG9KkUkjpSMg4qVVwKAQinHFPJOKULTitAEXOaG5HSpAMUpHFAFNuvSo2q065qtIMUCK7njpUB6VYeosY+lAMgfp0pqtz0qWTJHTioxnNBLFZuc4pN3OcUpHrSgce9LSw3uQsTnpTS3ykYp79eKY2ccDihi6kanAxTnOVHFIox9KVz8vtQxDGJ44pNx3ilOQRSkfODQCYoc78YqSMBmOaYpPm9Kcgw5Jpl2LJBzS5OaftyM0gFA2KDUye1RYxUyUwZIuc81YXIFQjrU6jjFIY4AHrUoHHFQhST1qYAhetADgcUoI71XYkd6XcdopgTdelIW4qME560rHtQHQa2arSdasGoJOTQJlds1Cc/hUz8CoC1ITGOeOai5Jp7mkWgGhCTnnrTlJHNIw5pccYo0sD3ImyScUw7gDUpXnimMOKHYWtyHJx7Urn5RSd80McDJo0BIQknFL1NNbtS96NBIcNytUyc9ahUbjjvUh+UUItbH/9k=;fontColor=#333333;" parent="1" vertex="1">
          <mxGeometry x="270" y="362" width="70" height="70" as="geometry" />
        </mxCell>
        <mxCell id="iexFrpo45ZPIpEkn8Zlm-7" value="" style="shape=image;verticalLabelPosition=bottom;labelBackgroundColor=default;verticalAlign=top;aspect=fixed;imageAspect=0;image=data:image/jpeg,/9j/4AAQSkZJRgABAQAAAQABAAD/2wBDAAgGBgcGBQgHBwcJCQgKDBQNDAsLDBkSEw8UHRofHh0aHBwgJC4nICIsIxwcKDcpLDAxNDQ0Hyc5PTgyPC4zNDL/2wBDAQkJCQwLDBgNDRgyIRwhMjIyMjIyMjIyMjIyMjIyMjIyMjIyMjIyMjIyMjIyMjIyMjIyMjIyMjIyMjIyMjIyMjL/wAARCADgAOADASIAAhEBAxEB/8QAHwAAAQUBAQEBAQEAAAAAAAAAAAECAwQFBgcICQoL/8QAtRAAAgEDAwIEAwUFBAQAAAF9AQIDAAQRBRIhMUEGE1FhByJxFDKBkaEII0KxwRVS0fAkM2JyggkKFhcYGRolJicoKSo0NTY3ODk6Q0RFRkdISUpTVFVWV1hZWmNkZWZnaGlqc3R1dnd4eXqDhIWGh4iJipKTlJWWl5iZmqKjpKWmp6ipqrKztLW2t7i5usLDxMXGx8jJytLT1NXW19jZ2uHi4+Tl5ufo6erx8vP09fb3+Pn6/8QAHwEAAwEBAQEBAQEBAQAAAAAAAAECAwQFBgcICQoL/8QAtREAAgECBAQDBAcFBAQAAQJ3AAECAxEEBSExBhJBUQdhcRMiMoEIFEKRobHBCSMzUvAVYnLRChYkNOEl8RcYGRomJygpKjU2Nzg5OkNERUZHSElKU1RVVldYWVpjZGVmZ2hpanN0dXZ3eHl6goOEhYaHiImKkpOUlZaXmJmaoqOkpaanqKmqsrO0tba3uLm6wsPExcbHyMnK0tPU1dbX2Nna4uPk5ebn6Onq8vP09fb3+Pn6/9oADAMBAAIRAxEAPwDnACKCuetOzk8UEjdSuIAu0ZocZxTyQVFI3bFMVxgHzCpkHNNA5qVetAXG45NKBTuhooC4gFO7UCnDFAXDFNI5qQUjUBcaFpCKeMUhxQFxmKTbzT+KSgLiFeKTbT+MUhxQFxAKcBzSjFKMZ9qB3ExRinUlArkZFIRxTzSfSgLsZtp4HNJTs4oC49cZpSKapBNSUDM7cq9qz7vUI4ZthPNWw2RtPfvXLa5p873ZZHbHtU2J2Opt5fOjBXmrKjNU/D8JgtU805OO9Xyf3hI6Zppq1hjOjVKvrTScuKdnmmg6ikUuOKM0gNACgUvtSdKd2oAUUEUCnHmgBgHFGPWnD6UhoAaRSAc06koEIetJ1p5pO9AABS9s0UmeaBi0UdKAeKAG98GkI54pTQTxQIQCgijPIpT1oAdGKlxUaHmn5oGZJB3DFNaLfJgqMVJzTlJoYD449oA6CpcCmbuBmnD2oQra3HBeafikFKM5oGGKMUE+lHOKYIKeKZzj2p46UCHAGlIoGaU0gEHSmmnc02gYmOKSnHIpvNAAaSlPTmk5oAQ0ozSGgEigBeaBSZ9KUZoAKRqXBxQRxzQIaKdjmmgHNO789aAHZoBxTec0ZyaBlLrT1XjNNA4pyClYTJNvyg04DGKP4aXrTAcKeBUYp60DAgZoHSkPWlxQIUDjNPAGKYOKdQBIOKQ0gooGHtSYoooEBFNxTjTe9AARSUpFGKBiYpAM0uKUCmAbaXbS0YpANxikI4zS4zSNwKBDO9B4pMUh60AOzTc80gFJ3pgiAU8HmmgjFOUUgZLnilGKQDijiiwMdxnjpTxjHtTBzUgGFoGNPWlBGKSlAoAUU+kApwFAADQaXFBFADf5UU4YxSYpgJSd80/AxTcUgAnIpuaU0lAAaUUmKdjAoDqFHFFLQA3jPvTXIxxTiOaa3PSgRHkA0jEdqU4pjUAKCKQ0CkNALYhB4pytimjOKVRzQDJg2Rilz7UgHFOAoQCg81IDUeOakXOKBiHinL0pp608DigQtLmgCloGGfagmlFIRQAA89KKVRQRQAmaQntTjSYoAaelNzzTyKbQDA0oNGKUDigOovakz7UvSg0AMNIelO70jDigRETz0prdafTWFADQeelJ3p1JjmgFsVwCBTgTj2pBz3pwoBkinjmnjNNAwKcKAHfWnDINMHFPXpigYmeaeucU3vT16UCFpaQU6gYgzSmiigAGc0poFFACc0lOpKAEOe9NwaeRSUAxKBmigelAdQzRzig0dqAGk+lIScc0ppD0oEM5zQ3vSmmmgBBnNIevFLSY5oBFYU5etMXFSDGaAZKOlKKQdOKUHFACinqOKZx+FSKRigfUSnjpTTjvTlIIoAUU6m55p1ACgUYoB5paAEAopRig4pgIRSYpQQaXAzQAhpop5ANIAM0gExQFp+BS4FAdSMikIqRhTRzQBGRTSKkPWmn2pgRkU0jmpDxTTigQmKTFOGOlLgUhrYpLinqKjU09WxxQJko9qOtJuyKM0APBqQY21Fmnq3FA+opp60ynKeKAHjrTu/FNBpc0Ahwp1NFOoAO2aaadmkbpTAaKXvzSA+1LSAX6UopM8UoNADsUoAxmmlqVTTGBFJtpzHim7qQhjDmmEVIxppPFAEZHNIVpxPPSlJzQIYo4oxTs89KKBmcOaUCmgEU4Z/CgTJO3tThTO3NOBNADsGpF6VHnnmnqTQHUXvUgHFRA81IpOKBjxxSmmg0vNAD1p1MBp2aAFFBpBmlzQAEU3GDTuaQ0AGKBRmkyaAFIpy9KQUpyKBik02kyaTkUCA01ulLnikJ4oAb3pcUgzmnH3oEJSUc0hPpTGZ4py0zGKcOaQmPxS0nQUoFACjipF6YzUdSKOKBi96kHSo8c08CgB4NOBqPFLigCQEU6mAU4CgBw9KdikC0/FAxMUwjmpdtNZfmoEIFFJjBp2MU3GTQAoFB9KUdKMUDGHpTetPamYoENPrQaMU1qADvQTSYooAXtimmlpppgUBinjH40zIpwpCZJ296AQKb24paAHgj8KkUjFRAVIvSgfUXjvUimo8U8CgB2e9OHNMHvTl60APHFPFMpwoAkGKdTByKk7UDFBpG65p2BSEc4oEMJBpvQ04im45oGKDRmk6UtADWxTcinEUhFAiMnn3pCacRzTSPSgQ0GlOKSigA4pjcU/tUbUx9CiD7UoNJSgflSEyTORS5pvb2p60AOHrUin2qMCpU6UDFzilB4pDS0CFzTgaaOtPoAXNPB4popcUDJEPtUmaYnSn0AKD7UGlo70DGn6Uw9elSkUwigQ0mkBpSDQBQHUQmm546U5qQ0ARk+1ITxTyOfamsM0CGE89KQmnYpGHNADc+1MJp9RnrQMpDIoye3SlAyM0g60CaHZOOaepNM96kSgGSAmpFzUY44p46YoH1FzyaATSd6cKA6igmn84pgPen0wHCpB70wU4UAiRc06kXpTsZoGKM0tAFLigAANBWnAUYoAjI4puDUpHGKbjtQHUiIpuDUjCmkcUCIzSHPenHrSH1oAYc0je9ONNbjigBnOaiY81KeeKhagD//2Q==;fontColor=#333333;" parent="1" vertex="1">
          <mxGeometry x="270" y="286" width="70" height="70" as="geometry" />
        </mxCell>
        <mxCell id="iexFrpo45ZPIpEkn8Zlm-8" value="" style="shape=image;verticalLabelPosition=bottom;labelBackgroundColor=default;verticalAlign=top;aspect=fixed;imageAspect=0;image=data:image/jpeg,/9j/4AAQSkZJRgABAQAAAQABAAD/2wBDAAgGBgcGBQgHBwcJCQgKDBQNDAsLDBkSEw8UHRofHh0aHBwgJC4nICIsIxwcKDcpLDAxNDQ0Hyc5PTgyPC4zNDL/2wBDAQkJCQwLDBgNDRgyIRwhMjIyMjIyMjIyMjIyMjIyMjIyMjIyMjIyMjIyMjIyMjIyMjIyMjIyMjIyMjIyMjIyMjL/wAARCADgAOADASIAAhEBAxEB/8QAHwAAAQUBAQEBAQEAAAAAAAAAAAECAwQFBgcICQoL/8QAtRAAAgEDAwIEAwUFBAQAAAF9AQIDAAQRBRIhMUEGE1FhByJxFDKBkaEII0KxwRVS0fAkM2JyggkKFhcYGRolJicoKSo0NTY3ODk6Q0RFRkdISUpTVFVWV1hZWmNkZWZnaGlqc3R1dnd4eXqDhIWGh4iJipKTlJWWl5iZmqKjpKWmp6ipqrKztLW2t7i5usLDxMXGx8jJytLT1NXW19jZ2uHi4+Tl5ufo6erx8vP09fb3+Pn6/8QAHwEAAwEBAQEBAQEBAQAAAAAAAAECAwQFBgcICQoL/8QAtREAAgECBAQDBAcFBAQAAQJ3AAECAxEEBSExBhJBUQdhcRMiMoEIFEKRobHBCSMzUvAVYnLRChYkNOEl8RcYGRomJygpKjU2Nzg5OkNERUZHSElKU1RVVldYWVpjZGVmZ2hpanN0dXZ3eHl6goOEhYaHiImKkpOUlZaXmJmaoqOkpaanqKmqsrO0tba3uLm6wsPExcbHyMnK0tPU1dbX2Nna4uPk5ebn6Onq8vP09fb3+Pn6/9oADAMBAAIRAxEAPwDPC4FNI5p/FJxQJhjAo25pwwaMAUBcMYFKop4HFGBQAzqaOlL0pAc0ANIyaUcClwPxoxQFwxTgO1JUiigAVaOtOHpS4oAjIxTGHepz0qJulAMjJwKZTzimkjtQFxyjIpRwaE6e1BxmgBp5pMVIBxSD3oC5Ht70E4FO+tNbA6UCuJiilzSZA6UBcUUwjJpwxnmnYFA7i0AUgOKcDzQJihTmnBeaA3tS7uelAx4X5aNvy0qtlaXd7UB1IiuOtGKcx9qYG9qAsJj5sUuKDQOaBIAOalUYpgHNTLz2oGAXjNKRilzjtSk8UAMYVCw7VOT7VE5wKAZAetM70/qxpr8GgBwyBSHPWjdmkLYoAdkgU3dTCe9N38UMQ/OTSOabv4p27IoEC96axpWzxUTzIg+dgv1oAlTmpgKpw3MbHCsDV5CGHFAxnalUc0gp2RigGOI4oHpTlPHNLtFAwAwKcMkZpuaUHigfURqZjin55ppHFAhF5p22kXAqRTzRYAUVKvHSkGDTgV6UAhwGeaCuBThgClbGBQDIT0qGRcirL4XpURAagbKhQ5prgmre0A80hQMDQT1KWCBTlQsMmpSAAc9aar9qLD2ImUg0wDINSyn0poGBQySFjjjtTkyelOEW9vapAFjo6gmiOVypUYrn9eS5eTManp2NdA4LMCfwpJURvvdaTbuF0c3ocNwJR5oI/GuugUKKpRIit8o5q3G1NXsVd21KxkPrSGXvmoWNRuTjNBLLaz45zSG5OetU1cmnkdKALPnkd6b57E4zVYsc0in5qLDuWjM3rThKxHWqyjJpw4BoYiwsxx1qVZTjOappUqmiwFoTH1pQ7E9ahzmnLkmgaJxK2cZpXkbA5qMcc0bqAHbnYZ3UqsfWm7gBik/ixRYGSFj60CTANNpSBQBE4J70sa9s05lyKRBigBswwKaq5HWllamDp1oYieLCjNRyjLZpY8EYzSuuBSYiInAx61Wfcr4LZq7sDd6rTQ4lBzS32DRoVWH41NHUGKnhqkEVoUT1prdMVIxGaY9A2MUY6daUtQAcUhBoEIWBNOUiotvzVIBg+1AyVR1oDDnNIue9NNDC5ICKkHTiooxkYqT2FAiQMBUgb0qJRmnqDmgaJlbPFIRSqMc0hFAwGKcMDmkAyKUKelAgOCOKA4oKkdKaqZNAEm75aFwR7UhH5U4LhM0D0uV5wBTUKkc0s4PGTxTVX5aBEiABvenSMKbF15p02McdaLC0IfOCng/WmyzqzYBprJzSNEA2cUrISJEKkVPHgVCijFSAEUylsUsetNLAHFSMaiMZJzQDHFgRimtzTSpH0ppJ6UALxuqRPvVAQc1LGTmgCbpTOxpwNIfagQqHAxT8546UxOvtTz19qAQ8E8VKOTmohk1Iv60DTJlPtSkUKOKcBQMYOlAOKU5oHWgAJJ7Ug607+VFAmNduelN80jtxSuCaNuU96NB9RjnPNIGwp4pXXA4phORQIUN6UrtlcU1Ac+1EgNAhrN04phbMgpeaQD5s96ATH7sP0qZeahH3qlTimNbFI5zTsfLTSeaeCCKkbEONvNQspzVg4AqI0xMiYHNKuQaU+lKFyKAFDZ6UEkCjFKBkUNiu7ix89OlSfWmJUg45ouCY9QTUgznmmowFPHWgaJlzingGoweKkXpQPoNYYpmeeOlPIz3pmOc0AxwPrSck0vQZoB5oQgIOOetN5xUh6U0elA2ROSRxUYBxUzjiox0NAhoOOlEhO2lGMZpHxtoEQknNLnn3obtQaAQ4E7qkVs1EvWng4pjRWIpQOc0uKCcfWkDFJwKjPJp7HI461HkA0gYhpVGRSEilQr07U+gPcTGTSHinNjvTcg9aGHUcnPWpSMDrUAYZ96lDccdaLiJkHFSAmoUcZqbcO1A0SqMipUFRxEEc1OMAUDGstMK81MGB601gM5pgyHbzTgtOwO1AwKQCY4pu2pcjHtQMHigOpCw4qJlqeUce1Rgg0ARhaa4wKlPHNRvz0oERFaaM5qXimnHagEAGTThSDFLmgFsMIFNI5pwPHSkzQDGNxTG5qRzkdKYT7UCYw8iheBmhzzSK3PSjUfUGPek7U9uB0poPB4oYhqD5uakJ7Co89sU8HIHFAIfEeasA5NQL1HFTqckUDRZjGBmpc4FRRn2qU9KB9BV5pe+DQh4PFNZqAYp9qQdaTdxRu9qAY6heOaaWzSqeKBiSdKjC1I5pobjpQxDGFRsPSpWPFMZuMYoERYpGWnZ56U4nNAEajinYozg9KB1oGthh5ppGDTyCKacmgTI2yfpTCDUpz36VGxoQmRsD360qA0hJLe9OXNHQfUCPSjbxSg5PvSkkChh1GBaUg/hQMn6U4g4FHUQ9M96lUc01BxzTwefegEWYxxUg5qFM4qVTQUOPTioznNSc0xs5oAQ0Cgn1pOaBART16U360ZOKBisaaelNPWjJoASmtz1pSeKRs4oENoxRzmnE+vWgBnNIOKcc0wnPSgYUlKRSYoExrConqZulREZNAEe2nqM8UjChVoAXgGn4BGaYBzT8cUMBqjLZqXaKYo5p2DRYQ8ECnYpgSnqKBoni6YqXFRItTAUDFA4pp+9UoSmMnzUAxu0U04Bp+MUwigBO1JntRikxQAE03qKUikIoAbQelGKRhgUCE6Ggmkxmk70AL1GM0w9adimGgELkUZo4xRQDENRnANSHnpTGFADOKcoGPajApwwBQHUbjnmnAjFBGOTRjihgAxnNSrzUSipVHNADsYNOHJopB1oBFiOpsDFQx9Kl6AUDJFYUxzzmlGKQ9cUdQYhOaj4Bp5FM6mgBKTjNKRTfegOohpM0pHrSYFADT1z3pCfSl70hHpQIaCBQcUUGgBOPwpjcU/tUbe9AwzxTd2KUnNNxz7UCY/ORTT9KX+VHNACZ705T3xTSDT0HHvQAjHHakB46U5qSgEwHpipV6VGvX2qUfpQA7PtRml7U0g5oAmib2qYmoohgVJQO4oJ9KD16UuaM80AxD0pnfpUh5ppoAYxpgPPSnMDQoNAdRppM8dKc3tSGgBh9KQnjpTu9IwzQIjJ56UE807FIw5oAbnnpTGqTmoyOaAI8mkJOOKByM0negbQ7JxzS80YwKWgTEyaeuc03pTl9KB9RM8mkGaUjmjtmhi6irmn5NMU80+mCH56U4deaYKcDzSGtiZc0/NMQ8U7rTDoKM0/mmgU4Uhhg0Yp1GKYEZFNwalYUzHagOpEaTnFOYUnagQw5oOcc0Z5pT0oAZzQaWkPHFIBnOajbrUvXiomph0P/2Q==;fontColor=#333333;" parent="1" vertex="1">
          <mxGeometry x="270" y="210" width="70" height="70" as="geometry" />
        </mxCell>
        <mxCell id="iexFrpo45ZPIpEkn8Zlm-9" value="DCGAN" style="text;html=1;strokeColor=none;fillColor=none;align=center;verticalAlign=middle;whiteSpace=wrap;rounded=0;fontColor=#333333;" parent="1" vertex="1">
          <mxGeometry x="276" y="175" width="60" height="30" as="geometry" />
        </mxCell>
        <mxCell id="iexFrpo45ZPIpEkn8Zlm-10" value="" style="shape=image;verticalLabelPosition=bottom;labelBackgroundColor=default;verticalAlign=top;aspect=fixed;imageAspect=0;image=data:image/jpeg,/9j/4AAQSkZJRgABAQAAAQABAAD/2wBDAAgGBgcGBQgHBwcJCQgKDBQNDAsLDBkSEw8UHRofHh0aHBwgJC4nICIsIxwcKDcpLDAxNDQ0Hyc5PTgyPC4zNDL/2wBDAQgJCQwLDBgNDRgyIRwhMjIyMjIyMjIyMjIyMjIyMjIyMjIyMjIyMjIyMjIyMjIyMjIyMjIyMjIyMjIyMjIyMjL/wAARCADgAOADASIAAhEBAxEB/8QAHwAAAQUBAQEBAQEAAAAAAAAAAAECAwQFBgcICQoL/8QAtRAAAgEDAwIEAwUFBAQAAAF9AQIDAAQRBRIhMUEGE1FhByJxFDKBkaEII0KxwRVS0fAkM2JyggkKFhcYGRolJicoKSo0NTY3ODk6Q0RFRkdISUpTVFVWV1hZWmNkZWZnaGlqc3R1dnd4eXqDhIWGh4iJipKTlJWWl5iZmqKjpKWmp6ipqrKztLW2t7i5usLDxMXGx8jJytLT1NXW19jZ2uHi4+Tl5ufo6erx8vP09fb3+Pn6/8QAHwEAAwEBAQEBAQEBAQAAAAAAAAECAwQFBgcICQoL/8QAtREAAgECBAQDBAcFBAQAAQJ3AAECAxEEBSExBhJBUQdhcRMiMoEIFEKRobHBCSMzUvAVYnLRChYkNOEl8RcYGRomJygpKjU2Nzg5OkNERUZHSElKU1RVVldYWVpjZGVmZ2hpanN0dXZ3eHl6goOEhYaHiImKkpOUlZaXmJmaoqOkpaanqKmqsrO0tba3uLm6wsPExcbHyMnK0tPU1dbX2Nna4uPk5ebn6Onq8vP09fb3+Pn6/9oADAMBAAIRAxEAPwDiYpgvJps+oxhtm4ZqtKj7DjrWUtjcSXgZl+WmLodJZXu6THatYvkA1jWNmIyCRzWuoXApWBaD1OalXGc1EoGalC0ATqeKeOajQ4qRTQMkQ84p4GWpoFOBGaLCFzSHmlyKMUDG55xSqaQ0owKAYrc0mO9OIyOabkdqBAeabTskU3OM0BYUcGnZ55pgajOTQAr4xUTHinMaj3CgAB4xQelN3d6XIxSAY1MK1IdtQySqByaYxelMc8UzzARkUxnNNCZlRxZ61bigRVyRzUUaY71OuaB2HLtB4FTCogOakTrQBIvWpQT0pijJzUyrzSFYctSLSKKeFxQA/mngcU0L70/BAoAQilzxSYpQKAGk4FHWgilUZoAU5pCMc0/tUeCT1pAFMPGacRSEYpgNX0pwGDSAd6XmgBjVCzAVK9RFaB2Qm4YzSgg0zFAzRYQ2Vj/DWbcyMD1rQlPFZs0LO+eaBjIpXZtoNWzkKM1FAnltkipncelAiohwamBGahQAmpgOaBkyin9aYvTinr70CJUFTAc4qFKmUjtQMlQVIKYnFPGM0APHDVJmowDnNSCgAAFHSgClxQBG1IB6U5hR0AxQIfjimEcZpSTSHpSAaRQaXtSfWmAwdeaU5xS4o7UARkUwjNSZph4pjI2GKToM0rdc0cGkIhkGaiAA61M9QNQMaw54qJh60/JFROWoAiUj0qVetRqKcCQaBE4NSLUSk+lTJzQBKnNSDio1FTLQMlQ0/vUaDmpsUCHAd808dKaKdigYoFOH0pAcUu7PagBjDJpCOKkPSmGgQ3vTjSEUYzQAlNNO70hoATNHajoaDQMiYU2pDUZ4oDoRvTTwKc3rTOlMBrMDUDHJqRzVdmIOKQDiKibmn54phOaBEI4p455qMc1IvpQMmU8U9Cc1GB2qVKAJlPIqZT+VRLUig5oAmUCpVqFQalWgCUU8VGDzUo6UCGnrQOKKM0DFyaY1P96aRQIbmlHApp607+GgYU00hzikzQAuRS8YzTaXIC0CGkCo2AAqRjmonoGRPjbUeeKe3XBqPvigBkhFV2zmrMg4qozYPNADyflqFjzTy2VqNzgUWEMXipAfamLUoNMB61OoqFfWplNICVRzUyioV65qdW44oGPHNShaiFSAmgB61KG46VCKeCaBEhpKQcGnYoBCEUjDjrS89qaR60DG0o6U3BzSjrQAjUwnFSE0zFIQKeKDyKTGDQaYARxUT1L2pjKDQBUkzmkUHNTOtMAwaAIHOeKryR85q0680xgMUDKZyKR+R0qcoCajcCgCJeamUcYqKPmrKLnmgQqiplU1GBg1KpzQBIo7VKoApikYpc4NAycU8GoFJNSr0oAkB4qRajXk0/FAh45NLTM4pd1AxcnNI54pCwppfjmgQZpQOM1F5gNDS4FAx7UmKh8zNOEgoESYNIaBIMYpCc0AAFNYHFPDAU2SgZXbNNwaewppHHWgCN8CoGOTUzjIqueKQCHHaonGamqFhk9aYFKObBq0twAKzV3E1YVDjNAF8T5pVmINVEyDUoyaEBbE+KmSYGqAGRUiDFAWLyzDNP8ANzVRRUq5oBFlJcGpBNzVYDilBxQBc35oDVWDE9KUMaAJi3NRu1G7JprAUCG5xRnJpOKUEDigYtAFIxFOGDQAoyTTjwKMgCms2RQIUHnmlZuKjJzSEnFAxGbNMJpOSaBwaAGSdKgzzU0hqvnnimA5vu5qE8mpTmm4xSAyoxzVjJxUEXNTgYoAcoNTLxUINTKc0APAqVRTVFPC+9AD1qUA1GoOamTpQA4A5pxGRSgcUGgQwnHSkBJNOIpAcdqBjxwaQtyaTJzSZzmgQ0tzSgE800jFAJouMf8AWk3c8UwtzQPWi4iYtgYpu7jFMLU3JzQMmBoLDFRAk0ppAgJ700HLUuaUL3pgQymocjPFWJFyKrKvNAEgINMY0pyDUbNQIy0JFThjVdHFTA/LQMlBFSpyarhhU6UWCxZHtUi9ahU1Krc0CJlyKmXgVAG6VKKAJR0oOaQZzinZ9aAGc0mfmpxOc4pgoGOJyKbinU05oEJn1pGpSaaTkUDGGlWkpwGKBCkc0YpQDSn7tAxopSeKQUUWAbxmpAQBTNvenquaBEUhzVfOGqzKuBVYITzRuMGbmoJCanZcfWoXWgEZEZqbdUK9alHNAEq+tWENVh0qdOKBFhTxUiGoFz1qRTQMsBqlUn1quKkU0AT7iKNxPemBuKM0AP3UobioyaA1AiTdRupo5GaAKAF60lBPtSZ5oGIwpV5pTigYpXAfSEZpDQKYgFB4p1IaAI2bApUJobpSL1oGSNyKhXFSMflNVs4PWgBZOpNVmODmpHbJqFjmgRlr1qZRUSVJQO5KBmpVGMYqJKlFAiZafTF4p2cUDJVOakHvUK5qUUBsPGDTqZ0pw5FACHrSigYpRwaAuP6CgGmml7UwFJpmcU6kODSEHvS46UmeKUc0hj8jFHamZwaXnGaYh3SkPSkDZ4px4FADD93FCDJoI4zQhwc0hg/FVWwTVmU8VV702A1xxUJ4qwwytQkUAZyqPWn98VEhIqYdKAsOUVKtMXAqUHjikA8HjNPHIzTEPapB6UwHLzUgqNeKeCaAJBzTjwKap45p3BoYCd6eDTCcU4YFAeo8cihhQOlDHFACHtQRkUpNA9KAsNxxQtBPPtS49KAFpGPFP601hxzQA1Rjml5pV5o56UCGE0qmgjBoFACSnA6VV3c9KuPgrVQjBoAa3NRk1Kx71EfagZmqKkxgcUxadnmiwyQc/WpV4quuc1IGoEWFYZqTcKgQZNTbeKQD1NPBpgFOzTAfnPNOJ44pqntTqADOactM6U5eeaAZKDSE+tNFIxxQA/tzRvz0pgOVNNU84oDUkJJpy8U3HFOFILEi0Pg8U5RximOO1AMQYFBpE6mn8UxDME9aTABqT+GonOKLjGnHOKgapTUMgJNIQxjmoycUrA4pMZFMZ//Z;fontColor=#333333;" parent="1" vertex="1">
          <mxGeometry x="350" y="210" width="70" height="70" as="geometry" />
        </mxCell>
        <mxCell id="iexFrpo45ZPIpEkn8Zlm-11" value="" style="shape=image;verticalLabelPosition=bottom;labelBackgroundColor=default;verticalAlign=top;aspect=fixed;imageAspect=0;image=data:image/jpeg,/9j/4AAQSkZJRgABAQAAAQABAAD/2wBDAAgGBgcGBQgHBwcJCQgKDBQNDAsLDBkSEw8UHRofHh0aHBwgJC4nICIsIxwcKDcpLDAxNDQ0Hyc5PTgyPC4zNDL/2wBDAQgJCQwLDBgNDRgyIRwhMjIyMjIyMjIyMjIyMjIyMjIyMjIyMjIyMjIyMjIyMjIyMjIyMjIyMjIyMjIyMjIyMjL/wAARCADgAOADASIAAhEBAxEB/8QAHwAAAQUBAQEBAQEAAAAAAAAAAAECAwQFBgcICQoL/8QAtRAAAgEDAwIEAwUFBAQAAAF9AQIDAAQRBRIhMUEGE1FhByJxFDKBkaEII0KxwRVS0fAkM2JyggkKFhcYGRolJicoKSo0NTY3ODk6Q0RFRkdISUpTVFVWV1hZWmNkZWZnaGlqc3R1dnd4eXqDhIWGh4iJipKTlJWWl5iZmqKjpKWmp6ipqrKztLW2t7i5usLDxMXGx8jJytLT1NXW19jZ2uHi4+Tl5ufo6erx8vP09fb3+Pn6/8QAHwEAAwEBAQEBAQEBAQAAAAAAAAECAwQFBgcICQoL/8QAtREAAgECBAQDBAcFBAQAAQJ3AAECAxEEBSExBhJBUQdhcRMiMoEIFEKRobHBCSMzUvAVYnLRChYkNOEl8RcYGRomJygpKjU2Nzg5OkNERUZHSElKU1RVVldYWVpjZGVmZ2hpanN0dXZ3eHl6goOEhYaHiImKkpOUlZaXmJmaoqOkpaanqKmqsrO0tba3uLm6wsPExcbHyMnK0tPU1dbX2Nna4uPk5ebn6Onq8vP09fb3+Pn6/9oADAMBAAIRAxEAPwDh4VJ7VeiO0YpsMSjrVoRKfpQAoOVFOWkKgDFOA9KAH44pD9zFPABWmkc8UACcU8DvTVHNSCgQqnJqQHmm7aeBxQADvSHrTsUh4oARR82akpg65qTjFAxc8VGWGacelR4Gc0CHZp2abx2p2DQMcOKUNmkxnrTgMCgAJph6Gn4phoAiJwKZ1qRhmkCgUARk81HKcLUjAZqle3Qj4BoC47zOKaTmqkMxkNWxnFFgRFGpqwMgU1Bg9Knx7UCIsE04A0/Ge1PC8UDEUcUhp4BA6U0igBE61KoqNV5qZQaAY8crSqKcq8VLswKAIttIUNSkUFeetICDac1Jt4p2OaXHFO4hjDioT6VMwNR96BjlXinYoHAozzQIAcGnhhTcZpyrigAOaZ1BqXPtUZOKB2Ij1ppOKexyab3oAjIzWNqSES81u9Ko3UQkfJoEUrKMYBxVxhimxRbTipGoGIoqYLUCE1MGIFAh4GDTwajzTgaAJQOKjI5p6t8tBxQMaBipUqMEVKgoAkWpB7U0L6U/FAhjCkp31pOhoAZjmpB0pvGacBnrQA16hI5qZuaY3tQMaBTwtMBqRTxQALxT854pAtKFOaAE3dqYR60/bTDk0ARsKaRxmpCOPek7c0XERkYFVpBlqtNg1WY80AMyQcUlOPrTO9AyKF6s5qmjYNWFfigRL2pwqLNKKBk46UUxG4p2aAHA81Kp6VCKkQD1oAtIeafjvmoouTUposBGabmnmmjGKBCVJ0FMAzUgHFNjI6aaeRimFaQDMVInNM24OaevFADgDS5waQHNL2oEBpmMg0uaRulAxh+7Te1B+7SYzQAMOKqt1q25wtU2xu60CY3k0hFPz6U1jQMoIc1Op4qsmRUqsc0AWAxpd1RgnFOHNAEqtUi1XBIqVSQM0AS7sVImarKck1OmfWgC1GcVIG5qBCalA4pgxTScUmaAaQD1xn2p2QKYDS0CEJyaazDpSFsGkJGKYxNwpc4qItzTlPrSETA0c9qapGKXPpQAppM8GgGg4xSGRkgCmlhSsKjamA9/u1TYc1aJ+WqrfeoAVRzTWzTqac+tMDOzmnr1pi08HmkBKtSKKYpzUoX0oAcq5p3SkANPIBFADRUiZBpoGKlRc0ATx1PjjrUKAYqXHy0CENRlvmp9REc0WGS54p2eKiHSpByKBDGHvTD6U5zzTC1ADTThUbZpRzQBODxSZpqnilxQMcOaVuKbnHSlJyKBDGPFMAyaGOBTQ3PFAx79KrEc1ZbOOaqu+GpAB9KjOc04tkZFRk0wKC5qVeaiQ1MKAJVAqZQaijFTCgB4oJxSoM04rigAXpT0bHFMWgDmgGWkOamzharIccVIW4oEObio+aUnNIaBjlPrRu7U1fvU4jHNAiNjzRgEUpGaQnAoAQjjFIOKCeKByaB2HjkcUjEgU9eBTHYUCGgmnNupopwOaBjSCRTEUhqmOAKQYoAH5Wqci5arhNQN96gCIKBTGU1MRmmjGaAMxBiplqKOp1GTQImTFS4qIKKlWgZIg4pWHehDSt1oAj60q9aDzSrSAmSpT0qNBzU2ARxTAjY4qMtmpJFJFQgYHNAh6nilL0ijjmhlHagYmaaWoORTSueRSARnojYk0x1zT14xTAnzQBSA07NABjFNIpc0ZoAbgkYoC04kUAgHNACdqgkPNWDyKrOeaBDQaa2Qc05evNDc0DMyOp1OKrR/WpgfegC0jetPBqujVIr80AWUqQjNV1fFO8w5oAeRTlGaYGzSg4FAE6VNnAqtGferC8igQjsMVAWFSycVATQA9WyKcTTF4pTQMRhyKQ/LQetIz84xQIRulMBOaVjmmg80ATpk1I3C8VGnSnMTQMaDS54phPNLu9qABm4poJoakU0CH7+KhYjNOYUw9KAFyMU1jikHFIaBmSnWpe9Qq2KmU96AJVzUi8VGp5p4NAEqmpO1QA81KDQA8E07NNFAPrQBMhwasoRVNCTVmM80CHyGosU5+Kjyc0AO9jS8YpvNKOaBjTwaaT6U4jimZpgIx4pmTmnkim5GakCVSKkzxUKjJ4qXbhaYDSaQmlIpMGgQ1s5pF60p4oAoGK54qI1Kw4qHqaAAZxTHNSdKYRzQBjjrUqmmAU8cGgCVTUy1AozUgOKAJB608Gowaeg4zTAlWn4yKYtSCkAqDHNWF5HFQA81PGaABzxUY+tSPioT1xQInUDbmgimKeMVIOlAyNhTTjFPNNbpQwIjRjmlwM03vQIkU81KBmokHNTgcUDI24poNOamFcigAPWkHBpDnGKVaBA54qE8VYPSoHwKYxuaM5oHIoAzSAyFOaeOtRqCKlUZNAEqVIBTAMDinrmgBcVMnTFRjmpFoAkXNOwaavvUuRigQJkVYQcVCnNWVGBTAiYHNMYE1OwpmBSAagOKmUHHNJGOcVIeBQBCw5pjLU5HNMYUXGViOaApzUu3mkwc0AOQelTDpUaVKBQBC4pABipHU00rQBE3rTQ3NPYfLUI4agCVgcZqrNVov8tV3GaAI4icVJyKRMAdKRmxQFjJXinrknNNHvUqjJoAkXJp4pF4FOAyaYDlqVaiA5qUHmkIlFPApic1LjHSgB6DBqbORUKZNTrQhiGmgGpNmaeqUAMjQ7qmMdPVRTyKAKrKc0jLxU7r61C4GKAIOh6UYp5xQRjpQIVEqYL2qJBUgGKBiMBTHXNObNI3vQIryDFRYwanc5PtURXmgBCKjZe9S7RUUgwaAGdKG6UvGOtJQBkKM1NHUS9KkTihIZOAc1IFpic1JnNAD0XNSBRupiVIOWoEOXAp65NNA5qULikA5BzU6gGokFTqvemAuKVTSgdaco+WmMehA608FTUYHFPC0gGSEGoGWp3FR00BAU5pwFPxk0EUgGqM07mhOuKcwoEIRkUxlNPzgUzOQaVhkLjniou9SPUWeaYDwPWonHNSgcVFK2OKAIyBTeKTJzSMcCjcD//Z;fontColor=#333333;" parent="1" vertex="1">
          <mxGeometry x="350" y="286" width="70" height="70" as="geometry" />
        </mxCell>
        <mxCell id="iexFrpo45ZPIpEkn8Zlm-12" value="" style="shape=image;verticalLabelPosition=bottom;labelBackgroundColor=default;verticalAlign=top;aspect=fixed;imageAspect=0;image=data:image/jpeg,/9j/4AAQSkZJRgABAQAAAQABAAD/2wBDAAgGBgcGBQgHBwcJCQgKDBQNDAsLDBkSEw8UHRofHh0aHBwgJC4nICIsIxwcKDcpLDAxNDQ0Hyc5PTgyPC4zNDL/2wBDAQgJCQwLDBgNDRgyIRwhMjIyMjIyMjIyMjIyMjIyMjIyMjIyMjIyMjIyMjIyMjIyMjIyMjIyMjIyMjIyMjIyMjL/wAARCADgAOADASIAAhEBAxEB/8QAHwAAAQUBAQEBAQEAAAAAAAAAAAECAwQFBgcICQoL/8QAtRAAAgEDAwIEAwUFBAQAAAF9AQIDAAQRBRIhMUEGE1FhByJxFDKBkaEII0KxwRVS0fAkM2JyggkKFhcYGRolJicoKSo0NTY3ODk6Q0RFRkdISUpTVFVWV1hZWmNkZWZnaGlqc3R1dnd4eXqDhIWGh4iJipKTlJWWl5iZmqKjpKWmp6ipqrKztLW2t7i5usLDxMXGx8jJytLT1NXW19jZ2uHi4+Tl5ufo6erx8vP09fb3+Pn6/8QAHwEAAwEBAQEBAQEBAQAAAAAAAAECAwQFBgcICQoL/8QAtREAAgECBAQDBAcFBAQAAQJ3AAECAxEEBSExBhJBUQdhcRMiMoEIFEKRobHBCSMzUvAVYnLRChYkNOEl8RcYGRomJygpKjU2Nzg5OkNERUZHSElKU1RVVldYWVpjZGVmZ2hpanN0dXZ3eHl6goOEhYaHiImKkpOUlZaXmJmaoqOkpaanqKmqsrO0tba3uLm6wsPExcbHyMnK0tPU1dbX2Nna4uPk5ebn6Onq8vP09fb3+Pn6/9oADAMBAAIRAxEAPwDlFWp0XHFRqKnReaYiVBUy8CmAVIKQxRThTcc08DimIcAacBQDTqQw9qetM+lSLQA8GlFCilHSgQmMilzilGMc0pGelADRx0paTp0pcGkgF6CgUvagHnimMUcUpPFKBSEGgQdqjapO1RsMUDIW6VHUr1ERg5oEHrUMgqYVFIMmgZD0GajZjUrKdtRH0oApJU6H5qgQ81Mv3qBFjPFPU1GORTlBFAEgPNPHWmAc1IBQA9RT+tIDxSjpQAg4NSCmbvapF9aBjxS0UopCDjNKKTvSgUwE70vegilA4oGHSlA9KXFAFAC9qXBxzQBS4oEMzTG5p5GKQigCB6jNSvxURpDEA61DJwanPSopF96YELH5ahJqRs4qEg5oApoMVOvrUCZNWEBz7UMCUHiplzUIxmpVbFAEmBUigGo1z3qRcYoAdincmmnOKcuaADGakXgcU2lGaAJBSikApVGKBDiKKCaQUDHUtM5p4z3oEOFLim5pc5oAcOKM0g5o6UAIxzTDT+tIRxxQBBJ+tRc1KxzUZoAQmomNSGoyvOTQBA/FRMasPiq7LzSGUUNWUHFV0GaspTEPAqZFqNRUyGgBwBqQDimjPpUgoGGMinLQBS9BQAVIozTBTxzxQA8CgcUlKtAC9TQRS96PWgQCnYwKbThyKBi4pcUmMinAUAA5FIacKQ0CGbfekPHFLnmkbGKBkTDmoyOae3WmmgQwjFRNUrGoW5NAyNqiepWOKgbmgCmntVhfeqyA54qylMGTKOKkUU1RxTlbmkBMpp/eo1Ix71ItCAeKdTKcOaAFFKDg0g4oJzQIkU06mDgU4GgY4etBpV5peKBDQBmn4GKaOacKBhTgaAKKBB9KKO1HagBnekOBTyKYRxzQNETUw57U4mmk4oAY5NQnrUrVC/WgCNxzUTcVIwOaaeaAKK8Gp0qBRzVhBigCVSakFMTrUmKBD05FTKKiUYqVaAHDr0pRSjmjBoGLnmkI5ooxmhAPFOUd6aKkVRQAuaSnYxSUCEHWpAOajXrUlACjrSnrSHjkUgoAdQRTc80uc0DEI96Y9PPtUbEmgCI0xuakaozQBG1Rt1zUr81CQaAGMMjNRGpGqJhmgCsgFToKhUVMvFAiVVwalFRqakFAyROalFRJUooAcopxzikXiloAQD1pelAp+OKAEAp6mgClxzQIdzimHmnU0igYg608mowcUuaAJAfWkJphJpd1ADhzSnimA807rQIOe1GKCcU3PFAxknSoiac55qNjQAMBioiaczVGSDzQIjeo2OBUr8iosepoGVl5NTqKqxuBUyyY6UAT4qQVArk1KvNAMnjqYVAgqZfemIkHSlNIKXuKQxVFSgcUzmnrQIWinUhNAxM8U0mlpnINIBTSA80maG6ZpgOzRTN4xS7s0CHg0oNR96cDQArCo2OKeSKjagZG1MJyMU8mmEigCNifSmHrTywHWo2cdqAsMdqrsxFSvyKjxQBmJNUwnqknNTqAB1oC5bS4FWY5gazxxTlcg0AbEcoxUokGayopTiphKcUAaquMUvmCs1ZiO9SCfNAWNBX3VMrACsxZjmp1mwM0xF/INAGaprMTT1l5xmkMsEUw9aaGOaeBxSAaVprA9KfjFNPJpgREUgzmpQvNLtoENBx1pwpMU4DjFACHFRsafimMKBkTsAaru9TvwKhPNAERy1NPAp5GKY5OKBXI2bmjIxTQO9I3FAGODipAc1GBTxikMmGMdaUHnio+1OXg0xInTiplOagXJqRWxQBMOakqNaeBQMlXgVMoyKgX0qwo4oEPHTApyDmhUp6KQeaBkyjipFpg6U9aBAetIRg0pHrSGgBMZoNHaigYAZFGKBSmgRHnrTCaecZphoGRMOKhbipm64NROaAGcZ5pkzIsZJNDkCsbVrlo4WwaAL63EbDAbmonlUHrXPadcyyyDmtRtzU0CIAaeDTBg96fjFIB+cCpFNRgZFSDigCRTUyioUGKnWgCVGHSpVqJRipVPFAEiY3VYSqqDLVZXigRYBAFOXrUYpw5oAmFOWmL6GpABQMVuaaKDTaAHGim5NIp5oAfkUh6UtBoAiPFNPSpDgVGx4oERHnmmMBTjSE0DIWjBqje2izRkcVffp1quwyp5pBcybayWDGAM1MUGamZfmpjLTAzFxUoxTAtSDgUAOFPWmjpTl4oAlXFTLioBUynAoAmWpBUQ4FPWgCZT81WFNVFbnirSHI96BEu496epNMpymgZMDkVIvSol6cU8UAKTTTRmmgmgBwNIOtJzmlA5oAkHFDH5aQGlPTFAiNqYSMU5qYeBQMiYCmnpTmNMNADCM1EUzU54ppoEVHjwc1AyirrCq7KM0AY4GKeDzSYFOHWgY8DilHBoFKo5oEPU1KpzUY4qRaBkoyafTFNSHpQAqmrUfSqig1biOAKQE6n2p680xSKkAxTAeDilBzTQe1LigAJxQKKAOaAHU3NHegdaBDh0zTu2aQUp6UDGGo2HFSHimEigCE0lOYc0mKAGMOaaaU9aQjigCF+tVmzmrRGDVdh8xoEZA6U5RSCn0DHDrUgGajAqRaAHgDNPApgp68mhCJFGalA4qMcVKKBiqOKnQcVEKmQ8UATqOKePemqMinA9qAHDG6n0wCloAUYpeM0g4peMUAIaXpTc0A80CJAaU4xTcikJoARiKjNPxmmMOKBjGPNNJo6mgjmgQwmkJp/HpTDzzQBGwyarN941abpmqrH5jQM/9k=;fontColor=#333333;" parent="1" vertex="1">
          <mxGeometry x="350" y="362" width="70" height="70" as="geometry" />
        </mxCell>
        <mxCell id="iexFrpo45ZPIpEkn8Zlm-14" value="Cond DDPM" style="text;html=1;strokeColor=none;fillColor=none;align=center;verticalAlign=middle;whiteSpace=wrap;rounded=0;fontColor=#333333;" parent="1" vertex="1">
          <mxGeometry x="347.5" y="175" width="75" height="30" as="geometry" />
        </mxCell>
        <mxCell id="iexFrpo45ZPIpEkn8Zlm-15" value="" style="shape=image;verticalLabelPosition=bottom;labelBackgroundColor=default;verticalAlign=top;aspect=fixed;imageAspect=0;image=data:image/jpeg,/9j/4AAQSkZJRgABAQAAAQABAAD/2wBDAAgGBgcGBQgHBwcJCQgKDBQNDAsLDBkSEw8UHRofHh0aHBwgJC4nICIsIxwcKDcpLDAxNDQ0Hyc5PTgyPC4zNDL/wAALCADgAOABAREA/8QAHwAAAQUBAQEBAQEAAAAAAAAAAAECAwQFBgcICQoL/8QAtRAAAgEDAwIEAwUFBAQAAAF9AQIDAAQRBRIhMUEGE1FhByJxFDKBkaEII0KxwRVS0fAkM2JyggkKFhcYGRolJicoKSo0NTY3ODk6Q0RFRkdISUpTVFVWV1hZWmNkZWZnaGlqc3R1dnd4eXqDhIWGh4iJipKTlJWWl5iZmqKjpKWmp6ipqrKztLW2t7i5usLDxMXGx8jJytLT1NXW19jZ2uHi4+Tl5ufo6erx8vP09fb3+Pn6/9oACAEBAAA/AOcWn0Zoo70tLThRR0p1KBTx0oIpmMGnClpKUdKKXtTTSGgUGmmkIphqJRTiaAaWinDpQKeKXFJinCnYp6rxzQQaYQaUCgjmkFKKXFGKQikxS7aQg0zBoI4pjCoVpTQB3pc0uaXNGaeDxS5pacKXPNPB4pSaYc05aDTcU4cUUvWkxRS01qZ3opjVXFKaUUlOFFAqSlpaXNOpR0paKWg03FOFL3oxSYpKXtTWNN70E0wiqy080UlOFLSCn0uacKUUvenClANB5oApTxSU4Ud6PpRjNIaSkNNophFVxxSk8UDpS0UvPelFO7UDrThTwKQU4Ejmng0hNKKDSUopaM0maQ0Ckam55o4prVVFRsTmpE6U+gCnYyKBTxS96B1p4oAp1KKQ0opaYetOFLSjFFNNApGpuKDTTVUc0EUopwp1L0FFDHBpN/OKeGzTwaN2acMYpQaQmgGlzSUopaBS0hozSGm0lNNVhTiM0YxTgBRS9aKG5FRfx1Kp5qQH1oHBpcjOKcD6UppKXtSA804Gg0ClpKKaaTNFNaqy0/tQBS0U5aKG6VEB81TKO9SMABUYOaUVItGaM8UpPFN6mnilNAFBFNooNNxRTWqsOKeDS0UuaUUU1uaavBqQMKfncKTGDThxTxSUuKQ0maUGnZpwpCKaaKQmkpCeKaTVcCnUtFFPHSkNI1NzzigD5qeoOaeCc8044NOU4oNIDQRR1oWn96cDSGmnrRSGmd6WmGoRQWwaUHNLS0vSkpSMimbeacAc1IAQKbkk5py/eyad35pTnFNHWnZoBpRxTqBQTTSaKDmm0dqYxqJaRhSrTs0DrTu1J3oNFOxjmndaY4wcChTg1IpyaXtSDrS0mKcDRSiimnrQOtKab3oPSmGq4NBalBpQacDS54pM07NLnmgtSg00nNKDTxQTSZ5pc0m6nA5paUGgmm04Gg03NITxUZNQCkbk0opwNOBpc0UtJmlp4pppVPaniik4oOKb3pwpc0opSaSloNMNNNMNRCkNAzThSinA0meadQOtOpaaaVaeKQ0Cg0lKKXNLmjNGaUGgmmZzSGmGoQaDQOKUU8GlBpO9OB4pRS0uaTtQvFOBpM0meaC1JuyacDTqXpSZpM04UhpKaaYahFIx5pVNOpRTsUmKUU4daO9OBpDminUlJjmgrSAYpyinY4paQ0nelFBptITxTDUQpCB3pyilpwpwooFLRmlpTSClFFFLxScU4YopQaQ4ptOFDU2kNMNRCkahTT6UU4UUooNApwozxSA5pwoNFFJThRSikNN708UjUykNMqMU180qGpKUGlopaSgU+k60oOKXNLmkpc03NOFLRSUlKDQTTSaQ9KjNMApGNOXpTqUUvailpCeaWlHNKaQU6igGikNKDxS5zS0lNPWlFKabikNMIqMUjClWn0A04GilpDRTxTTSDNPBoNAoJpM0uaUUtIaQ9aUUppuaQ001GOlIeacoopRTqKWigU4CkNIOtLRmijNITQOtPFKDSGmnrThQTSU00hqIUtApaBTh0opaKUU+mGkpwHFFFGKQ0CnUoNBpuOadSE02g001GKDSiloFOFFOpKWlopBzTulIaTNLmigYp2OKXFJSZozxSGkoppqMUGlFLSindqSndqKBS0HmgCnYpMUmKXFIKcBThRjimkUmKKDSUlMNf//Z;fontColor=#333333;" parent="1" vertex="1">
          <mxGeometry x="453" y="210" width="70" height="70" as="geometry" />
        </mxCell>
        <mxCell id="iexFrpo45ZPIpEkn8Zlm-16" value="" style="shape=image;verticalLabelPosition=bottom;labelBackgroundColor=default;verticalAlign=top;aspect=fixed;imageAspect=0;image=data:image/jpeg,/9j/4AAQSkZJRgABAQAAAQABAAD/2wBDAAgGBgcGBQgHBwcJCQgKDBQNDAsLDBkSEw8UHRofHh0aHBwgJC4nICIsIxwcKDcpLDAxNDQ0Hyc5PTgyPC4zNDL/wAALCADgAOABAREA/8QAHwAAAQUBAQEBAQEAAAAAAAAAAAECAwQFBgcICQoL/8QAtRAAAgEDAwIEAwUFBAQAAAF9AQIDAAQRBRIhMUEGE1FhByJxFDKBkaEII0KxwRVS0fAkM2JyggkKFhcYGRolJicoKSo0NTY3ODk6Q0RFRkdISUpTVFVWV1hZWmNkZWZnaGlqc3R1dnd4eXqDhIWGh4iJipKTlJWWl5iZmqKjpKWmp6ipqrKztLW2t7i5usLDxMXGx8jJytLT1NXW19jZ2uHi4+Tl5ufo6erx8vP09fb3+Pn6/9oACAEBAAA/AORBoJpynNPBpwNLnijrTqXNLmlzS5o7UhpM0maM0lGaaaSkJpuaXNITTc0namGlpD1qRaeKUUtKKdxRSinUUUZpppKDRmkzSGkpppKKDUZNLTCaBTuKctPpRS0CnUopc0Zpc0lBpDRSE0U3NGaSmmkozQaYaO1NNApe9OWn0op1FOpRS0UUd6KQ0lFJSYpKDTTTaWkJpppO1MY04ClJp6mnU4UtAp1KKWlFKetIaTNIaKaRQBQaQ0lNNNopDSGk7UwinijGTTgMU8U4UtKKdigUdTTsYozRRimmikoopppDTDSGkopKTNNNOp2OKWnClFPHIop4ooA5p3WjFHQUU00lJRRTTSE0w0hopKaaSmmninU6lFOpQeKcDQTijfzinBqUGjNLmjqKQ0lJSUvammmmmmm0ZpKaTSdqYakFKBmnindaBTqUUjUz+KpFNOHvSil4zg0A0UlJQaSkPNJTDTaKaeKbQelRnrUop1KM08Uc05adSMOKiHWpVHOakYYFMzThS0lFFIaMU0mm5pDTTSUhplITUbVNTqUU4UtOFLTWpoHNSA4p+c0mMGnYoFIRQaSgmmnmkpKaRTTRTTSUhHFRsKmFLTh0paXvTh0opHGaQdcUoXJpwUingnNOIyaUDApppKaaSlpppKQmmUGkNMNJ2pjVN1pcU4UtOAp3QUAUpHFM25NOAp/IFNBJ5FPAPWjJpD1opOKSkpCKSmmkpDSGmGm8001MKdilFOpR1pwpRQTR2pcU/qKjIwaeOlOFNNJSYpKKaeKSmmmmjvSGmGm001NmlzTgaWnA04UtLQOtKTRmjOacKXFMNITRRSUhppppNIaaTSGmE03rTTUwp1KKdSinilFLR1paWkIpy07NMNNNJmjNJn1oPtTaYaSkNNNRmjtTDU4pacKdSinilFKaQdadSmkpRSk0w0nWg0lJmkzSU0mmk0hppptIaYanpe1OFLThThTsU7tSYp1KaSgUU3NJig03NFJSGmGkxQRTSKZik7U01KKdSg0tOFPFKKdml70U7NIaOooxxTD1oopuKKbRTTTaSkNRmkzSHmpacKXigU8Yp9KKXNKOtOyKKKBS0w0lBpKSkNJmmmm0hppphptBqUUpoFOFOFOFOFOoFLTs0dqKKaaKQ000lIaSmmkNNNNNMpppalpaUU6lFKKcKdSilpRRmlpDSGm0ZpKSkppNNJpKQ0w0wmkoqWnA06ilFOFOpwpRRS0tL2pKaaSkNJSUhpD0phpKQ01jTKSjIqWnUoNLzSilFOFOpRS0tFLQaaaSkNIaQUhNIaYaQ0hphphPFJnmg1MBThSilpQKUU4U6lBpaUUtFFNNIaQ000lJ3pDTCaQmmk000002ipxThSinClpRSinUd6cKcKKKKaaaaQ02ikNIaYaaetJTTTDRSGrApfpSgUtOpRTqWinUopaWkpDTKSmmiimmmGmmm0hpppKDU4p1KKWlFOFOooFPpRRS9qKYaSkptJRSGozTaQ0hphpBQa//2Q==;fontColor=#333333;" parent="1" vertex="1">
          <mxGeometry x="453" y="362" width="70" height="70" as="geometry" />
        </mxCell>
        <mxCell id="iexFrpo45ZPIpEkn8Zlm-17" value="" style="shape=image;verticalLabelPosition=bottom;labelBackgroundColor=default;verticalAlign=top;aspect=fixed;imageAspect=0;image=data:image/jpeg,/9j/4AAQSkZJRgABAQAAAQABAAD/2wBDAAgGBgcGBQgHBwcJCQgKDBQNDAsLDBkSEw8UHRofHh0aHBwgJC4nICIsIxwcKDcpLDAxNDQ0Hyc5PTgyPC4zNDL/wAALCADgAOABAREA/8QAHwAAAQUBAQEBAQEAAAAAAAAAAAECAwQFBgcICQoL/8QAtRAAAgEDAwIEAwUFBAQAAAF9AQIDAAQRBRIhMUEGE1FhByJxFDKBkaEII0KxwRVS0fAkM2JyggkKFhcYGRolJicoKSo0NTY3ODk6Q0RFRkdISUpTVFVWV1hZWmNkZWZnaGlqc3R1dnd4eXqDhIWGh4iJipKTlJWWl5iZmqKjpKWmp6ipqrKztLW2t7i5usLDxMXGx8jJytLT1NXW19jZ2uHi4+Tl5ufo6erx8vP09fb3+Pn6/9oACAEBAAA/APNE5FPA5qdBxUgPNPAzTwMU4Uop/Sl60GgU/PFNNJR0pDzRSU0mmE00nNNJphNJTSaAeKUmqcdTripxjFKBzUg4p4pwxR0NOyKXNBoBAp3Wim9KM5ozSUhphpDTKQ9KYaSmNQo4pSKqRmrKLUuOKcpp45p/SlFOoA5zRzmnc0mKXoKOtBpo60Hk0cimk0maQ00009KaabTTQDS5qnEOauInvUhT3pyrTwtO28U4JT9vFAU0u2lC0bCaXy+KTyzQUpuzmjbQRTCtNxSEU0im00im4pjcikUU+qUfBFX4ucVJSr1qZaXHOKeBinUDijb3pwHrThxS0EVGaQjimEc0uKaelMI5ppFMNNzSGkNMYU0dadVJME1dhPSpic0DNSrmnjrzTxT8UoFOwKDSjFO4xSHpUeOaDjFNIFIeKQrxTMCmkCmMKYRTTgUUxhTB1p1UUOD0q3EasA0o61IKeKkFSCnCjvRS4p3akPSozRTSaUc0Go2plMNMNNIpKY3FNHWnYqmvWrMfWrCinAYNSAZp4GBTgKk6UBqcOaUCnKKdtpGWoyKNvFIVoxSEVGRTWHFRHrTSKaabTGpo606qSjkYq3GOlWF6VIozT1BBqTGacB60MKRcZqQEClz605eKeDzQx9KjPWnDkc0mOaawppIphIzTDURpppv1pKhfNNXNSdqooDmrkdWADinpxUgqRBxTwM0Mppg+9UoXvTmAxTRmpV6c0u3NRkc04UhBzTTUbDimY5pGGKiam4ppHNIRio2GaYBin9qop1q1H1qyKetSrUi08UN0pAO9PzThzQF5qTGBSqOtMZeaTHNGMU01GwppHFMNMIpCtJtppFRMme9N24p+OKoKOasoPSpxnFSKeamUVIMYp1Ky5po4NOxzmnAU9fvDNSEZNOUU1hmmFcUnXikK4ppSoiMU0imkYpOOtMYUw8Uwmm5yaeKzl5qxGTmrHanqalUmpVPFPUE0/tzTSOaQdcVKBgUgOelSLkDJp+TSGmk5FIOtKTTfvUx1wajYAUxhmmYppppxUbCmCn9qz0HNW41qfGFpQKeoqVRUqnFLml7UBec1J1pv8VSjkUq+9DU3tTTRikHNNao2FMbim9qa1MaomNIKcOlZ6HmrkXY1NninA04HmpVp4604DNLinA8U4c0D6U8DNOAoamGkzRmkzTTTTUTUw009KY1Qu2Dimg5NOqhFyavxjin45pwpy8VKDUqGncCjNKKeOKWnA4FO3UhphNJmkzRnmkJ9KYajbNMOTTCccUxuagkXPSkRTjmpOgqjEOavqRs4pRzTqctSr0qVRTiKQdad0p+aMGnjpSjFI1MPNN70U05FIDQTUbc0w1G1MNMNIDS5qlEatqeKeDTxzT1qVakFPxQF5padQOaeBxS9KaxzTcc0EUwnFNLZpuaQmmE0w000w1GaaOlOzxVGIc1cU08YpwNSLxUqmnipAad2op2aUcClB7U6mNSZoqNuajxSUHpTDTDTTyaa1MI4qMcU/rVGHrVwClp6+1SrUimpBzTs4pwOaXIpwpwop3ammmmjJxTTTcDNNPB4ph96YaYaaTg00mmE0wdafzVGHrVwGlFPXrUqmng1Ipp+RSg0oIp2acDSjrTs00kUw9KQUN2ppph601qjPFMJppppNMNN707OBVOM5qyOlKDzT1qQGpV5FSAUtOAo70o4p4p4pcUwmkNJmkNMJpp6Uw0wmmngU0mmE0wmmZ5p2M1Vi61aHTijHNSLUq1KtPBp1KDS0CpFzTwOKM8VGc0lJ0pDTe1NJqNqaaaaYajNNJ4poPNOqrFVkHijOTUi1MpxUgNPFOpQaXNKKkXjrTs5pCeKYTzRSE0003mmGmmmMaaaYajJphNNB5p9VYzg1ZFOpy1MpqQGnA080oNOFOFOFOBpDTM0Gmk0hptNNNNMbrTCaYajNRsaQU8Gq0XWrQHFHSnLUydKlHSlAp9L3p4pRTxS9KSmUdqSmmm0h6Uw01hUZFMNMYVEaRafVeMc8VaXOKU05amTFSjGKd0paXinClFPFHWl6CmGmk0UhphpCaaTTWphNRkUxqiNApc1DGOatL0pcUqjmpkFTLTsZopwpc0op1OAophppFFNNNpD0phppphppqNqiNIKdX//2Q==;fontColor=#333333;" parent="1" vertex="1">
          <mxGeometry x="453" y="286" width="70" height="70" as="geometry" />
        </mxCell>
        <mxCell id="iexFrpo45ZPIpEkn8Zlm-18" value="VAE" style="text;html=1;strokeColor=none;fillColor=none;align=center;verticalAlign=middle;whiteSpace=wrap;rounded=0;fontColor=#333333;" parent="1" vertex="1">
          <mxGeometry x="451.5" y="175" width="75" height="30" as="geometry" />
        </mxCell>
        <mxCell id="iexFrpo45ZPIpEkn8Zlm-19" value="" style="shape=image;verticalLabelPosition=bottom;labelBackgroundColor=default;verticalAlign=top;aspect=fixed;imageAspect=0;image=data:image/jpeg,/9j/4AAQSkZJRgABAQAAAQABAAD/2wBDAAgGBgcGBQgHBwcJCQgKDBQNDAsLDBkSEw8UHRofHh0aHBwgJC4nICIsIxwcKDcpLDAxNDQ0Hyc5PTgyPC4zNDL/2wBDAQgJCQwLDBgNDRgyIRwhMjIyMjIyMjIyMjIyMjIyMjIyMjIyMjIyMjIyMjIyMjIyMjIyMjIyMjIyMjIyMjIyMjL/wAARCADgAOADASIAAhEBAxEB/8QAHwAAAQUBAQEBAQEAAAAAAAAAAAECAwQFBgcICQoL/8QAtRAAAgEDAwIEAwUFBAQAAAF9AQIDAAQRBRIhMUEGE1FhByJxFDKBkaEII0KxwRVS0fAkM2JyggkKFhcYGRolJicoKSo0NTY3ODk6Q0RFRkdISUpTVFVWV1hZWmNkZWZnaGlqc3R1dnd4eXqDhIWGh4iJipKTlJWWl5iZmqKjpKWmp6ipqrKztLW2t7i5usLDxMXGx8jJytLT1NXW19jZ2uHi4+Tl5ufo6erx8vP09fb3+Pn6/8QAHwEAAwEBAQEBAQEBAQAAAAAAAAECAwQFBgcICQoL/8QAtREAAgECBAQDBAcFBAQAAQJ3AAECAxEEBSExBhJBUQdhcRMiMoEIFEKRobHBCSMzUvAVYnLRChYkNOEl8RcYGRomJygpKjU2Nzg5OkNERUZHSElKU1RVVldYWVpjZGVmZ2hpanN0dXZ3eHl6goOEhYaHiImKkpOUlZaXmJmaoqOkpaanqKmqsrO0tba3uLm6wsPExcbHyMnK0tPU1dbX2Nna4uPk5ebn6Onq8vP09fb3+Pn6/9oADAMBAAIRAxEAPwDEsNNSzUhWzmtKKPLVDGCTx0q4m1FwKvmZdSpKpNylq2CjY/FWl6VEBkZFPG4EUXuQ7DwMmrMQ2ioVGTkVKD2obBS6AF+Yn1p3IIwKUe9SLtxU31Fe4wqG60vlDb1oZSTkdKX7oqh6WBSUND4kbJpGJGKaTxRfqC0BlGODTgxxjFMyAvFOVhii9xNAVCqeetNSMetSAAj5qFwGoUik7CbcnB6UbNvHrT9wJxTd2T9KLi5g2bRTFGXyaUlifalAG6hAIflORTSdykGnAHJz0ppUE0X0BJBGvljNJKPNGDUny4xTWOBxS5hPUY2AuKrMRnb61NLwKqbvmyaFZBvoI6kHHak3HGMVLu3jimvkCoaUtGJxT0KUeEPNWMbuRUaR5PNWFG3jFX5jtYcoOKlA45pEGak2Y/GlqD1EQ5bjpU2B1qIKUWnISeDSe4aWHs3FAY5pvOaduGOBVWBIlD0j89KYMkUu0+tAxC+eKYM9CalKhRUW05zR6CvcGYKMUJk5NAjy2c04elA7iqSetOUgHmkC46GkIy1JoXmP75FIinJzTk64NObB6GmPcRR8pHemlcD3pVb2pS2TRYHfYB05FLhQOlO3gKOKaaQPQYRzmmlh0xzTxyKjfg0Ba5C53ZqAoCelTMcdqjbIGaLBYFAU4pjNzSqx6kU7HOaGrMFa5XXk1MmM4NRrjPFSqAX96q1ipPWxPGgBzU20GkQcYNIyuTx0pWF6CkAmk6NRggUMp2ZoRKVxVHXNIExTkyRzTzjFJrUY1RxTzjFNztWgEMKLMQxjuIpeCNtKQO1NIO7Io3BDlXbwKaxweafzjI60wqzUDW45eBxRwTzQB6UFc9KpA7i7T/DSBWJp6hlHFKHA69aQ/QCh9KAgAz3p6tkc0vGOKLkohB5waecdqcqhiajZlU0PUNxMYNNbFDsW+YdKYcsOOtNLuWk+o1tvrUTAbsVMIupNMKdxSC6G7ABio5GCjipSuR71DcJ8o9aBdSKH5x0xVlEIqGI85xVsNkZxTJt1JEGAKlbAAqNVyAamdBtHNJg2RFgDS/eHtUbKc5qdE3R0x2GFeOOKVIz3pxjwRUhwAAKQyExc9eKbtINTEY5pBjqaBDQvBNMUZp5JqPB3U7W3DRiNlTikDYqU8LjFR45pJXBpWJUYYxijIDUY6UoTc1AuojHjimYyRUxUDgU1lxjFMY4rgjmgqSMCkXOeakX73tSQDF+XrUEmCamkPJxVZmbOMVS7saAcnHandKQA5p+3AqRtu4xzgVDnHeppMnoKg24amSPz8tRnnrUoAJphwDU7h0IYyo61aiIbjtVREzVqIYxVCRaVc8CnH0oRgBSqN2TQjRaITYO9SxhQKjwTSFtvFKxNySQjHFQksDTgc9aCRinawbDSxI5pDkimkk89qRmOMClcS0HMxOMUgJJ4pVUkcUqArQGgENilVAOTT8E0NwKd+wXA7aTIHSlQcEHrShcDmlYLCHIGaFAJpxYAYNKMD8aAdxjnFJv+XFOkxUew4zTDzFbpxUbKepp6g0pHrSG2RilIoIxTNxzQkK+o4DGaikXjipRzSSUB6ldODimMQWOamC96bIqgZxST1DqVEznrVuMcg5qnGWY8irStt4qity0CTU4fjGKprMQeKl3k4osK5MDxSHHWm87c0gPHPWglsc3SmFtg9aGlwMVA7ZNIBzSbxtAxUkQHQ1WDYbJ6VLFIpcjND1As5CikVsnpTCwHelU9qLAl1JlXJ60AYPrSB8LgVH5jZ6U7XGtCYkZ4oLDFRjBFICAcZosA4HJNJzzzQcDmkAJpajE384NP6DOaiaPJ96dtITHehi1FJA70xs5zmlMfGe9MBwCDQxyHFdy5zQAB1pu4DgGkJHUU9hIkHJ4ocZ7Ui/KPrSl+1SJoZtwMU0nsRUinnFRt9400g6mUjOp+Y1L5nzVWV/Wn9T1qtRovxun41ODjmqURGMd6m8zHBpA0WfO7UhPHvUO4DmkM2eAKTTFYkyDnNV5Cd3FOYnHFRnr1pplJ6DsE8U6NQrc1EWp6ZPekySwDk81MoyMiq/3amj9c8U76FX0HZwadn1qJ8lsjpTui8mmxPsyQMu01GCN3vTQ3BpM81Irkp56daeGKioPM5xTsk07X3KY/fzTlJJzTFXvT+3pSC3YRnAqBgTyelPc5pr9KLoLdxmBQMk4oUHGKUcGmJdxWLcAUm1sZ7U7rTC2PlzS3GSxcnNOdB2pE+7gUMSO9DXYRzhclhxUytnmocfMKf90UXG2WUfFSK2488VXXJAI61KvPWmLUsg/JSJSKQoxShxupAnqPbDCognB5prvg8U7cSvFCG9CMnBp6uabg96kCcU2xaMXczkDFWUQgYqOMc81OCcUaktjtvy03AI61KuSmKi4LEUth6DN3zUkjHPAp+wCk4HIqmx3Qi9MnrS7+aYWwcnpRgcGldCRMHwc0rSjGaiwKaQDxRpcol35HSmmgAAc08AbTmloEiPdgYpeopjKRyOlPXOKGHQC+0VWLfPViRRjNVWIL0J6iuy/Aw20koU96iiBxxSTHApLRgu5gxsScmpDlmqONt3bFPAIf2pjvrqSRZVuelWwB1qKOPjNSqecUvMNwZsnigAjmlYc5pCSR0p3E9NhretOVty8UEEgcUqjBxSBu4DIHPWnpuJp20A81ImAeBTYMfHUvOOKRF3c1IWwelIQ0sQmO9NxjnvUoGTuNBYYxiquCZGctTSPm9qQ5zSEnNTe7sPYbIhPSjB4FKAaRc55phcUgqcUqKS9BbmpEIxQvMbYuAeKV12kChRkmnH5jn0pCaGYGcdqGXjinkHG6lAyORQCKj56VCsR3Zq4wAPrTkAK80xvYIgAuajnCkdKl9u1RSqTSatuJWWrOcjXmrAOeKrQbieathecU7Deu5PGflAPSpMCmKpIxThx1oQbDs/lSZxzSHnpTlUkYpCY5fm60bcHNKMClHJo2BABu69KlRcHim9Dip1AxxTDqOTilP3gaAacuMZp2BaA7YWotpPNSOMikHSk/Im1iNs4pqEkYIqSQgDimR8cmkVYXdtNNHJOaeyg803AzSW4WFEYNOCY4FCAk+1SFCOlVYGhoJFSKDgmowDnmpDuUUBYMnb70wu3TFLzim59aLDW4gGTxQylTSg7TkVFLKWPBpgSh+MGmO2OlJHyMHrTnXjiiUriZz1uABUxPz5FVoTgVPu9aWtw1RZjanE1DG/tUucdqGMevJp44amA8Uo60C6kox6U8AEiohxT1yRSDQm2jrUgIA6VFGM1YAx1p2AQDJ6VIExQuKViR0FC7Eu7GlO2aeFG3GKBkjmpB8ooKsV2QEdKj2gCrLHNRNGCvWm0JkRbIxio+c9DU5UKvWgH2pbFDEJ6VJyO9MLbT0p6tvFAkL2zTHY5FK5zxR0HSheY/Ma7/AC8URn1FKF3dacMKcULzC/RCuAB061EsW45qfIPFAG04pi9RhgOMg1ESV4PNWgcHFQuApJPekDukcugCsMdKmZlNRou4cUu3FVcRPGdozUvmAkVWUnHWpQBxUlFgMMcU4YJpqAYp4XBoB2HZJ4FSIW6U0LnpUqYIz6UMTJkUqc1NgEU2Nht5qdQoGTTBLuMWP1qTbQDyaUAk0r3GJyDzSMTiiRWpedoppD9Rnbmkxx7VOEVhUbDBxQLdkDLnpTgNtOC4anMhIoE9iNlVhzTAAvSn4OcUmPmxQCQ1iuOOtIrE8UMNppVIA96S1B+Q4grzTBy1OLZG2gLVeQIcBgg9qlOH5WmFSQMU9VKofWp0AZyGo2I5+emnOfemTMQoxTtfYfkcvG+aVm+brSpCFHNIU+fIpNp7CRIgI5qQtyKReRg08x5xQgRPF93OanVt1VUyowKlQkUDtbUnA96liBFRDGOOtTxEgc0XGScjpU6n5BUa4x70vJ4p3EiVeD61MDgVAnFKZAGxmkD3JWcMmCKj39hQRu6UJHg5p6DFUk8dKUxHPWnHGRTt2TigSIcbfeo2ck8VYIxUOBk4pCsRZOaQk7qe3XNIBuOT0oQ0Kygr1qNBzinugxwajBIoRN2ibYCetPWLPeoAx/GpVYke9GpTJAu3vmhm4pMGkJwvvSsJbjduPmqvcTbR0zVjccYPSqc21jjNUtNWFk2YRfdzSEkninNEY+CaYRlsClp0GOVucVZUkiq6xnPWpiduKAJFzuxUwFQA7hkU6JizYzS8w16lpSoxUpk5FQkfLURfFG+wbl5X79ql35HFUYZOMVaT1p7CdkTeYcYpoB3gtUTPzSebiQZoV3sVoi+h9KUybTVUzbRmpAfMUGla4raXJ1IZSaRTjk0RMCpGKaeWwKaHvsP8xc4NMbHVaY42Dmm7s07CtoOIBo24HHSmM2VOKYN23rUkrcexwKjOS2aSU4AqMuQRTsytiyCp+tKGwarh8HNNEmXNJAXvNx1pvmKTiqpcimByzZFMXWxPNIQSAarKNzHdTpchd2aiUGXgHGKTa5WNRP/Z;fontColor=#333333;" parent="1" vertex="1">
          <mxGeometry x="532" y="362" width="70" height="70" as="geometry" />
        </mxCell>
        <mxCell id="iexFrpo45ZPIpEkn8Zlm-20" value="" style="shape=image;verticalLabelPosition=bottom;labelBackgroundColor=default;verticalAlign=top;aspect=fixed;imageAspect=0;image=data:image/jpeg,/9j/4AAQSkZJRgABAQAAAQABAAD/2wBDAAgGBgcGBQgHBwcJCQgKDBQNDAsLDBkSEw8UHRofHh0aHBwgJC4nICIsIxwcKDcpLDAxNDQ0Hyc5PTgyPC4zNDL/2wBDAQgJCQwLDBgNDRgyIRwhMjIyMjIyMjIyMjIyMjIyMjIyMjIyMjIyMjIyMjIyMjIyMjIyMjIyMjIyMjIyMjIyMjL/wAARCADgAOADASIAAhEBAxEB/8QAHwAAAQUBAQEBAQEAAAAAAAAAAAECAwQFBgcICQoL/8QAtRAAAgEDAwIEAwUFBAQAAAF9AQIDAAQRBRIhMUEGE1FhByJxFDKBkaEII0KxwRVS0fAkM2JyggkKFhcYGRolJicoKSo0NTY3ODk6Q0RFRkdISUpTVFVWV1hZWmNkZWZnaGlqc3R1dnd4eXqDhIWGh4iJipKTlJWWl5iZmqKjpKWmp6ipqrKztLW2t7i5usLDxMXGx8jJytLT1NXW19jZ2uHi4+Tl5ufo6erx8vP09fb3+Pn6/8QAHwEAAwEBAQEBAQEBAQAAAAAAAAECAwQFBgcICQoL/8QAtREAAgECBAQDBAcFBAQAAQJ3AAECAxEEBSExBhJBUQdhcRMiMoEIFEKRobHBCSMzUvAVYnLRChYkNOEl8RcYGRomJygpKjU2Nzg5OkNERUZHSElKU1RVVldYWVpjZGVmZ2hpanN0dXZ3eHl6goOEhYaHiImKkpOUlZaXmJmaoqOkpaanqKmqsrO0tba3uLm6wsPExcbHyMnK0tPU1dbX2Nna4uPk5ebn6Onq8vP09fb3+Pn6/9oADAMBAAIRAxEAPwCtFbeUpAOc1PEpxipOtAYBqvmb1YX5nzPcljXYcilwWNNDAGpCcYov1G7bi7eaeCMYpi8tUm0bqQrXEoSEKc5p+AKeMGnfoFhDGG5zzTgNoxShSDSmlfSwPUb5Yfk0oUKMUpbHSmg54ouA8ABc5pwbIwaZjFHBo3J6jVURtkGpd247qYydKUYUVV+pd7MXbyTRHGATz1pRg04/L0o3AQRbWyKkYkrihCSM1IACOakErEMcYQk+tO4HTmpHT5RTVQYp300Lvrci2nduqOSPcc1ZYHZxUZIK470rsm92VzEFHBqEDbxU7vt4qBzuHFNPW5LSbGyYx1qO2A3sTTZGGMd6Z5uwUSWlhSVhiHIxQRzTV4HWnKST0pbgSIvrUtIvSnAZoC45QAuaerA1HuwtAf5aFcepZYAqMU0HFRByRSjPrQOxMrZNK4OMimocHpT87jStYCMZPWnDrxTwuKCOeKAE5ByacQMZFRseaUE4pkil6YSW4FLjANRk85oBEynAx3qTcCOarrJg9KeW6UDJlf5eKkU8c1VVu1Tq2BQ9AuTFsiot+OKQv7009RzRYCXeAmDVd3GeKkY8VGee1A0RMM9ahY7RUznmq8zYHSl0HaxFwzU2RVwOKFbvSuOM0ak7MroMHmpx61DGM8mplcZx2qh3uSAmpRjFRBgTipF6VIdBGHHFNHAwad3prAk+1MPIcCc8VJnOKYgAHNPXBOadwJFznJqUAdRURcdO1PXGKNwFLc8U7npimKBmpM4FAPYaYhQRtFO34XJppIYUakMjOaaQMU8gjr0pcKwwOtJosiOAOKUZqQxADmmYKn2pIQmWDcDip0z1qNeakLYGBVXDQYwOcmk3dqVie9NxzxSQx4OKN2Timkkcmo9+W4oEh5ABqtcZ6VPuFROwajzGV1i4zTWJHFSsdo4phwwpXHuyFWBHFKvXNVoW2cdamMmDVC8iwgy1SHNQRt3qbOaAsOByKOgphOOlIrHNJoZOCCKVTioN3PFPUnpQSiwMYzTQ3zUzcU4pQMnNNBZFlGAFPBBFQgZ/Cng9qWwIkIBXFJgCmg80Bjk5oGxSvHNNwFGRSkbjxQVxQKwzeSadx3ozjtTNxY4PFDXYVh4YUpwRUO3DdaeQOuaQhhznrTt2MU0AkmkJK9qLlMSR9x4poORjvSg56ikPWmDfYXpUZFI5NMDnNA+gre9RMdtSbsnFMekFzOVxuGKmPzGq4X5hVlVyaCdSWLPAq3xtqug2jJp4fPFML3DocUpNO470FcjNBdxmQtSowIyaYFBpM44FMSWpKWB6U5SBUaDA5p5GelTsFrE249qdGDnnpUSKynk1KG2mgV9CUYD57UpAPSo93NKQxxg0wRINooJ+b2pCuME03O5uKa13FpcD14phUk04+nejBFKwdRjKw6UDgZNPBwOaThqB7DQfWjrSSdOKZkqOaWgCsuD7VHxmkaQkcUgORRtuMQkHNREkH2qUqRTGWhsdxu4A5pjuAM00/exSsAAM80yDOjJ71OH5qDPzDFTL97NMp72LcRyMGpdo61Aq5FSBuMUhD2bihWJFNUjGDTxgDAoKuOPyikJoY5FNHJpCVyRSSMYpwz0puSOQKfHnOTTQupJyRQpyKASeMVIkYAzQgBRxipAMd6UIpXOeacVBApiYiqWGKTy9p61MFAXik2ZHPWjdisQdGprk5FSsnNHl5oKSGAfL603GOanWIYzTCvNK92J2K5bJPFML+1POdxpCCT0psCMnJ6U0nB6VKVPpTCKQ9yN2KkVHK421I/IqrIlLS4WED5GP1qUYwM1EimnAHPNN6hbUzk5NWlx3qJCG5AxUo5NF7juTq2F4oUc5NKgwOaMc8UBcGwW4py7sUq4xzRgnpQJsUN1FPQetN4UdKUNRuMeeOKlTjrTYyGXJFObpxSCxMm2pFxnFVxk4xVhI/l680C2HYwcU8IQM0ijHXmhiTjBqlsG+4q5zzT35GRTdpGOaXPy0kO2uggBI96dg4NCMCcYoc4NMHuMyQpFRluPensKZjJxQLzGlRjNMBBNPZwBjFRhSTkcUvISHMRjnrUQALEVLtyaQp6UIrYrsgGc1A0ZINWpGH5VA0gI4pWHe6GImOKVoWb7tKjZNSg+9NkGKoCnrUof0FVky1WFXiiw+hajORzUgAqFD2qUCgBzYpFwKQ5xjtQiikgJDgimhcGn7QBSgimhrYep4xijJBoBFBbPApiXkTRuMdKlTnmqyVKJBuxQGhYzSE0ikUo2k80gHA8YoH3sUvy9qQkA5HWmMkC4pDkmkDnvTiQBmgGMemYI5FKxyM03eQOOlFmJiBOc0pUgdKVGOSW6Uu8EGp3AiGQeRTGc54FPJZmphBDEmmG5XdDyaqtxV9iCKqTLjPrQmFhY8bPekkZlHApkJ5qRmbtQh21MqIVaVcc1GuCeBUoOD7UJ3DclVRjOKkI4qNWqUDIpBYQA45pyp3pVTjOaATQDFJ4phOelPzntR0PSgLaaDolJXNSHaB05pinB9qfnJ6U7iG7vSpEUE1EEJJqWNSByafQGyUNg4pcZ6U0DmpMYFF0C0EwR3pw9aRlPrQpwcYpXvsAc5zTslsCn5CjOKYGGadxXFIGMCmnAGMU9mwaYX56Ua2DoB5AxSErjAFIW44FR7+elFh3JFGDmhyCKaxyOtRscDrSBahgHOKrSLu4qwTTcZ7UWKIIosHmnSR+lTbcjApkg2gULRk3sYcDMTzVwAEVTQEMMdKsgkH2o6laE0YweamAJqOMqetTblA4oYhwGBQo5pivk4qTocUMQc+lGM0NkjilTI60rXDbYco4xUoTAzTUKk1KvJx2pjGqo7U7BzxSomCadjacGmG4gGKdjHNI/TjrTk6c0WJVwJ6U1uOR1pS65xS8Y5pWGJ1UUjJnBNPxgZpjOSDRsK1wyD9aY54xTVbByelPJV+lBbREspU0FlI604xetRmMYpX1I1uPVQy9eabjnBpqkjpTtrHnvVDEPFJupwXOajPB5pDJ0Ix71Gy7zigEY4oVwp+agTMSMg1IW5xUCqdwq0q0dRtJkkWKsbQRmoUSnnI4oEOAGc04H5qaFyaeoCtRcBwIzTzgDpUXU1JntTGth0bAHpU6EMeKgC8VLEQKBE2cGjaS1NUnPIqYNnqKTHcbtxwRmn4GKA3PSnqu6i7JK7LznFFTkBQQOahYZPPFMZGz44pCpIzSlOeKd2weKT7hsQqme9O27TTgNppGkx2o31QhsjYWoDmpz8/WlKAYpXH1IV+Uc0/wAwDtTZDg4poGaYMc8gA4FV3fcM1McHINR7Bim0MahJFTbcqM0kcdSNjGCcUhaPQwY2bcN1WskGq6jnNTK2TQD1LCOcU4ZJyaiTIOalDUDWpIhyaVgM01aVjxS6hcUAnpT+QKarYFOVqYmKCcYqWNcHNR7wBmkDnOe1FwLhBwMU5ckc1EjnbT43A4NAEqr69KdHuBPpTQ/NPyeopvsPQQAjJpj/ADcilZiRTAcjFKwAAQMikK5605iVFNJyKNxbkb0zbmnkYPNKCO1A9xoUAc1FvIPNPd+cVG/qalgMcsX9qfnC0mCy5FORc8GmG5Cc5pTx0qcoKgmYLRclvsOMmF96jkcMKYpLUrjYASKqyQJdzJUkcVOpANQnDEEGnEA80hssqSTT14PWoEfHFWFwwOTRsHoPU+9IzYpijB60r0dQJBLx0pN5zUYyBThnFFwtcmVtxqTI6VXUkGn570AiyrZ4qaP0qmhyasxk5FO+g7lrG1c09GGDUW7jbQFNILDw3UYpChPSnKBTyeMUMTK5yOOtOC5WkLMGOBTd5waOgDdpPOaaAQaA7Hgjil3dqd7MLjJEz3pNvynJp5xURyelSD1GZ28Uoc56UojyOetOC7RTGh4TjrUDp61NupjfNxSuBGoA7UjEHqKcF7dqZMgA4p3DyMdVGOKVc7sVBbTZU5q2pG3diiacG0xtWEA5qUNtFR+9LSTTQrEqk9aeMGqxJ9aej9qBaFjtRuwKiD5NSjBFOzBDkPy81KAGFQgcYqUHAosFiRQB0qaM4PNV1lA6ipBJk5FFgaLY65qUOoFVlPyZqQciiw7ku9eop5cbc1XJwcUpbnbQkOyFyM5pnHNTbcLmoXIFK99BPUaOaaeuKdkCmGRd2MU1q7AkmO4owARinbcrkVGxpDtcecZzTCeaaZOKTdxmixKHcGkAGM0BhSgfLSYKz1G7hmq87/3alYbTmq1xyOOKqC5nyouEeZ2R/9k=;fontColor=#333333;" parent="1" vertex="1">
          <mxGeometry x="532" y="286" width="70" height="70" as="geometry" />
        </mxCell>
        <mxCell id="iexFrpo45ZPIpEkn8Zlm-21" value="" style="shape=image;verticalLabelPosition=bottom;labelBackgroundColor=default;verticalAlign=top;aspect=fixed;imageAspect=0;image=data:image/jpeg,/9j/4AAQSkZJRgABAQAAAQABAAD/2wBDAAgGBgcGBQgHBwcJCQgKDBQNDAsLDBkSEw8UHRofHh0aHBwgJC4nICIsIxwcKDcpLDAxNDQ0Hyc5PTgyPC4zNDL/2wBDAQgJCQwLDBgNDRgyIRwhMjIyMjIyMjIyMjIyMjIyMjIyMjIyMjIyMjIyMjIyMjIyMjIyMjIyMjIyMjIyMjIyMjL/wAARCADgAOADASIAAhEBAxEB/8QAHwAAAQUBAQEBAQEAAAAAAAAAAAECAwQFBgcICQoL/8QAtRAAAgEDAwIEAwUFBAQAAAF9AQIDAAQRBRIhMUEGE1FhByJxFDKBkaEII0KxwRVS0fAkM2JyggkKFhcYGRolJicoKSo0NTY3ODk6Q0RFRkdISUpTVFVWV1hZWmNkZWZnaGlqc3R1dnd4eXqDhIWGh4iJipKTlJWWl5iZmqKjpKWmp6ipqrKztLW2t7i5usLDxMXGx8jJytLT1NXW19jZ2uHi4+Tl5ufo6erx8vP09fb3+Pn6/8QAHwEAAwEBAQEBAQEBAQAAAAAAAAECAwQFBgcICQoL/8QAtREAAgECBAQDBAcFBAQAAQJ3AAECAxEEBSExBhJBUQdhcRMiMoEIFEKRobHBCSMzUvAVYnLRChYkNOEl8RcYGRomJygpKjU2Nzg5OkNERUZHSElKU1RVVldYWVpjZGVmZ2hpanN0dXZ3eHl6goOEhYaHiImKkpOUlZaXmJmaoqOkpaanqKmqsrO0tba3uLm6wsPExcbHyMnK0tPU1dbX2Nna4uPk5ebn6Onq8vP09fb3+Pn6/9oADAMBAAIRAxEAPwDkLS1WEHBzWjDwwaoFTHSpFBz7Vd9boJXb1LXmEt0qbA4OaiQDaKGbkUJDTui4rAEU/jOTVdOeal2llo66C0LEbZ6VZUkjpVSEYq0jZ6UmJrUljA3ZPWnqv7wmmqATk9anVRTTC3UTZk0GMKc1Lg44owSM0m9bksgkBePFNWMCpsMTgUvlmquOyISocgnjFDR5O4VL5YxmlUcYFK9mXdNDA2VCml2jIwacUGead5YXmq5rbDUhAxRhgcVIGBOacEBWgRrn3qbibT0FUbjzxinSnfwKXaMU1CADR5oSSIGh3DFRfZ+cVaYnORUayfOQad3bUvnKsibRioojsBX1q3Ku/kVWC4f3oTE2uohgDtkmpIXNuTgZqQdeetRuRmknd2ZLbepxRZkOCamjJYiq6qWYEmrsSbTupN6j9SZPepWVeOKI13HNSY2kcZoRLQR429KsR/dpiqOtTR9cY4p3GtB4wBxT4xzxQEz3qaNcClcQ9RzirCDaMmolGfapgcjFAEgNBOOBTUGc0uO9FgAfKM04ZbmjIYYpegpBvsRkjpShOMim4Oc04Niiw2hvU4qQDHWmE4Oacx460CsSBhjFKo5zVZWIap1O407WCzJ8gDpTHUZGBSnoKe65XNFuxSXUiZeOKrOvPvVhlyvWmqPUZp3EV+gwaYRjjvVpkz2qLaCaBX7jFQ9+tQyrg1cX5eMZqvKMsTii2o7nEJgECryBfL61QClWFXIycYpPuN9i7FyoFSkcVBGdoqYODQCBQcVNGSBzUSt81SvwmRQDfQk8zBGKtIcYqgD0zVpGyQDQxPYtrzTgMdKjU4+lTKC3TpQA5CaeOlKq0MMGmLzGBSGzUgGaaMnpS7sUFCsuBUBBPSnyyHgA01X+X3pCu2M3H7ppU3E0uATmpFAFPoAKnFSJ8tCstRyMS2BSVx3LBdcDB5pTKMYz1qsFPal2GhgTHAjxTQwA4o/5Z4PWo1xuoWqBWJWO4c1HsHUUO/SlVgelAmgX0NQyZY8VOBl8GopRt+71p7vQRwypgjJzVpAM1UTOatI3tSG9ycKT0NShwFwRUUZOeasGMNihgn3I0kweRUwff9KBCKUAA7aEx31Ho4JxjpU6MDjioUTmp8Y6Um9QtoThsrUqOelV1UjmrEY45p+QWJkc0oOTmmMwXGKVZPajcVxxfnFBcGmNyc0i89aaFsO4JpHXbzmmhtppJW3jGaGwQhf0NJuYnrUewL3qQcCkN2RIrHNO3ZaofM2nFPVsnpQx6k3mAClMmelRc56U8CgkeD8vJpC49KaR83WkJzxR0Cw5iDSoPlzUagdzTwQOM01YehIqn72aZIc04OFXrUbye1HXQHqcModeoqxEcnmogS/epohg4o3Gy2qgjmpkz+FQIcHBqdDgHNSIkDEjApNmTRGealAy1CHceq/LSpk5pnzdAalQ4pi1JlYbMd6fnC5qMFT0HNTDaVwRRbUOuoi471KqgDNRNgGnk4Q0MQjMScDpRk45qJWOak3DvQP1EPIOaiY4X3qUkUxgM470CuRknHNLvPGKMjpQ3GMU2x6DsBuT1qVDgcVADk4FSZwMd6QPyJ95xTlOBVeN8tg1ZGCKQCHB5HWkUBjzUqR4Xmhk2jIp3ERHANIVB5HSnhc5JppYZwOlJNi9BNoxmo5yQo21KGBOMcU2XCjpVLui4+Zwyexq1EcHrUCRbKsRoeppK26Je5MCSasQtng1EuCMVJGu00PUq3Qsgd6VnIHFCjd1oKAnFJCSsSxjcuc1Io5qOIbc09evNFxky4DU8OAxFV3bA4pgZj060wsW39c0wMTxmoxuI6UqKe9AcpOhANBO41GvJxUg4zSRLHFfl61XcntUpyVOaYvK80CRHgjmpVAYHNRsSTjtQuRQ9RtOw9QFPWhuuaQLnmpAuV96F5lWEC4wc1YBwBzVZc5xUoBanYmxOrnNOZ8jGKZH8p5p+0k5osVFIQdDUI4bpUjEqabgFgaQMmjTPOKbIMds1NGeKJFAGTT2EtDhV5IzVgDH0qJcZ6VOB8tNiQqx85WrEan+KmRrkVJkjiluO5MrA9KCrZzSKMJTwDszmi5SSsOUEU/FRqSOtODbqRL0HCMd6VQFORTRnpmnhDT0GODCngZFCRVJgBaW4roh2kNkVJzimsaRXweaLPoIe7AioSTjAqUjcOKQJg0x2I+3vTlG6nkDNO2hcUr9AGheeKlAH403HNO25HFML6DfKJORUyLyKZuwMU5SaExLyJWUZx3qVMbcHrUacDJ61Io70xJkUq5NQ/xVYPB5pNgIpJ20LegRk7vamXEu37/Spo8LwRzTJwpAyM0XTE3ocdGNxqfgcCoYm9amwM5pq4WtoSJzxUqjb1qOMHOalbtS6gSAZFOXIOMVGjEGpFkBfFFh2FJzxinRjANIcg808Uhgq45qdcYFMCgjHepBEcUmRsOJAHBpoXcck4pBGc81IQRxVpIPQawGOKYADTwoB5pCAOaTFewmfXimlhnINDMGGDUTDaPloLH+Yd3Snl9xFMQADJ60hbaflpKxCJ+2M04HC4qONsrk9ac3K+9PYB3XpUiHJFMj4FORutBSJtp3Z7VMjbT0zTI3GMGpgobpT8mLQRkDc1Ftw2KsBdoNQnJbii1ti9x6plqgvVYINozVqFTuzUczNuOaErO5EjiEIJ4qfYdvWqkb4FTrNtXmjUaRPGSvWpy2cVXR92Dip8jApdRtDqE4fdTd+adGRuzSFsT/AHxTlBzTAcGpd2KVgfkO53YzVhW4warKfmzVhBnmqsJqxLjijHPNC5xzSigFqNwDUUvGMVORxULrnvQP1IyBTeM4xTgue9GcHBFANoYynHFMKmnPJk4xSDJNMTWg6MEDmpUOWxUWMd6cp5oGvMnGQak2YxTEqQHDCjroCHrGasorKM5qAfez2qZZO1IPMmbkVFtwaTzOaY0h64p2Y79iXJXpUEr+tSI+4Z71HcnCg4pJp7CZw8S5HNPMeTTIzViMEnNF2hO9yaIFFGKk4xyaYAwp6ruzntQPzI/MIOKcrEPmmlctU0aZbBpqwyUMalUHFMUc4qZRjihg2PVQRU0bc4qEDHSnrkHIqb30EycyHPSnA5Oe1MUbqcAQPaqsD0HdTjtUbLk1ImN2KR0YcjpSFoQ4xSMAy5FOJGDUeewpO4JERU5zikLNkDFSZO4g0epNPYGxjBs0qg4welKrZ604sAKXoLdWRJGwHFPLYIxUSjjNKMt0potFlX+TB61JuJUAVWXO7mp0yDntQBJnaKASVodSADVd5HDYHSi10KxKsmJKSZt1RK3z5amySqOvSqWmok11OTTg9KsL7VEgBqwi4WpKejJYzgcjNPj5JpqkgcDNOCmhk63EcDORRGTvpTGCetSqgVMDrQirvYWNTuyTVgDio16cip05XpSZNwXpipgvyimoM84qQLzTWwyRFpXBBxSqCKkBDHJpiuRpgdqRgT3qVl4pm0k0uo9CArjqKAgPQYqeRORikwMYFFhXK7RbTnNNYAU+TcTimqhB5otdA7kDqS428CpAmF55qTaBTlGT0oENA+XFJGhVutSMmcYp+zBFCKWgoi3NmplHahRgZxUqgHmgG76EUhwMdaYgUnBHNWJANtRKoKkng00BDLHhiBUEuAMEZq0q75MZqC4iI6c0R7Atzk487hmro6VXTGelTKctQ1qHUmQEHIqfjHNRKaerZPNTuF9RcCpFC9e9Iw9KRQetV0B6EpZSBUsZyKgBXoRVmLGOBRfSwW6olj469KmUgHiolBxUqLSK6Ewww4pwi4yaRBinPJhTT8iPQTaScdqQqy9qEY43VKfu5PegH2KxY5waXaAadsweadx0PWm2UkQ7MtntTJEYDgVM3FI3IqRNdimoJbnrUy5HFOEYBzUgAzmm9Qe5H8w605MMQT2qTYDSlAMAd6TG9CUAMvy0oXA96SNSpAqYAGhMEkyMLnrUUoAPFWQuM1EcFsYo3B6leNSHyKbcbgMjrV0KAMAc1Wf7xBo6Gbfc4yM7qnU/NUMYZu1TY29aGWyZW5xUinGahUA8g07mhCtYlQ56mpN2OMVEg+YGpmCkdaL6g+45ME1ajOeMVWjQCrCjPSgauWegp24BRUQ5WlOcUeo/UmLFsY4qVV4wahRhxmpwy45NMeiG/dPtTjyOTigFW6GhsMMUXuJIiaTLAU5+FyOaQoM0xiQMU1Zbgxpc0m4mm7iG5pRy3NLqMeGxzTl+Zs9qQqucA09QAcUMW47BFLuxSK4BNOyGNFx9B6EnmrCnjpUC4A4qdSMe9G6GK1MwAM1KRUTYzik1oS9hu+qV1J6cVacdu1UbkZHFUgscvBIrA4p7nJwagggZFJ3VIp7mpcWnYc1Z2JkZVFTqVbpUAww4FPQc8UkQrFgbRwaeFGajxgZpokJbFVysC0uBU0TjpVMNjrUscgosykXc44qRRmqm4sc5qWObBxU2uGvUsMoGMUjMKgE+4kU7d600u4WJUY54qXcRUHmBV6VJ/CD60k77C21JcZUnvULBgeae2UwM9aid/mxTK6CMAaAVyKkVN1LJEFXNFxJCfKGBpdwzkVVEm4E1MhymaXS4PTckUDk0KcGqz3GDgVZiIKZpspqyJlcD5u1TI6nkVVI+TNCS7Rimld6BsaAcMKjOC2TVRJ9zYFPkYxsMnNNpoVmPlkUE1WLoSd1RvcB5CuKdaRefIw9KL2WovhTbP//Z;fontColor=#333333;" parent="1" vertex="1">
          <mxGeometry x="532" y="210" width="70" height="70" as="geometry" />
        </mxCell>
        <mxCell id="iexFrpo45ZPIpEkn8Zlm-23" value="Uncon DDPM" style="text;html=1;strokeColor=none;fillColor=none;align=center;verticalAlign=middle;whiteSpace=wrap;rounded=0;fontColor=#333333;" parent="1" vertex="1">
          <mxGeometry x="528.25" y="175" width="77.5" height="30" as="geometry" />
        </mxCell>
        <mxCell id="iexFrpo45ZPIpEkn8Zlm-26" value="&lt;font style=&quot;font-size: 11px;&quot;&gt;Key class feature&lt;/font&gt;" style="text;html=1;strokeColor=none;fillColor=none;align=center;verticalAlign=middle;whiteSpace=wrap;rounded=0;fontColor=#333333;" parent="1" vertex="1">
          <mxGeometry x="275" y="440" width="140" height="30" as="geometry" />
        </mxCell>
        <mxCell id="iexFrpo45ZPIpEkn8Zlm-27" value="&lt;font style=&quot;font-size: 11px;&quot;&gt;Gray image&lt;/font&gt;" style="text;html=1;strokeColor=none;fillColor=none;align=center;verticalAlign=middle;whiteSpace=wrap;rounded=0;fontColor=#333333;" parent="1" vertex="1">
          <mxGeometry x="457" y="440" width="140" height="30" as="geometry" />
        </mxCell>
        <mxCell id="iexFrpo45ZPIpEkn8Zlm-41" value="&lt;span style=&quot;font-size: 11px;&quot;&gt;Class feature: hole&lt;/span&gt;" style="text;html=1;strokeColor=none;fillColor=none;align=center;verticalAlign=middle;whiteSpace=wrap;rounded=0;fontColor=#333333;" parent="1" vertex="1">
          <mxGeometry x="149" y="440" width="104" height="30" as="geometry" />
        </mxCell>
        <mxCell id="iexFrpo45ZPIpEkn8Zlm-73" value="" style="shape=image;verticalLabelPosition=bottom;labelBackgroundColor=default;verticalAlign=top;aspect=fixed;imageAspect=0;image=data:image/jpeg,/9j/4AAQSkZJRgABAQAAAQABAAD/2wBDAAgGBgcGBQgHBwcJCQgKDBQNDAsLDBkSEw8UHRofHh0aHBwgJC4nICIsIxwcKDcpLDAxNDQ0Hyc5PTgyPC4zNDL/wAALCADgAOABAREA/8QAHwAAAQUBAQEBAQEAAAAAAAAAAAECAwQFBgcICQoL/8QAtRAAAgEDAwIEAwUFBAQAAAF9AQIDAAQRBRIhMUEGE1FhByJxFDKBkaEII0KxwRVS0fAkM2JyggkKFhcYGRolJicoKSo0NTY3ODk6Q0RFRkdISUpTVFVWV1hZWmNkZWZnaGlqc3R1dnd4eXqDhIWGh4iJipKTlJWWl5iZmqKjpKWmp6ipqrKztLW2t7i5usLDxMXGx8jJytLT1NXW19jZ2uHi4+Tl5ufo6erx8vP09fb3+Pn6/9oACAEBAAA/APCAKXHtS4FLxThTxTxTxU8XSpafH1qU9KjNKtBplMPWkNAopDSGmmrekf8AIVi+hrtv+WVUG+9Ug+7UbV51S0tKKcBTgKeKeKni6VLT4+tSmozSikNNphpppRRSGkNNNW9I/wCQrF9DXa/8saot9+pB92o3rz3bS7aNtOC08LS4pQKcKsRdKkp8fWpT0qM0o6UGo6aetIaBRSGkppq3pHOqx/Q12v8AyyqifvVL2qJulcDilxS7aULTgKMUUoqxF0qWnR9alNRmlHShqZTT1prUClpDTaQ1b0bnVY/9012pGIaoN96pB92o36VwQp1LSinUhooqxH0qWnR9alPSozSjpQaYaaetNNApTSGm0hq5o3/IVj/3TXan/Vc1QP3qlH3aheuCFOpRThS0GkpRU8dS05OtSGmGlHSkNNpp6000CikNJTTV3Rv+QrH/ALprtP8AljVBvvVKPuionrgxSinUop1IaSlFTxVLTo+tSGmGjtQabTT1ppoHSlpDTaQ1c0Yf8TVP9012uP3NUHHzVKB8lROK4KlFOpc0uaU03vSip4+lSU+PrUhphpR0pDTaaetNNAopDSUhq5o3/IUT/dNdrn91VFz81SA/KKic1wIpwpRThS0GkpRU8dS05PvVKelRmlHSg0ymnrTTSikoNNpDV3Rf+Qon+6a7U/6qqB+/UuPlqF8VwNKKWlzS0tFKKmj6VLT4+tSGmGlHSkNMpDTTQKKQ0lNNXtF/5Ci/7prtP+WVUP4qm/hqF64GilpeaOaWgU4VPFUtPTrUhphpR0pGplIetNNAopDSGmmr+if8hReP4TXZn/VcVR71Kfu1E3SuAopRThRRQKcKniqanJ96pDTDSjpSNTaaetNNApaaaQ001f0P/kKD/dNdl/yzqkfvVKegqF64ClFLS0tKaQU4dKniqWnp96pDTDSjpSGm009aaaBRSGm0hrQ0L/kKD/cNdl/yz/CqJHNSkcVE9efilFLS0tBoFOFTxVLT061IaYaB0oNNpp6000CikNNpDWjoIzqn/ADXYniP8Ko8bqmPSoXrz8UtOFLRQaQU4VYiqWnp1qQ0w0DpQabTT1ppoFFIabSGprC7+w38c55QcOPY13pYPCGUgqVBBFUD96pj92oHrgBS0op1FBpAKcOlTxVNT061ITTD0oXpQabTTTTQKWkNNpDTDXT+Hb/zbJ7SRvni+7nuv/1qvE/NUpPy1C5rgBThSilopaBSirEVTU5OtSGozSr0oNMNNpDQKKQ0lNNNNTWNybO9imz8oOG/3T1rrerA1KelRNzXAinClpaKWgUoqxFU1OTrUhphoHSg1GaSkNAopDSUhphpCMgium0q4M9hEScso2N9RWiTxUTmuEpaBS0tFApwqxHU1OTrUhqNulCHIpTUZpKQ0CikNNNIaaaStbQZMPNCfZx/I/0roG6VE9cJSilp1FFApwqePtU9OTrUhphpEzilNMIptIaBS000hppppoq3pD7NTQf31K/1/pXVN0FQtXCilop1LRQKcKsRVNTk61IaYaF6UGmmmUhpRRTTSU0000VLZHbqNsf9sD8668n5aibpXCilpaWlopRThU8XSpqcnWpDTDQn3RSmmU2mmgUUGm0hph60U+24vIP+ui/zrrfOTH3h+dRNLGf4x+dcSKUU6ilooFOFWIu1TU5OtSGmGhelBptNNNNAopDTTSGmmiprAbtQtx/t5/KunJwKiI4zXGCnClopaKBThViPtU1OTrUhphoHSg02mmmmgUUhptIaaetFXdHTfqKnsilv6f1reJqJq44UtOFFFFKKeKsRdKlpydakpjUDpQ1MpDTTQOlFIaSmmmmitjQovlnmPsg/mf6Vp7eaR14rihSilpaXFFApwqzF0qWnx9af2phoFDUykNNNAopDSU0000V1GnwfZ9PhQjDMN7fU/wD1sVN0qN2OfauLFLS0oFLRQOlOFTx9BU1PTrUh6VG1Aoam009aaaBS0hptIaYatada/bL6OIj5M7n/AN0da6thk1GwzUDqa4sU4UtLS0GminCrMdS05OtSmo2oHShqZSGmmgUtIabTTTTXT6DZ+TYtcMPnm6ey/wD160CAM/SmBfWopAAK/9k=;" parent="1" vertex="1">
          <mxGeometry x="200" y="560" width="70" height="70" as="geometry" />
        </mxCell>
        <mxCell id="iexFrpo45ZPIpEkn8Zlm-74" value="" style="shape=image;verticalLabelPosition=bottom;labelBackgroundColor=default;verticalAlign=top;aspect=fixed;imageAspect=0;image=data:image/jpeg,/9j/4AAQSkZJRgABAQAAAQABAAD/2wBDAAgGBgcGBQgHBwcJCQgKDBQNDAsLDBkSEw8UHRofHh0aHBwgJC4nICIsIxwcKDcpLDAxNDQ0Hyc5PTgyPC4zNDL/wAALCADgAOABAREA/8QAHwAAAQUBAQEBAQEAAAAAAAAAAAECAwQFBgcICQoL/8QAtRAAAgEDAwIEAwUFBAQAAAF9AQIDAAQRBRIhMUEGE1FhByJxFDKBkaEII0KxwRVS0fAkM2JyggkKFhcYGRolJicoKSo0NTY3ODk6Q0RFRkdISUpTVFVWV1hZWmNkZWZnaGlqc3R1dnd4eXqDhIWGh4iJipKTlJWWl5iZmqKjpKWmp6ipqrKztLW2t7i5usLDxMXGx8jJytLT1NXW19jZ2uHi4+Tl5ufo6erx8vP09fb3+Pn6/9oACAEBAAA/AKuODTgDUwNOBNPU9aUGlJyKVT834U8ntmkP3arSAbvwqMjLH60+IZZj71r2/wBwYNYHjIY8M33uyfzFeXr0oamL1pxpKcKkpMUlIaaaYaYa9Z7GnKPlqTHSnLUinIxSYOacPypSMGnY4o7Gq8g5FNYfNToR+ea2LdcLgVz3jMf8Uxe/76/zFeXL0pGpq9aU0lPFPpaQ000w0w00162Pm5IpwqQDkGnL0zT0HNIetL26UuQOtL1HWgHioZDnFNfk/jToBzz61swHC8Vz3jQEeF7zIx8y4/MV5YvSkemr1pTSU8VJ2opO9IaaajNMNeugcGnKvNS46UoHy471IqnGaQKe9LjimsppBnFKM1E3Whh90+9OgGWxmtmAfIK57xom3wvfEsSGZCB6civKl6ChqYvWnGkNOFS9qSkxSUxqYRTDXrygnNOUYNT4p23GKkAxxSAdaAPWkYcU0DikGAcVGwHNBxhaW3+92ragX5R9K57xrg+Fb3nkMv8AMV5QvSh6YvWlNJThU1FIaaaYaYaaa9fXg08D0zmpVHepWHNPH3aaRRjpSEd6aBwaCvNQt3FD4+Wlg6j61sxZ8viuf8aqq+Fb4gcsUz+YrydelDUxetOPWkpy9al7UUhppppphphr19eTinc/hU6nnFPY/P8AjUoGQKRlwTSleKTb70gHB9KCOKrOOvrRKBlcUtuMZ+tbSkJAWboB1rmfGL7vC1+SOpUj8xXla9BSPTV60p60U4damHSkpDTTTTUTtjtTN2a9fUfNUxB4p653AYqZ1wST61KgwDSHO6nEY4oApgH86Ugc1Wk602T+Gn23U/WtnCm3IPcVzXjIf8Uree23/wBCFeUr0pGpq9aU9aKcKlzgUxWJanGmE000w0w17Ei85qQjsKeo+YVYfnOaOpo3fPUhwcUGoweTR2NV354pkp4XmpLXr+NbP/LMAHtXMeMDnwtfAqQRtwfXkV5UvSkamr1pT1opw61IelIBgUZyKbjFNNMJqMsM17PgH8KdtGMnrTk5bmpjgilHGKQ8GlDjin5yOKjHOaXsTmoG6ZpkwB21Naj5a1MkqPQCuc8XDPhS+5z0/wDQhXk69KHNMU804nmkpwqSlHQUnemmmE1G3NRkV7Opyakzx3p69RT0OQfrUmORTJOtNxg1IDxTRjBoP3TULd/SkcE4+lWLYADmr8Z+Ukniuc8W4PhW+xnGAf1FeUr0pGpi9acetFOHWn0o6UGmmmmo2WmEV7HGak6ccZp6mnrkLk+tTDqOajIwxoPWlB6ikFKTkGomI5pkhPFWYc7cn0q7gmEAdxisHxeoXwzfL0wg/nXk6dKR6YvWlPWinDrUnakGc0uKQimkUw0w168nX3qdeTyaeOlSD7oqRTk0j8NmkyKQd8U1TwfrQT19qiakbORVuDlRkdqvxjKD6Vz3jMf8U9ff9cx/6EK8nTpSPTF60p60U4VLigUU0000w0w17AnQCnqcMfpUg9aeOVFPBph60p6A+tMIO7rSjjOTSngGoiPejG5gKmghfKlZOB2/GtRCSAAM44NYHjIf8U7fenlj+deSp0pHpi9aU9aKcOtSjpR2pKQ000w0w17AnSnD7wqYY/CpSMICKFHb2oxmjHIpDwSajJyDikbOyojkilGAQTmrloeAMitGNtu/ArmfG13Fb+HbhHbDTAIi9yc//WrytOlI9MXrQetLTgOalFGKSkNNNRmmmvX0zkgipdvy7uBUi9KmI+QCkxg0E/KOaXIAXmo2PNIOaUj5elMxx0pNo3jNXYMAqKtr95xXkfjHV/7V1t0jbNvb5jT0J7n8/wCVYa9KR6YOtHelp69akNAPFFNPSmmozTTXsKDB5qQAseCADUint3qck7aae1ITTiflFNbkdcVECc/SlZjt4pAflpCTuHtV22xhM1Q8VaodH0K6uEOJpP3UX+8e/wCAya8cqRelNemDrS96Wnink0A5paaaYaYaaa9kI9acvA+lPOOKlz8opCvNNIHSlI6YpDyOlNBHpTjgj7uaYVO0Uh+/92rtsv3a89+IuomfWIdPVvkt13sB/eb/AOtj864+pF6U16YOtHenGnrT6AMCikNMNRt14ppr2bOSadjin4/lUuflFOxyKjdQOaaGJxxUg9CKjz160u45pu480xiSy1agfB5OAuf5V4vqd6dR1m8vCc+bKxH0zx+mKgqRelNemDrR3p1PWpKSimmmGmmmmvZUx1p461IPepVAK809QOlNdQeKQIOKGTBqLGc0uzrTMYBqM8sBVbWLr7Fot9ODhlhbH1IwP1NePRVNUi9Ka9MHWjvTqetSdqQdKKQ0w0w0017Ep64p44OfWpgxNSqSExUinoKa2c0ucgUN0qEH5iKd/Cahc4BqIN81YXjOby/DU4B++yJ/48D/AErzRKmp46Uj1GOtL3paeKkPSkQ54p1NNNNMIppFevoSc0/NTKelSKSF6VJk5GBSE/WlJOAMUjZNRjgmnZ4OfSq0jdahDfNXO+Om/wCJGg9Z1/ka8+TrU1PHSmvTB1pe9LUgp5HFNQYNPpDTDTDTTXriS442tUm84OEbipQxONqNxUqu39xs9+KcsjZHyNS7nPRG/Kn7yAMxuPwprzqM/K35VCZlz91hn2pfNBPQ9PSq79/lNRjOfun8q5rxuN+iq3I2zLx+Brgk61NTx0pr0wdaXvS1ItSCgDFFJTTTDTDXqyg+9Tq2Mg55qSMksAGP51Yj/wBYfmJ49aTcQ55OM+tTI3DYLfnTyxMY+Y/d9arcsTknFMaMl0OfunPP0pwGT/8AXpGzg00DKda5zxfFv8O3BH8DK3/j3/1685SpqeOlNemDrR3pxp4qWgUtNNNNRmmmvWowcEVIi5bnNTCIBzzUqLjJ56etMkGDweKFfBJHTNXMjYPpVcjFIcZGPSmjig9DTQPkrM1i2N3pF3AFyXibH1AyP5V5RHUuRnFSL0pr0wdaO9Op6ipaM0maQmoyaYTSGvXoumalXgipVGWwetSsCo6dqjkG4+nNR8Kpq8q5RfTFQNH+8OKZzuFBHNBpvYio4/8AWKD0LYryTU7M6frF3aEY8qUgfTPH6YqGnr0pr0wdaO9Op61LSUhNNJphNNppr2KLCjmnBulSIfn9s1bwGqJ0w2emKicAqMdxVmNv3SZNSiMkk9qqP97mkHWmk8mk6rUS/wCuA/2q434haeYdVgv0U7J4wrn/AGh/9bH5VyNSL0pj1GOtL3p1PWpKQ0lIelRmm0hr2JeF/ClUAjrjjrS5OCQe9WVk2qPWkkmJQcc81X80lgKshz5Q46EVZWTKECqj8k0Acilxk0wZ59Kjj/14yO4pfEmlDWPD80CjMyjzIv8AeGePx5H4147g5wRzTx0pj0wdaO9Op69akpDSE0wmm5pppDX/2Q==;" parent="1" vertex="1">
          <mxGeometry x="278" y="560" width="70" height="70" as="geometry" />
        </mxCell>
        <mxCell id="iexFrpo45ZPIpEkn8Zlm-75" value="" style="shape=image;verticalLabelPosition=bottom;labelBackgroundColor=default;verticalAlign=top;aspect=fixed;imageAspect=0;image=data:image/jpeg,/9j/4AAQSkZJRgABAQAAAQABAAD/2wBDAAgGBgcGBQgHBwcJCQgKDBQNDAsLDBkSEw8UHRofHh0aHBwgJC4nICIsIxwcKDcpLDAxNDQ0Hyc5PTgyPC4zNDL/wAALCADgAOABAREA/8QAHwAAAQUBAQEBAQEAAAAAAAAAAAECAwQFBgcICQoL/8QAtRAAAgEDAwIEAwUFBAQAAAF9AQIDAAQRBRIhMUEGE1FhByJxFDKBkaEII0KxwRVS0fAkM2JyggkKFhcYGRolJicoKSo0NTY3ODk6Q0RFRkdISUpTVFVWV1hZWmNkZWZnaGlqc3R1dnd4eXqDhIWGh4iJipKTlJWWl5iZmqKjpKWmp6ipqrKztLW2t7i5usLDxMXGx8jJytLT1NXW19jZ2uHi4+Tl5ufo6erx8vP09fb3+Pn6/9oACAEBAAA/AOQPUU/NOFMemHpSrTx94VOv3hWva/6iX/dNePz/AOvk/wB4/wA6ZRSGkopKSkNFJRTaKQ0hptFFenHrTqeKY1MNKtSL1FTqPnFa1t/qZOf4TXkE/wDx8S/75/nUdFIaSikpKSikoppopDSGkpKK9OI5p4pehpGwajakU81KvUVOn3hWvbf6iT/dNeQT/wDHxL/vn+dR0UhopKSkpDRSUU2ikNJTaKK9PPWnClPWkNRtSAVIvUVZTlq1rcfuZP8AdNeQT/8AHzL/AL5/nUdFIaKSkNJQaSkopKSkNIabRRXp5604U8VG9JjigCndxVmL71atvzA/0NeQXH/HzL/vn+dR0UhopKQ0lBpKSikpKQ0lNoor089aUVItNem54o6ilzyKsw/eFatr/qnH+ya8huf+Pqb/AH2/nUVFIaKSkNJRSUhoptFIaQ02iivTj1p2cVIp4pj9KbnikzRk5q1CTuFa9r/qn+hryG6/4+5v+ujfzqIUUhopKQ0lFJRSU2ikNJSYopK9N7070p46U1+lRk4FANLzkVahPPNbFp/qn+leRXf/AB+T/wDXRv51DRSGikpKSikpKKaaKSkpKKK9MxzS88VIPu0xjTDkigUvPFWYgc1s2ufJfI7V5Fd/8fs//XRv51CKKQ0UlJSUGkpDRTaKSkoopK9M70o61J2phFIeKQUdxVqInNa9oSYn5/hryO7/AOP2f/ro386hFFIaKSkpKKSkNFNopKKSiivS+9OUc1J2puM0002kJ5FWoj8wFbFpgRt9K8kvf+P64/66N/OoBRSGikpDSUUlBpKSkpKKSiivSx1p4p46U4jC1ERTTTe4qeI/vBW3acxN9K8kvf8Aj/uP+urfzqAUUhopKSkopKQ0UlJSUd6SikzXpgp+elPUZqTHFREVGRSEcipoh84ratf9W30rya+/5CFz/wBdW/nUApKQ0UlIaSikpDRTTRSUlGaTNJXpy076VIlS/wANQNTDTSeRViM/MK2LU/u2+leTX/Go3P8A11b+dQCg000UlIaSikoNJTTRRTabRRXpw70A81OnSn/wVCaYcdKb3FWYxyKuz38Wm6XPdTdEXgf3j2FeVzSNNPJK2AzsWOPem0GmmikpDSUUlBpKQ0lJRTSKMUV6Xng0o4NWF6VJ2qFqZimkcirUY+YVzPi3UTLcx2KN8kI3P7sf/rVzVFFNNFJSGikpKDSUlJSUlFFJXpfY05asKMLT+1Qt3pvekA+YVLNMtrbyTt92NdxrzuaV55nmkOXdixqOiimmikNIaKSkopKSkoNNopKK9LHQ09Rmpx0p4+7UL9TTaUD5qyvFFz5WnJADzM3P0HP+FchSUUU00UlIaKSkopKSkoNNopKK9LXoacnGKsgcU4ZC1E3WmgUoHNcp4on8zU1iB4iQfmef8KxaSiimmikpDQaSkopKSkpKSkNFFemqpwakRKsbeKcFO2oXXk00KaAOa4TVZPN1a6f/AKaED8OKq02iikNJSUhoNJSUUlJSUGm0UYor1cRxgHls05VjHdqfvjx1apFaMjhmpCkZ5LNTRGnPzmlWBDk7jXmE7b7mVvVyf1ptNoopDSUlBpKSkopKSkoNJSUUV6sDyeKXOR0pp609GqTqMmgd6erYVuR0P8q8sPU/WlpDSUUhpKKQ0lJSUUlJSUhooopK9VB5NOHSkPWlTrUwQAU5VHNPSJSD9K8rcbZHX0YikppoopDSUUlJSUlFJSUlIaKKSivVOpNOGQKQnmlTPFWFbNL0zTlYhhivM9Ri8nVLqM/wyt/Oq9NoopDSUUlJSUUlJSUlFJRRSGvU+9Pz2pD1pydak3AU4PkdKejc1wvimDyddlYD5ZVDj8sf0rGptFFIaSimmg0lFJSUlJRSUUUlepDqaUGg05adkCnDGKlQjcvvXOeMrTMFtdKPukox9jyK5HtTaKKQ0lFNNFJSUUlJSUUlJRRXqI6mjNBIpymlJpwanq3zrTNWthfaZPb45K5X69q82IIOCMEdabRSGkNFJSGikpKKSkpKSikoor0/PJpcZFKV6U9Fp7IKTbzT0HzinzE7ciuE1+z+y6gZFH7ub5x7HuKyaKKQ0lJSGikpKKSkpKKSkoor/9k=;" parent="1" vertex="1">
          <mxGeometry x="355" y="560" width="70" height="70" as="geometry" />
        </mxCell>
        <mxCell id="iexFrpo45ZPIpEkn8Zlm-76" value="" style="shape=image;verticalLabelPosition=bottom;labelBackgroundColor=default;verticalAlign=top;aspect=fixed;imageAspect=0;image=data:image/jpeg,/9j/4AAQSkZJRgABAQAAAQABAAD/2wBDAAgGBgcGBQgHBwcJCQgKDBQNDAsLDBkSEw8UHRofHh0aHBwgJC4nICIsIxwcKDcpLDAxNDQ0Hyc5PTgyPC4zNDL/wAALCADgAOABAREA/8QAHwAAAQUBAQEBAQEAAAAAAAAAAAECAwQFBgcICQoL/8QAtRAAAgEDAwIEAwUFBAQAAAF9AQIDAAQRBRIhMUEGE1FhByJxFDKBkaEII0KxwRVS0fAkM2JyggkKFhcYGRolJicoKSo0NTY3ODk6Q0RFRkdISUpTVFVWV1hZWmNkZWZnaGlqc3R1dnd4eXqDhIWGh4iJipKTlJWWl5iZmqKjpKWmp6ipqrKztLW2t7i5usLDxMXGx8jJytLT1NXW19jZ2uHi4+Tl5ufo6erx8vP09fb3+Pn6/9oACAEBAAA/APBKWilFOWpkqQU8VKlTCpR0oNFIaKbTj0qPvTqQ0zvTu1Mao2phGRWhYz74tjH5k4+tWjUyfdrjaWigU9amSpB0p4qVKmFSjpQaO1IaKbTj0qPvTqQ9KZ3pw6Uxqjam0RSGGZX7dD9K1w2RU6fcFcdS0Uop61KlSinCpUqYVKOlBopDSUlOPSox1p2KQ9KZ3pw6Uxqjam00jIxV+ylLwgE8rwavqfkFchS0Uop61KtSLTxUqVOKlFIaKQ0lJTj92mDrTqaaZ3p46VG1RtTaQ1JZvsuCvZh+tbCH5BXJUUUop61KtSCnipUqdakFBopDRTacfu1GOtPpp6UzvTh0prVE1NpDTQ2yVH9DW5GcoK5SiilFPWpVp4qQVKlTipB0oNFIaSkpx+7TB1paQ0zvTh0prVE1NpDUcg+U1s277oFPqAa5miilFPWpVqQU8VMlSipRQaKQ0lJTj92ox1p1IaZTx0pjVE1NpDTG6GtKybNqn0xXP0UUop61KtSCnipkqYVIOlB60UlFNpx+7UY60+mmmd6eOlMaojTaQ009KvWX/Hqn4/zrBopaUU9alWpBTxUyVMKkHSkNLSGkpKcfu1GOtOpDTO9PHSmNUTU2kNMPStC1wtsnXOK5+ilFOFPWpVqQU8VMlTCpB0pDS0hpKSnH7tRjrT6aaZ3p46Uxqiam000xuhrUjTbGq+gFc7RQKcKetSrUgp4qZO1TCpBQaKQ0lIKcelRjrT6aelM708dKY1RGm000Iu+VF9TWqBXM0UU4VItSLUgp4qZO1TCpBQaKQ0U0U49KjHWn000zvTx0pjVEabTTU1mm6Ut2UVogVy9FFOFPWpVqQU8VMlTCpR0pDRSGkpBTj92ox1p/ammmd6eOlMaojTaaa0LWPy4Vz1PJqyBXK0UU4VItSLUgp4qZO1TCpV6UhopDSUClP3ajHWn000zvTx0pjVEabToY/NmA7Dk1pgcCngda5SiinCpFqRakFPFTJUwqQdKDRSGikFKelMHWnU00zvTx0pjVEabVy0UCIN3bk1aHanjrXJ0UU4VItSLUlPFTJUwqUdKQ0UhpKBSn7tMHWlpDTKeOlMaozTD0q7aj9yn0qz2FPWuUpKKcKkWpBUgp4qZKmFSjpSGikNJQKc3SohT6aaZ3p46UxqjNMrQtf9RH9KmbpT06VydFLtNKKkWpBUg6U8VMlTCpVpDRSGkoFK3Sox1p1IaZ3p46UxqjNMq/an9xH9KnbpUkfSuSopQT60oNPWpVqUU4VMlTCpR0pDRSGkoFObpUQ606kNMp46UxqiNNNX7X/UR/Sp26CpV6VyNFFOFPWpVqQVIKlSphUo6UhopDSUClbpTB1paQ0zvTx0pjVGaYav2v+oj+lTntUoPFckKMUmKcKetSr1qQVIKlWphUo6UhopDSUClbpUY606kNM708dKY1RmmGr9r/AKiP6VY9KkH3a5KiilFPWpUqQVIKlSphUo6UhopDSUCnN0qMdadTTTO9PHSmNUZph6Vftf8Aj3j+lWPSpR92uRoopRUi1IlSCpBUqVMKlHSkNFIaSgU5ulRDrT6aaZ3p46UxqjNMPQ1ftf8Aj3j+lT9xUwHFcjS96SlFSLUiVIKkFTJUoqUdKQ0Uhoxx1pBTm6VGKWkNM708dKY1RmmHoavW3/HvH9KsdqmX7grkRS0hpRUi1IlSinipkqUVKOlIaKQ0lApzdKjHWlpDTO9PHSmNUZph6Vetf+PeP6VZHWpB0FckKWm04VItSLUo6U8dqmSpRUo6UlFJSUCnN0qMdacaaaZ3p46UxqjamHpV61/494/pVgVKPuiuTFBptOFSCpFqUU8VMlSjrUo6UhopDSUCnN0qMdacaaaZ3p46UxqjamHpV61/494/pVinqflFcqtB6UlKKkFSLUq9KeKmSpRUo6UhopKSgU5ulRjrTjTTTO9PHSmNUTU3sav2n/Hun+7UxqRfu1//2Q==;" parent="1" vertex="1">
          <mxGeometry x="433" y="560" width="70" height="70" as="geometry" />
        </mxCell>
        <mxCell id="iexFrpo45ZPIpEkn8Zlm-77" value="" style="shape=image;verticalLabelPosition=bottom;labelBackgroundColor=default;verticalAlign=top;aspect=fixed;imageAspect=0;image=data:image/jpeg,/9j/4AAQSkZJRgABAQAAAQABAAD/2wBDAAgGBgcGBQgHBwcJCQgKDBQNDAsLDBkSEw8UHRofHh0aHBwgJC4nICIsIxwcKDcpLDAxNDQ0Hyc5PTgyPC4zNDL/wAALCADgAOABAREA/8QAHwAAAQUBAQEBAQEAAAAAAAAAAAECAwQFBgcICQoL/8QAtRAAAgEDAwIEAwUFBAQAAAF9AQIDAAQRBRIhMUEGE1FhByJxFDKBkaEII0KxwRVS0fAkM2JyggkKFhcYGRolJicoKSo0NTY3ODk6Q0RFRkdISUpTVFVWV1hZWmNkZWZnaGlqc3R1dnd4eXqDhIWGh4iJipKTlJWWl5iZmqKjpKWmp6ipqrKztLW2t7i5usLDxMXGx8jJytLT1NXW19jZ2uHi4+Tl5ufo6erx8vP09fb3+Pn6/9oACAEBAAA/AOJXAbrXJ6uu3Vp/Q4P6VUoFLQaKSlFFFBpKKKaaKSkophpKKKKKKSu8WQZ6Cuf1+PbexyAffTH4g1mUU6kNFJS0UUUlFFNNFJSUUw0lFJSiiikrvETms7xDBusY5QOY3wfof/1VzopaWkNFFFFFFJSUtNNFJSUUw0lFFFFFJXfqaS6g+1WcsHd1wPr2risEEgjBHBFFOopKKBRRRSUUU00UlJRTDSUUUUUUld2hqdTXMa5a/ZtQZ1H7ub5x9e4/Os4UtBpKSlooopKSlppopKSimGm0tFFFFJXdrUy+1V9Wsze2BVRmWP50/qK4+nUUlFFFFFJRRTTRSUlBphpuKWijvRRSV3a1YXoKsIuQK5PXrD7He+YoxHLkgeh71lClpKKKKKKSiimmikpKD0phpKKMUd6KKSu7WrCdKtRngVz/AIrOfs31Nc5S0lFFFFFJRRTTRSUlB6Uw0lFFHeiikNd2vWrCcCrEZ6VgeKT/AMe3/Aq50UGikpaKKKSiimmikpKD0phpKKSjvS0Uld0nWrKYxVhOgrnvFH3rf8a5+iiigUUUlFFFNNFJSUUw0lFFHeiikNd0nWrK8Cp0rnvE55t/xrAoNFFFFFJRRRTaKSkoNMNJRRR3oopK7lOoqyp6VYXpXO+JiS1v+NYNBopKWiikNFJS000UlJRTDSUUUd6KKSu5SrC9BVhOa57xN962/wCBVg0tJSUtFFJRSUtNNFJSUlNNJRSUClopK7hOtWVPSrMdc54nz5tv6YNYQpTSUlLRRSGikpaaaSikpDTTSUUUUnSlpK7lOtWF7VZj6Vznif8A18H0NYVKaSkpaKKKSkpaaaKSkophpKKSloopK7pBzVhBxVmMVznigfvbbjs39KwaKKSloopDRSUUhpKKSkpppKSlpO9LRSGu6TrVlKsx1zfig5lth7N/SsGiikpaKKQ0UlFIaSikpKaaSiiiiikrukqygNWohyK5jxOc3MA9A39Kw6U0lJS0UUhopKKQ0lJRSU00lFFFFFFdyp5qyh4q1C4z1rlfE0ofUI1H8K1jUUUlLRRSUUlFIaSkNFJimmkooooooruFHNWUFWIUA5ArmPEyAX0TeqVjUtJSUtFFJRSUUhpKKSkPSmmkopKWiiiu5Q1Yjye1W4hxXJ+IznUBg5wMVkUUUlLRRSUUlFJSUhopD0pppKSiloooruE61ajPFWo+n41yPiIMuokdAwzWVRRSUtFFJRSUUhpKDSUh6U00lFFFFFFdwgzVmIVbiHT61y3icf8AExjP+x/WsWiikpaKKSikopDSUGkpKaaSikpaBRRXcoeatR81YiPP41y3iY51CP8A3KxqKKSloopKKSikNJSGikpppKKKTFLRRXcL1qzHVqIc1zPigYvof9w/zrDpaSkpaKKSikopDSUhopDTTSUUUUZozSV3SDmrSDFWox0rmPFP/H7B/uH+dYVLSUUUUUlFJRSGkopKQ000lFFJRQRRXdp1FWkqzH0Fcv4o/wCP2H/cP86w6WkoooopKKSikNJRSUhpppKKKKKKQ13SdatIasx9B9a5jxR/x+wf7h/nWHS0lFFFFJRSUUhpKKSmmkpKKKKQ0ZozX//Z;" parent="1" vertex="1">
          <mxGeometry x="510" y="560" width="70" height="70" as="geometry" />
        </mxCell>
        <mxCell id="iexFrpo45ZPIpEkn8Zlm-78" value="" style="shape=image;verticalLabelPosition=bottom;labelBackgroundColor=default;verticalAlign=top;aspect=fixed;imageAspect=0;image=data:image/jpeg,/9j/4AAQSkZJRgABAQAAAQABAAD/2wBDAAgGBgcGBQgHBwcJCQgKDBQNDAsLDBkSEw8UHRofHh0aHBwgJC4nICIsIxwcKDcpLDAxNDQ0Hyc5PTgyPC4zNDL/wAALCADgAOABAREA/8QAHwAAAQUBAQEBAQEAAAAAAAAAAAECAwQFBgcICQoL/8QAtRAAAgEDAwIEAwUFBAQAAAF9AQIDAAQRBRIhMUEGE1FhByJxFDKBkaEII0KxwRVS0fAkM2JyggkKFhcYGRolJicoKSo0NTY3ODk6Q0RFRkdISUpTVFVWV1hZWmNkZWZnaGlqc3R1dnd4eXqDhIWGh4iJipKTlJWWl5iZmqKjpKWmp6ipqrKztLW2t7i5usLDxMXGx8jJytLT1NXW19jZ2uHi4+Tl5ufo6erx8vP09fb3+Pn6/9oACAEBAAA/AOBPFRsetMxim01s1GwxSKMjNN2kU5TVpOVFTJU6VMo5zU38NKelTp0FNuT+5I9q4C9/4/pv96oDQOtSCnUtJTTTDTTSdq69utRnPemMeabTetMfpQnAxQRupMYqeI1YSpk61OtSj7tL2qxH2om+4RXn99/x/wA/+9VegdakFOoJppNJuppNMzQeBXXsajaomNNByKQmmt60oHFKBQRT0ODVpOlTJUympR93mlPep06CnSd68/1D/kIz/wC+arGgVIKdSGmmmUlB4phNdg1RsetRGmkU2l6ilHSl7GnAA04rzmpoc9KsrUyin9qd/hViPoKWTnNcBqP/ACEZ/wDfqqaB1qQU6kJxSHkUzFAFIw4qIiuwbrUTHrTTTDTTS5FKOlKOactTdakjqcdKnXpTmHFKOTViPoKfJ71wGpcancf79VDQOtSDrTqQjmikIpOKY3SozXXt1qIjmmHrTT0phpKkB4pV+lOHXpUoqWOpgcVMpzUh6GjOOasxngU6TpXA6oMapcf79VDQOtPHWn9qbnmlpOaSmOeKiJrsGqNutRmmk8VGc5JpDTgcUqsR2p6vntUympo+anUVMoGRT26UqgZA9asIPlFQ6hdLaWjzv0UcD1PauBkkaaV5HOWY5NMNA61IKUnim96cKKbTHFQkV2LVG/eoj3ppqM0d6Kcpp4qVamjNWFNTp1pzd6cD8wqyv3BXMeKLzfNHaKeEG5/r2/z71z4pDQKkpT0puKUUUhppqI117VGetRMOaYRmmGkzzS05aeoqVetTJ1qwvUVMnUU9utAPIqw0ixwb2OFVST9K8/uZ2urqWdursTUdIaB1qQU6kNJRTSOaQimkV1rdTURpjcUwdKYRzTT1pM809akFPXrUqHmrCGp1POace5pAeRVXXLjyNGZQfmkwg/r+lceKWkoHWpB1pwFLSYpKSmmkNdWwqI8D6Uw03FM4ph60Uq08GpVqVKnU1MtP7UdxWF4kmJNtDnoC5/PFYVKKQ0DrUgp9FFJTTTTTc11rdcVGRUZphqNqaRzRSjrT1qValQVMvWph0qTtQK5bXpN+qMP7ihf6/wBazqWkNKOtSCnUUlIaaaQ0011zDmoz1qNhyajIprCmmkoqRakWpkqVe1Tj7tP/AIaB2rj9Ubdqlwf9vFVaWg0DrUgp1LSUlNIpppprsGU5ORioytMYDNMK8UzbTCpzQUoCVIF5qRV5qVV5qZV6VNjAp3RaQVxmoZ/tG4z/AM9D/OoKWigdakFOpM0ZopM000011J3E8s350mP9o/nTWHPU/nUZyD1P50wk8/MfzppJ/vH86Mn+8fzoDEfxH86dk4yGOfrTgzY+8fzpyu+T85qVZH/vmpBLIT980plk6bzT1d8feNcrfknUJyepc1BS0UDrUgp1JRSUlJTTXUd6DTGPNRE009KbSZop2acOlPUc1KvNSAc0YPNKCcVzmprt1CX3wf0qrS0UDrUgp1FJSUhptNNdT3pDTG61GaYelNoo70vSnjpT16+1SLyalXgmjPNFYespi5R/7y4/Ks+looHWpBTqKSkpppKQ11FIajbrUZph6U2lo704U4dKeo61Mo5pw6fjSkd6DwKzNXj32yv3Q/pWNS0UDrTxT6KSkpDTaQ11B603tTD1phpjUwUoop1OGdtSL3qZfvCn9OlJ60pBxVe4jEsLof4hiuaIKkqeoOKWigdaeKkFIabzRSGm0hrpz1pKY3WmHpUbDim4o7Ud6cPrT1PFSp1NTKPmp4pKCKjfpWDqMPlXO8D5X5/GqtFAqQU+kPWimmkNNpDXUkc00imEc0wio2ptFITzSipFxUqDmpl608DNHejrUTiqV9B51uQB8w5FYlFA61IKd2pO9FFNNNNIa6lutJ2prdajPSo2HFMIpccUm3mnbecZqVQvrT0xng1Oo5p69M4oxzSkVDIOKifoKxtQtjFJ5qj5HP5GqdAqQUvam96UUtNptJXWECkwMelRsOTTCKibpTO9L2oIpVU9aeAQOamj49Kmzk0qnrmnA8U49Khk6VA/SqGqH/RVH+3WTQOtSCndqb3paQ0hptNNdc3WmnGKYxqM1G1M70dqKUGng8VKh5qZetPBGOlItOPSoZBxUL9Kz9T/AOPZf9/+lZdC9akFL2pKWkJpppKaa6xjzSE8VGetMNMNM70vak9aVQalA4qVFAqUDDU9VOCaULxQeKhk6VXftzVDU/8Aj1X/AH/6Vl0DrUlKaKKSkNNxSGuqYDPWm4phHJppqNqaaO1APWlX9KlA61KnNTAHNSKDj2oAoI4qBu9QPVDU/wDj1X/f/pWVQvWpKWjvS4pMU0000011rfepuKjPU03tUbdKZRRSjpUin5alTqanB5p6jg07pSMeKgeoHrP1T/j2T/f/AKVl0o60+nCgUtNNNNNNIa6tvvUlMPWm9qjPSmGjFHagVIvSpo+amFSL0NPAyKiPpUL1C546Vnan/wAe6f7/APSsylXrT6WgUtIaaabSV//Z;" parent="1" vertex="1">
          <mxGeometry x="278" y="637" width="70" height="70" as="geometry" />
        </mxCell>
        <mxCell id="iexFrpo45ZPIpEkn8Zlm-79" value="" style="shape=image;verticalLabelPosition=bottom;labelBackgroundColor=default;verticalAlign=top;aspect=fixed;imageAspect=0;image=data:image/jpeg,/9j/4AAQSkZJRgABAQAAAQABAAD/2wBDAAgGBgcGBQgHBwcJCQgKDBQNDAsLDBkSEw8UHRofHh0aHBwgJC4nICIsIxwcKDcpLDAxNDQ0Hyc5PTgyPC4zNDL/wAALCADgAOABAREA/8QAHwAAAQUBAQEBAQEAAAAAAAAAAAECAwQFBgcICQoL/8QAtRAAAgEDAwIEAwUFBAQAAAF9AQIDAAQRBRIhMUEGE1FhByJxFDKBkaEII0KxwRVS0fAkM2JyggkKFhcYGRolJicoKSo0NTY3ODk6Q0RFRkdISUpTVFVWV1hZWmNkZWZnaGlqc3R1dnd4eXqDhIWGh4iJipKTlJWWl5iZmqKjpKWmp6ipqrKztLW2t7i5usLDxMXGx8jJytLT1NXW19jZ2uHi4+Tl5ufo6erx8vP09fb3+Pn6/9oACAEBAAA/AMPqacBxUqdRUyjNOpADStTSMCkxlqCOac/+qNVP+WUn0ry2b/Xyf7x/nTKaaYaSkopKKaabRQKWikr14dc1JT161MhPFPOCM0DNB9e9NPNGOc0ZyaV/9UaqH/VP9K8tn/4+Jf8AfP8AOo6aaaabSUUlBppptFApaKSvXhT6enFTx5qRuBSLyKVfemEYJoBwKSnSf6uqv8D/AO6a8sn/AOPiX/fP86jppppptJRSUGmGkooFLRSV690FOqRanSpGI2jFNBpaaTzQSOB7UccU5z+7qp/C/wDumvLLj/j5l/3z/Oo6aaYaSkopKDTTTaKBS0Uleuin4qVAT0qZRzTyO2KUDse1Iw7UwiigmnsMxn6VTHAcexry65/4+pv99v51FTTTDSUlFJQaaabRQKWkor10dKcOtTx8DNTJ0p+cnIoHzE+tNI5ppNBo6ipG5iIqoBw/0NeW3fF5P/10b+dQ000w0lJRSUGmmm0UClopK9cBp4BqaM4wKnQ8GncAjFAG3mkPOabS5GaQcCnt/qjVRej/AENeXXn/AB+z/wDXRv51DTTTDSUlFJRTTTaKBS0UletipB0HNSoCeamSnHNKSTxSEgUw0E804GpH/wBUapp0c+1eX3n/AB/XH/XRv51BTTTDSUlFJRTTTaKBS0hor1wCn1NHxUyHipO1M5zzR25ph9qD2pynmnucRN9KqRn5Xry++/4/7j/rq386gppphpKSikoppptFKKKKSvXB0p/fpUwqVDxink9KM8fypH6gUwgngU0nGKeKdJ/q6rRdGrzC+/5CFz/11b+dV6aetMNJSUUlFNNNooFLSUV64OaeKljPHNSin5wM0gIHGOKGOaYeKQ9acDzT3/1RquikRknoc4ry++/5CFz/ANdW/nVemmmGkpKKSimmm0UUtJRXrgyCKeBzUgPWp1HApwGRg0wjBxSnpTTzz2pO9O709/8AVGoVB8s57CvLb/8A5CFx/wBdG/nVemmmGkpKKSimmm0UUUUV62DUgPFOWrCHinE96O9NPXik7daQnmnLzUj8RE1AGBVvfNeW33/IQuP+ujfzqvTTTDSUlFJRTTTaKKKKK9bFSDoDTl61YA4FOJ24HWkHHPrSnA5pnakPWnIKkcfu6rgdfoa8uvv+Qhcf9dG/nVemmmGkpKKSimmm0UUUUV633xT88U9eDVjOQKULQeBSdqTpSdDxzUi09+I6rr0P0NeW3/8AyELj/ro386r000w0lJRSUGmmm0GkozS5pK9czTx0FPQ1ODxS5ORSfwnmnY6D2pp6GkFSL0p8n+qqsOp+leXX/wDyEbn/AK6N/Oq9NNMNJSUUlBphpKSijFFFeuDnin9DT0GTVlRgCkOKBg8U4kDP5U0jB4PApo609fpT5D+7Iqqhyx+leYah/wAhG5/66t/Oq9NNMNJSUUlBphpKKBS0hpK9bHBBqQc81InFT56fSilHHNIRQfWk708dqdJ/qzVRPvt+NeZah/yErn/rq386rU00w0lJRSUGmUlFFFIaSvXAKkAqRasDIAoIOabmlJ6UnbrSDOakSnuMoaqIMFq8x1H/AJCVz/10b+dVqaaYaSkopKDTDSUUUUhpDXr4GOtOHSpBU2eBQTnmkpPrR2o71IlPkX90aroOG9cGvLtR/wCQlc/9dG/nVammmGkpKKSg0ykooopDSGvX+tKoqRetTDpQegoxxSUGjoalXpUkgzGRVaNcM4J6A15Zfsr6hcMpypkbBH1qvTTTDSUlFJSU00lFFFIaQ1696U4VIvNSjpT8DJ+lJ/DTT1pKWpE6ZNWGXMLGuX8TakbDTmijbE0+UGOw7muAoppphpKSikpDTTSUUUUUh6V66p4p3anryal9qdnIoP3qRsDpSZpakQ1O5Kw/WvLfEN8b7WJmBzHGfLT8Op/OsuimmmGkpKKSkptJSGilzSUV66CCaXNSoOlSCn8FuwpM96TtSUtPj61Drt59g0S4uOjBdqf7x4FeT/Xk0UU00w0lJRSUhpppKSkpaKK9cFOHJqYdakXmnAdqa2M8dKO1BHIo71LHxXMePbrZa2dmp++xkb6DgfzrhqDRTTTDSUlFJSGmmkpDRRRRXrYp445zUycmpcAUYOcUHrik9KU9c0oHNSRjkVwHjS487xC0faGNU/r/AFrnaKKaaaabSUUlBphpKKSjFGKK9cXgU7HANSx1NxmlPJpAO9GOKOcYp3epI+Wry7XpfO16+f8A6bMPy4/pWdRRTTTDSUlFJSGmmkoooxRRXr4iPAqQR9MZqSOPualWMHJ7UrR4x15oMQzxmlMQxjn8qTZgkc/lRspwyvrXkl+S2o3RPeZ/5mq9FFNNMNJSUUlIabSUUCloor//2Q==;" parent="1" vertex="1">
          <mxGeometry x="355" y="637" width="70" height="70" as="geometry" />
        </mxCell>
        <mxCell id="iexFrpo45ZPIpEkn8Zlm-80" value="" style="shape=image;verticalLabelPosition=bottom;labelBackgroundColor=default;verticalAlign=top;aspect=fixed;imageAspect=0;image=data:image/jpeg,/9j/4AAQSkZJRgABAQAAAQABAAD/2wBDAAgGBgcGBQgHBwcJCQgKDBQNDAsLDBkSEw8UHRofHh0aHBwgJC4nICIsIxwcKDcpLDAxNDQ0Hyc5PTgyPC4zNDL/wAALCADgAOABAREA/8QAHwAAAQUBAQEBAQEAAAAAAAAAAAECAwQFBgcICQoL/8QAtRAAAgEDAwIEAwUFBAQAAAF9AQIDAAQRBRIhMUEGE1FhByJxFDKBkaEII0KxwRVS0fAkM2JyggkKFhcYGRolJicoKSo0NTY3ODk6Q0RFRkdISUpTVFVWV1hZWmNkZWZnaGlqc3R1dnd4eXqDhIWGh4iJipKTlJWWl5iZmqKjpKWmp6ipqrKztLW2t7i5usLDxMXGx8jJytLT1NXW19jZ2uHi4+Tl5ufo6erx8vP09fb3+Pn6/9oACAEBAAA/APBKUUUU4VPHUg60oqVK9Y+FdqU0y9ucf62UID7KP/r16Ir7VIHY1WkBY0W8ZJyathT5ZGMc0yZtqY9RVR2JPTNRD/WVFOSGGaruSQe1VWBLGo5MjFV3+7VWTPNQtUDg5qsw5qMjio2HFeV0UtFOFTx1IKUVKle+eDNP/s7wrYRlcO6ea31bn/Ct98ZAppVR/Wlhxg9OKl3gDg1VlbzCPpUWOeKUgD0zVKYktyaiP3TzVZup5qGQZqBwcVVkqFqhYc1XYVHgUxhxXk9FLRThUyVKKUVreH9ObVtbs7JRkSyAN7L1J/LNfRSRhAEUYVQAAPSmTH5utMDjYQRTEkIVvShZC2QKQnGB3p2cjNRscnrVSb71RnGDgVVfINQufpmoHJwaqv3qFiPSomxk1Xaojio26da8ooopacKnSpBSivT/AIUaKXludXlX5VHkxE+v8R/kPxr1cJjJ9uKruvOcVAVw2CcU0AbSPenRrh8VJJH904p2wBahIB5qnMuW/GoSPlNV3FV3GDULLwaqyCq7ioj0NV26VEajbpXlNFFLThUyVKKsWdrLfXkNrApaWVwigdya+jdA0uLR9Ft7GIfLEgBP95u5/E1pk5JqvMTyF7VVYknNEYODnuanVfmB7ZqSQ8AUwvxjtVZmx0PFU5nyahL4U5qszEk1ExqBicVWkaq7tUDNxVZmqMtUbNxXllFFLThUyVIK9E+FGnQ3Gq3N7IN0kChYwR03ZyfrgfrXtCx7YuDSbfvfSqzp8zc9BVby8seuKdFHliPSrEcZC0jgkioW+6aquflx3qlL96oiODURFROtQuPlqpIKrOKhbpVZhUZFRNjFeW0tFLThUyVIK9R+D4Bm1LPon9a9iddkIPsKhz81QSEFTjntULj0ohI3irGRg4qu74YfSoWfiqrP8xz1qpIfmpnVc1CTUbHJqCTpVRzVZ+9QOeKrsajY1C1eW0tFLThUqVKK9R+DwzPqX0T+teyzIfs6/QVXVcsOKimjIkGOlViDjpzTVjZXGfWrJBKkCq7xsSv0qOSJgOhqoY23Hiq7od3NMK8VXK89KjYH0qCUcdKqSD2qtJVdxxVdhURFQt0ry6lopactTJUgr1L4On9/qQx2T+te0SnFsAeuBVQE7/XikkK927CoCsWcFu/aosrnGT1qYEBDwc1G3JGM0xyNvIqpn5vaoJCAcVF2OPSq7AZ60xgPWq81UpMelVZCPSq7nA6VVZh6GomI9DUbYx0NeWClopacKmSpBXp/wfJF1qPphP617ZP/AMe2fYVTU4P4VUnfLe2ahJOPem5YfjVkZKk1GTkjnmopM4xVcj86rSck1FkjOKhJPrUbvz1qvIxx1qpIeKrOarS8jpVUjJpjCo2HFeV0tLRThU8dPFenfB84vdQ+if1r26cYtV78CqW3JP0qncAKwHvUYwWIzTlAY/SpwoCDnqKiwOT3qIgdagcD1qo4Gc1CQMGoWxxUT9agkAxVVxVZxzjFV5BxVdhio2FROOK8ppaWinLU8dPFemfCA4vdQ/3U/rXt1w3+ijHoKqoctVS7+9ioEPOfWnw9WPWpS2VqI5yajY8VXdsk+1VGPNRscA1AxPFRN1qGToarScVWbrUEnFVmPNRtULdK8ppaKWnCp4+lPBr0z4QjN7qIzj5U/ma9suBi0X6CoQAvPtVCc5k4NRqp59KnjQbuaeVUjGeKrupBHPWodpI+lQOpwTVQjmmOvGagYc0xlOM4qKQcVUlqswqGQdaqMvNRkGoW6V5TS0UtOFTp0p4r0v4QH/T9QHqifzNe2zn/AEZQfQVWdsEZ9KpS4Zyc9KkQDHJ7Um8CQgd+9PLADOe9QsQSOe1RcYxUMuORVNl5yaYw4xULKc1GwqKTFVJO9Vnxiq79KqtUb1C2MV5RS0UtOWp4+lPFel/CA41K/wD9xP5mvbZ1zag+wqrJjI47VR6sfrU8a5TkZ4qMIfM9fWlMf3vQVGVx9aiKnGaikGc1XIaojk1EwJxxUTCoZBg1TlXJ61XccVWfpVZqjeoHrymlopactTx9KkFek/CA/wDE0vv+ua/zNe4TkfZV+gqmxBznHSqOfnIq1Cfkx7VFu/fEVKpGDk1EwUce9RsMjiqrkBiD1qFjx+NR8DrUTsM1Xc4qF24waqSMM1UkNV2PBqs55qNjUT15PS0UtKKsR9KkFek/CH/kJ6h/1zX+Zr2q4P8AoyDPUVWHT61U24lPXmpox8pw3NR7MyjnB9KsrGQD0qEjBzkUzbn0wPeqrp8+ciq8gxxgVFywIJFQODmoXU1BIvFVJAQTVWToarN0qu9Rtmom6V5TS0UtKtWI+lPFelfCA41PUP8Arkv8zXs0x3RL9BUXHGewqoT8xz1p6DrzinKF8wEnFTZXaPmOaqPgHFMySMY7VC7AHPNVZGJ45qMZqMnJOajfFQSdKpyVUkHBqq+QKruajaon6V5TS0UtOWp4+lOFelfCD/kKah/1yX+Zr2WUAxgDPaqzF1chgMexquSTIcU5ZSrEetTpOCUyoxU3mgKDxgdqrOysxJpgIxx/KoJXxj0+lVXOTxioyxGcCqzt845FMdvTBqFz9KqSVXfBzVSUDbVVxUbHioXIxXlVLRS05anj6VIK9J+D5xq2oZ/54r/M17ISNg9qqyybnxu7VTR/nPPen4AYnOKI844PepiTgDPfmoy4DkcfjTWkQD7wqtJKnIzmq7TKCBzR1B61WcNv4pjAnvVeQHHWqkucniqzZxUD9DVWQc1EwNQNXllLRRTlqxH0qQV6L8Iz/wATe/8A+uK/zr2FmzGfpVMff5FChTuzkHPUUNt3Hnio0kCsSBQ8pLA9qhfkk5qMn5cGoGOc1Ex+YGnLckNhlGKczKzgjFDBcdKryKMHiqUwAzxVVgOarOBg1VcDNRPUDdK8qpaKKetTx9KkFeifCQZ1i+/64D+deyNH+7OP7tUy2x+DzioFY7mpeSC1RfdOKRz3qMtzzSE8VCetQSH5hUcmARikV9rZqfzFxzUcjrjmqUrLzVZsYyKrvzmqrdaheoG4FeVUUUtOWp4+lSCvRPhH/wAhu9/64j+deyyf6sj2rNP+sPpUaffNPz8oGelRlhupzR7ulQPG2elNZWGMDtUTAgcqaruPmqPq3SnFfmHFPKjFQybfaqcm3Paq747VBIRVZz7VA/0qF+nSvKaKKWnLU8fSpBXofwk/5D13/wBcR/OvZJc4yKqBS5c7c4qAQvuJ2nFIkZLYPFBiw/v2qYrsIOM1G/NR5OMkVE7f7NV3xnpUWAGPvUbtg0hcVFJyucVUkOM1WduagkYVAzVE57VCx4ryiilopwqaPpUor0P4RkDX7oHvCP517QBuOKUKqjjGaj8zbklQfwqq7hpfuDrQjoX+ZRUhIOQD+tQNwee2aixxyc1BJgHp3qu4FQsPaoHGTSbT6VDIPWqr45qu1VpTwagY0w1G3Q15PRS0U5amjqQV6D8JiBr91n/nh/WvaEOAT6CkEmSaiYFhnNV8ktimrjzO9OUgkH3xSZHIPPBpgGeO1Qvw2M1Xfk9TUbjioHHOKjYVC4qpNwaquarycioHphqNuleU0UtFPWpk6U8V6D8JufEVwP8Apj/WvZ3HUY5pEXjHpSMMIarHBakUDLH3pyR4APvTCOTgdM0wLlc+lROAZB7VXZTu9KjYcVBIORTWHHSoJF4qnKvJqm45qFh1qBhzUZHNRuOK8opaKUU5amTpTxXffCkn/hI5sf8APH+or2o5JNID8xp2Mqc9KrMME8Y4picEj15qUHCD2qFjhuKaOBmonUl8iqz8VGagkPz4FNJJqGQ1UlHWqT/eNQNwDVdqY1Qv0r//2Q==;" parent="1" vertex="1">
          <mxGeometry x="433" y="637" width="70" height="70" as="geometry" />
        </mxCell>
        <mxCell id="iexFrpo45ZPIpEkn8Zlm-91" value="" style="shape=image;verticalLabelPosition=bottom;labelBackgroundColor=default;verticalAlign=top;aspect=fixed;imageAspect=0;image=data:image/jpeg,/9j/4AAQSkZJRgABAQAAAQABAAD/2wBDAAgGBgcGBQgHBwcJCQgKDBQNDAsLDBkSEw8UHRofHh0aHBwgJC4nICIsIxwcKDcpLDAxNDQ0Hyc5PTgyPC4zNDL/wAALCADgAOABAREA/8QAHwAAAQUBAQEBAQEAAAAAAAAAAAECAwQFBgcICQoL/8QAtRAAAgEDAwIEAwUFBAQAAAF9AQIDAAQRBRIhMUEGE1FhByJxFDKBkaEII0KxwRVS0fAkM2JyggkKFhcYGRolJicoKSo0NTY3ODk6Q0RFRkdISUpTVFVWV1hZWmNkZWZnaGlqc3R1dnd4eXqDhIWGh4iJipKTlJWWl5iZmqKjpKWmp6ipqrKztLW2t7i5usLDxMXGx8jJytLT1NXW19jZ2uHi4+Tl5ufo6erx8vP09fb3+Pn6/9oACAEBAAA/APERThS04U6gU6g0w02ui8K/8vH1X+tdR0QVG/Bo+8KbgY6UjDmmnpUZ6UxvSoWPNMpCKb3pKKdQaSuNpwpRThTqBTqDTDTa6Lwr1uf+A/1rpyflFMlHC4pCcUm7oMGhu1NbiojTDzzUTY5pgpCOKZR2pOtOAopK42lFOFOFLmlHWn0hphptdH4V63PP92un6KKa5qJj69KA+RjnijoRSHFMaoWqJutIcU00wdaDQODS0ppK4wU4Uop1LSinUGmGm10XhX71zn/Z/rXUH7gpjiom6daap5xTy3OAabnimMRiomqMgU2mHrSY5pKKWjOfak71xtKKdSinClFO7UGmGm10XhX71yP93+tdQfuikbkc/hUTLmmAEHBFGBmkbkVGelMJ4681GTTTTTTO9IfrS96Wl6mkwK4ynClpwpaUU+kNMNNrovCn37nj+7/Wuo6016RgSOtRkHuaRsYqM0w+tMbpUTUZ4phptGOKKd0NGKQ9a4sU4GnCnClFKKfSGmGm10XhX71x/wAB/rXTqpJpZcBqiOQKi+djx0p2OKawwMioj0ph6VG1MNNzSe9L2pKWlNJXGClFOFOFKKUU+kNMNNrofCxG+4/4D/WupQ/NkU2Q5fFBHHNMPBppPNMzio2+7URphplMNIOtLRS96PpRz61xgpwpRThS0op9IaYabXQeFz89z9F/rXVRn5aZIctmk3gDkUm4E8Uw9aYc00/SoiKjPWm9aYetJ70opKWlxSVxYpwpwpRTqUU/tSGmGm1v+GD89xz2X+tdSvCimk7hu6U3IwTioyV3d6UY7ZpKaevFRMKjYUw9aYaTv1oz7UCnUUZriqUU6nClFOFOoNMNNre8M8y3H0WuqTpTXXHA700jApgXJJzinnGPXioznqKYRnmmMSD61ETTDTCaaaO4pR1pe9OpK4qlFLmnClpw60+kNNNNrd8Nf624+grql5HHWkIPr1pppuWJOMYpxzgc1G2cZpjelMbHWoWpuCaYaaaB1pacOaKBXFClFLTqUUop4oppptbvhn/XT/QV1SAYzmkNMyKQJknJ4pcY70w5JzSNg5qFu9RE0hph6000DpRzTgKKQVxYpRThS0tKKfRTTTa3fDOPOuCf7orqUHoaGBx70gUU0qfUfnRtK0xuaYRjrUbCoz6U2mGm96Uj5aQU7vSmm1xQpwpwpaWlFPoppptbnhoqbieMthmQED1wa6qMZXrzSsKRhwOM/SmhcnkYPrSMpBzk00ioiOcUh5FQmmmmE8009aPYUU4daWk7VxIpwpaWlzThT6KaabU1rcNa3Uc6dUOfqPSu/gdZYklQ/KwyKeT8opfQ5puD2pjVGxPPpTGNMOelRGmnnioz1pKXoaQ0o606m45rixSilxRRT1qSg0002lrrvDN0ZbFoGPzQnj6H/JrYb7o9acMFKYc8UxuelREmkJ4qMkHvUZpvtTCMGm0AUlOpc0ma4sU4UtGKTBpy1JSmmGkpRWt4duPI1dEJ+WUFD9e1dm4+UGm4+XrTCc0w5NMPTmmH3phHWoTikNMbrmk70o9aQ0tLTSa42nClFOApcUAU7FFNNNpRUkMphnjlXqjBh+Feilg8asOhGRSFsL7VESAeO9RksDkUjGmE/nUZqJutN5ppHNJS0lKKDSc1xgNOBpwpwp1C06kphpKUUtd7pkhm0m1c8/uwPy4qyw+XHNROvH9KQqQOlNI7YphGKY3HSoWHNIQaaQaaVNJg5owacBQRSY5riRTwaUGnA07NCmn5pKaabSindq63RbvbpMK7Sdu4frWj9vUA5jNMN8CeFNI12MY2tTDdAfwtTTdqT90003C4ztP5VGbhD2P5U03CehpDcx+hpv2hPQ0n2hPej7Qnv+VL56e/5Uv2hPf8qQXEZ7n8q40U4U4Uop2KBT6Smmm0tOrpNE/5Boz/AHjV9lBppUAjjFKACc4pWAx0PNRlRuxjijbwaYE5proO2aiKBvajaPWk2ik296VgMZzQVBxzSqoGK5MU4UtLTs0LT6KaabSilrptGXGmJ7lj+tXWxTRksBnNSkbV9aaTgAmm7sjoPxpit1BpM9aaxwcVGaaetIelIScYpw6c0vBpO4rkc8U4GnClpaVakpDTTTaWl7V1mnJ5enQD/Yz+fNWD0pANrDmlLGmlhjmmH1GaRjtOe5pNwIpjHJ4FMJ5pM00nn2phPFPX7vNKM9ulJ3rkwKcKcKUUtKtPophpKUU5VLuqDqxwK7GNdiKo6KMU4uAOajD8gAd6cWycGk420zcFPtQ5BFRZHHNJnFM3c0hPNDc00Y5p4xS8EU0DkCuTFOFKKdS0q0+g0w0lKKvaVF5t+pI4jG4/0row+Ka7ccVCHZmxU2QBzTS44zTSQelISPehdpwO9BOAR1qOmgjOKOcUlOHWnY49aT+KuSFOFLThS05afSGmGkpa3dGh8u2aQjmQ8fQVpqPzprHPfFCKR1NOJGeRmmuoxTMcdKQgbevNNXmhs9hTOvFGBSdab0NSLjFPxxTdvua5EU4Uop1LThT6Q0002pbeFri4SJf4j+QrqlRUUKnCqMAUE49vembhkZyakTa7cflUm316VG4IPtTeelR4xmlxxikYYphpvJo6dqCOM09RxRzRu7V//9k=;" parent="1" vertex="1">
          <mxGeometry x="510" y="637" width="70" height="70" as="geometry" />
        </mxCell>
        <mxCell id="iexFrpo45ZPIpEkn8Zlm-92" value="" style="shape=image;verticalLabelPosition=bottom;labelBackgroundColor=default;verticalAlign=top;aspect=fixed;imageAspect=0;image=data:image/jpeg,/9j/4AAQSkZJRgABAQAAAQABAAD/2wBDAAgGBgcGBQgHBwcJCQgKDBQNDAsLDBkSEw8UHRofHh0aHBwgJC4nICIsIxwcKDcpLDAxNDQ0Hyc5PTgyPC4zNDL/wAALCADgAOABAREA/8QAHwAAAQUBAQEBAQEAAAAAAAAAAAECAwQFBgcICQoL/8QAtRAAAgEDAwIEAwUFBAQAAAF9AQIDAAQRBRIhMUEGE1FhByJxFDKBkaEII0KxwRVS0fAkM2JyggkKFhcYGRolJicoKSo0NTY3ODk6Q0RFRkdISUpTVFVWV1hZWmNkZWZnaGlqc3R1dnd4eXqDhIWGh4iJipKTlJWWl5iZmqKjpKWmp6ipqrKztLW2t7i5usLDxMXGx8jJytLT1NXW19jZ2uHi4+Tl5ufo6erx8vP09fb3+Pn6/9oACAEBAAA/APBaKKUVItSJUq9KcKnT7tPFPFbvgz/kcNN/66f0NfQVp/rJPrVuIrtHf5qlnjyMZ569elYlwOJPU+9c5cKSzHHesuUYkwBxUT+h7U0dKkxj8KVeBn1qKTqaz5wM4qrJUL4wKhNROOK83oopwp61KlSL0pwqdPu08U8Vv+CRnxlpv/XQ/wAjXv1pGpeVjnGeKtW6ABT/ALRzVucjAyTwKwZ8eSxQYz61hS9JSaxHJaUk9zUb5JzSD171JnOaBzyahlIB61Qm5JqrKOBUL9BUTdKhevN6KWlFPWpVp69KeKnX7tPFPFb3grP/AAmWm46+Z/Q19CWa4eQelTxggKF/vVJdjC9eo71hTEbW45rElI/edeTWI2BLTHI5xSLjbTgeCKeOgOOKrzdTVCQ5aoJKhaoW4FQvzXm9FLSipFqRaeKeKnX7tPFPFb/gj/kc9M/66/0NfQ9upDP0HOamhGdo6/NUtwAU5BzXPXCg7sehrGuUAD5561hsAGOevaoj1pVA4GKd/hSgYGOtQTdTVCTjmq78nionzgVE/WoHGK83oopwp69KlWninip1+7TxTxW/4JGfGWmjp+8P8jX0TCvzNxnFSQnMqDPOTU1yP4uc1gzY5zk+9YtzyWHTrisOYBXbHQmomHygUg659qcuCtLkZqtN1NUZTzVdxxUTHpUTVDJXm1FFOFPXpUq1IKcKnX7tPFPFbng+Fp/FdjEpAZ2IBPb5TzX0Tp8LQw+W8nmMoALHvT/s/nP9+RCCcFGIxUtxA5iC+YwYDlqwXWQmQM24dhisq6GMk8elY043Fj6GqzfWg4Cj3pyfSlGCQPeoJhjP1rPlPNQOO9QvUbjpUD15tRRThUi1ItSCnDrU6fdp4p4rovAf/I7aZ/10P/oJr6EtzukfA4DVPEcy9TnJA461LcMSW2gnA59659yVRwVOfasa6clSoXnOM5rGmJWRwfTFVz2oPbjpzUgxjGetKg5yKrTnOfWs+Xkk1BJ6VC1RvxUD9a81ozS04VItSLUgpwqdelPFPFdD4Gz/AMJnpuP75/8AQTX0JaE5erFuN3Xkjpin3bFQV46dRXPylkjz6VjXBO/B6buax7jO9j61E3OOPemjjNPTO3mpFOOKqzjAPtWe/eq8gqJqieq715tiilFOFSLUi1IKcKnX7tPFPFdD4GOPGenEf3z/AOgmvoOyIPmVctmAPHcnpS3ahg3r2B71z8/TkY9cVkXYG4+/rWLcnDHjsKhU7j+FRgj8anj5GM0o469arTdCe9UJOp+tQSCoGNRvzioHrzWigU4VItSLUgpw61Ov3aeKeK6LwL/yOmnZ/vt/6Ca+gLAndLxVu0P7xsjHzHBqS5cDcyjOB1rnpnVsnHasm6IbkjkViS8u3ekA2r74NVz0z3zUsQO0mpAD1z1qpOMZqi3JNV5elQP/AEqJjUD15vRRThUi1ItSCnDrVhfu05aeK6HwN/yOWn/77f8AoJr3+xJG/ryauQtukCKfXI9amulwGH5Vzlxwc49eazLj7hrDZctJ19aZIcYUjpUI5OKehwO/WpBz0qtP1NZ7Y3GoJDxiq79ajbrUD15vRRThUi9KkWpBTh1qdfu09aeK6HwN/wAjlp/+83/oJr36wP8ArCCetWrXi4IHXNT3IGWHB55rAuFG1jwMd/Wsi6ICcnkVkuQGbA7YqGfBbNQKcHNOHfFSIcVVuG6iqD/eNV3NRP1qJqgc15vSUopwqRakWpBTh1qdfu08U8V0PgU48Zaef9pv/QTXvenkBnGM5q5bAi4yfU4qzcNtGePWufvV+XOeTyaxroDLc8VkTnaSo74qGRvnx9ahUE1Io4p+PXpVObnNUXPJqvIeKiJ5/Co3qB684pKKetSLUi1IKcOtTr92nrTxWjoGpjR9ctb5k3LE/wAw9jwf519E6VNHcxCaNgyOAykHqDyDWjDgMS3PzVJcFih56CufuiRH79xisa5bhqyXBMvPrmomGXPFR85xTlOaexO04qnIflqjIOT6VWkHGRURpjY/GoHrziikp4qRelSLUgpw61Ov3aetPFJXsnwm1wXemy6VM2ZrXmPPUxn/AAP8xXpKEg5x3OafK52NjHOeSK5y6JC8jOT19axbolXbA4zxWbI5MikemMUxuh+lQA8/jSocZp7cpwetVJe9Upfaqsn3aj61G/FQv0rzikpacKkWpFqQU4danX7tPWniitvwhrB0TxNZ3e7EZby5f91uD/j+FfRUU29B9e1TOxKZwMnPesK7Py7TjIrGuipQ9M5rLlwJMj1qEtlWqDNPTGae3Q1Ul/iqlJ3qrJ0qP6Ux6gc15xRSjbilqRelSLUgpw61Ov3aeKeKKSvoTwdqf9peF7C6JzJs2Of9peD/ACroHYmPBA/OsS9c4yBx0NYlw25iB71muzfkaY2QmT3qEdvpUg608j5aqzntmqD9agk6VCRimt+lV3rzilpKeKkXpUi1IKcOtWF6U4U8UU09a9c+El95mlXtkx5hmEg9gw/xFek5XYeBjHr1rBmYEHdzx1rGmxndzWdJkgfWo3JIxjtUYPIPtTgc089uaq3GA+Kpy4FVZOlRE5zTT0qB+9ecUUlPFSLUi9akFOHWp1+7T1p9FRscNXffCi52eILuDPEtvnHupH+Ney4xByOO9Ylyh2txx7VjyLlDx3qjIu11HYc1DKOTj0quchRj0pyVMwwuapTckkVVcHnNVZc44qA5FIc1E9ecClpDTh0p61KtSCnDrVhfu05afRUUnUGut+G0uzxnbD+/HIp/75z/AEr3MufIOTisqYlomAYZrFmAXockVSl/1g57VDMMDFViMHFPU9KlONgqnMMZ96qSHvVaQ1CR3prdqhevOKKXtSipF6VIlSCnDrU6/dp4p9FMcZFdP8PFb/hNbH6P/wCgmvdU2mEh3A696oMsfltmVTxxWJOq5HzDk1TkiznbnAPpUE0UgH3G/Kq5jYHlT09KPu7TTyybeXGaqSspP3qpyEA5zUDkZ61A20H7wpjFcD5hULEY6ivOaXvR2pRUi9KkSpBTxU6/dpy0+ikPSul8CRmTxRF/sRu36Y/rXqEwYKnvSp8xHA/KpZE4HA/Kq8gGD0/Kqkp+XoPyqo5+lQyMPQflUbEE9B+VV5DweBULtnFQyE4NU3OaYTUUnSvORS0hpRUi9KkSpBTx1qdfu05afRSV2fw5t92q3VwRxHEFz7k//Wr0acfc4OKEUBqlYjaOKqTVUm6VSeq8hppxVeTofrUBPSo5OlU2600VDJXnQpaaTzTlqRelSJUq04danX7tOWn0UleofDmyMeiXFyRzPLgE+i//AF811so24Geh60EdDweKHUhAaqTA4NVJapPn5qruOBTW4NQP3qGmTdKovTB0qKQ8ivOhQelJThUgqVakFOHWp1+7T1p1FCqWYKoyScAV7noNj/ZeiWtrnlE+bP8AePJ/WrcuSRn60D7g7UrDOPT0qrMvGaoTcVTbmoHAwKa9V36mq5pk3SqL1Hnion6154tKelNpRUq1KlSCnDrU6/dp606krofBmlHU9fiLLmG3/ev+HQfnXs8SYhANQS5GM/SgAcU5l+Xg1VnHykCs6ZeaoSdcVHIPlFRv1FQPx9arNTZfu1Qk5PFMC0x15rzpaVulNpRUq9KlSpB0pw61Ov3aetOpK9g8F6EdI0VHlXFxcgSOCOQOw/L+ddYoHlEZ57VWlxwMcZpW4K+g9KkYBUyOtUphkVSnXArOlX5qikHy1A/J4qu461A+MVFJzVdlyDUZGBUTV5ytDdKbSipV6VKlP7U9etTr92nLT63/AAXp8Gp+KLWG5G6JT5hX+9joK9rkGXGOO1PC4UDH196rXChWGetPGDJTpODVK4xjNUpeRVCYfPxUEn3RVdhVeTvULL8pJqB6hPQ1CelRNX//2Q==;" parent="1" vertex="1">
          <mxGeometry x="200" y="637" width="70" height="70" as="geometry" />
        </mxCell>
        <mxCell id="N5dqXRdmgYXJIpE3f9MQ-1" value="" style="shape=image;verticalLabelPosition=bottom;labelBackgroundColor=default;verticalAlign=top;aspect=fixed;imageAspect=0;image=data:image/png,iVBORw0KGgoAAAANSUhEUgAABPQAAAJaCAYAAACofxnLAAAAAXNSR0IArs4c6QAAAARnQU1BAACxjwv8YQUAAAAJcEhZcwAAEnQAABJ0Ad5mH3gAAIQJSURBVHhe7d1vaFx5oub3SwhhQxKyhMAmr7JvAvtqWaI3qxdeBCZmm+CwYJFcF2lo0YERhhFrMqKXUZqlxYBRJ40wrPALr3zpKMO2MMyVXzTy0vguTdSsURMcNTRXDYNMDMXFRGAoMEuB4ZfzqzpVKpWec+qcU6fKfs58P/Dl3nHbKrmqTv15XKr6swAAAAAAAADABoMeAAAAAAAAYIRBDwAAAAAAADDCoAcAAAAAAAAYYdADAAAAAAAAjDDoAQAAAAAAAEYY9AAAAAAAAAAjDHoAAAAAAACAEQY9AAAAAAAAwAiDHgAAAAAAAGCEQQ8AAAAAAAAwModB7yRsLyyEhaTtF+kvfahebPe+z4WFtXDwOv21PyXvzsPx1xth5aPF/vlw7UbY/Sn9b2iMk/v943Hh1wfhPP01AAAAAADgg0Fv1J/yoPeuHQ7upkPeSB/8ZYbSGPQAAAAAAPBWbtB7cxaOHm+F9Y9b4ca1weizGG7cboX1+wfhRI5gDHoO2o9X+n/3a2th/+dO+qvTOX10M/marbD/Mv2F6PwwrMXT+eo4/YWCOqdhPw6O90/SX7jq/MlaevmVKGvUetcN7ef7Yes3I9f168th9fO9cFz3deP1Qf88KVX16yiDHgAAAAAA3ooNevFHMR+uhqUro8J4a+HwykLAoPfhOw27N/uX0crjdvpr0zoPh3fj19wOx+/SX4p+7J/Ha98Wn5LOn++G1ev976/uQW/xy+PQTf/80Nvk/Pj06qsVL1oK69/WdT4lqgx617bC8ZVvvBgGPQAAAAAAvBUY9Lrh5P7ycEhYurMdDr4/CWevO6HzphPOX56Eoyc7YeN2HEDUEMag98EbvGpuYTHs1PWeee+O+5f73cNLo9HZN63kdG6G3V/SX8jReXkUdu8spZdJWs6gF7r96+Skzl/shOXe1xOX87vTsHsrPa3rq2H3+7Nwng5n3VcnYf+LwbGwnFyfKy5q49515fd5pfOTsPM/9L+3tSfVpzgGPQAAAAAAvE0e9H7eDTd7A8ZiWPvm7OqrmUa0n+6FZwx6foavEKvx7/1yP7SSr3nz0Wn6C1EnPPttPJ2tcJRzRTr/YSdsfDIy5F1vhVb6CsLcQa+Q+D30X323fOl76xv90eMD+SK8kYH71m44HX314Yx1vtsIizWcLoMeAAAAAADeJg56/fdBiwPHdjipNCIw6H3wZjDonX/b//HX7R/TX+g5CTvx/eh+dRDyfmB1ODgtLIWVewfhtNMOB79Of23aQe+X3f6r865thGdv0l8bKvijx2+PwlbvffUW53edHr5ycDFsfDfdexwy6AEAAAAA4G3ioDd88v/xfjhLf60cBr0P3gwGveOv+l/v0nsqtg/CanI6iw/yR7mTh8tjH7JyXtOgd/F11KvzBt/flQ/yuKIbju71v87lVyDOzvD9AWt4VSCDHgAAAAAA3oq/Qq/y2HN10Ov8chi2Rz49dPGj+Cm5h+F00guPXp+Gw96n7C5ffEBH75NHd8LhLwVetfTuPJw82Q7rt2/0f3QxaenWatj4+jicx5Gk4KDXbR+H/XvrofXR4IMTlsLynY2w9/1Z6OSNLb3T3wkbd0a+/2s3Qiv+2R/auT/OPEl8v7m9z1dHvqf0fL23H45eqvNmZCTLqvDgc/HKtvIVeT+9ega9bnL59n58XL46L1Fi0G3/YbX/e/POo3edcPb92Cfl9j4VOl7njkK76AXeTY6h3vlb8NV5r0/CwX1x/Xze/04Z9AAAAAAA8Db5PfRe7YeV3iiwEBY/3Q0npX/a7/Kg136ynv1pudfXw2HGTzqe/b41HOF0+Z882v3jflgffFKqaPH2Tjj5ftKg0w2nX+d/2u/i3f1w9jb97aPah7mnX3lceXsW9j8b++CIKy2G1ldH/dFyqMZBr3MSDh7shJ1BX671h7NPNi5+LWnjk/h1b4a1L0d+74PDcDpx2Kpj0OuEw8/6X+Pmw4xX1f0yeL/ISa/QGxn0riXXm/TXRk26vpUZyDtP1/t/5uakV+d1w9njnOMrXg8enIQjBj0AAAAAAKxNHvQS7SdrF2PatVbYfHKa/0q0Sy4Gvc2v4iuklsL61yehPRi93rbDyaOLr7/422dBbYa9VxUlpx1f2XT2+mIB6r46CluDTyXNeuVV+yCsDV4hdWsz7L9oh87gS7w9D6dPNkMr+e+L1wavaNJjy+nXg1FxOWw+Hvk7dM/D2fc7YSU9jZtfHV9+td3IJ6cufroTjl+NfP+d5M8+3w9b9y5/Gmwh3ZOwM/y7J5dL/J6Gf7F43pyE/d9dDKHL90/0qwDr/pHbn3Z6p9n6ZvSHtM/D4d34feoBLF8Ng97ww13Ww6G6jkTd5LrU+z0T3kNvZBxcWNi+8vfpvtjpXZ96//3Weu+Vm4NPyu19om1yuRzc3w6HRc7reN1JX/24/jR/TR89Tpe/2A8nrzqhmx6n3den4aB3XVhMrufp98agBwAAAACApUKDXtR+2h+9+iNG0vWVsPX4ZOxVX8rFoBdfnbX9XI0S8ZNDBz/auxGeid9y8u1+9o/kvrx4FeHVH0m8+FTThVvb4US9ei56tZ+OWjExbA0+TGFhOWy/kLNYbzTq/56VsP8q/bUoHbhyx6QKTh+ln7YaP5F19PTGXAw9y/rHW2se9PqvXlsMOz+lvxC9O+5fDzIG23zTDnrxPe/614HFL8fG1ku64fjL9LqS+Sm3l4ezK4PeyMia+WrNEro/bPVP69pWOM7+xkN48yxspMdn5nCbaD9O34svxqAHAAAAAIClwoNeT2fwKp90EIhdXw273+e9/9vIoPfZYfaY83I/tNLfV/7DM87C/sf9P3vlAxeGPzJ8M3uIS50+zHq/wIuh52bOWDI6PF16ddrwvdn0WFlJ9zj9pNWFsPZkwizzLjl/ej/umpw/ahCrddAbfGDE2N81vXwvv2qvqCkHveF1IGPQHDX6as7eqx6Pw9nrTui86YTzl8fDVzyufLLS/z1jg97wx2OzXi1aSnt4uckP8RjRfpx+PzeT7yfvaj7yij8GPQAAAAAAPJUb9AZeX/5RztjSZ1mvRroY9Na+zZkPBq/gSio/6GUPPuffpq9Iiu8/lv5apqwPRRh+b4sTv7fhBw58dZz+SuLNYVjv/fn4o5CH4Sx/Vyzmx3Ij4dk3rf7vV+fDVIPeeTj6evQ98bbCWhyMbqyGreGvJX3eH5xavx35taRnOa8svDDdoDccaj/ZD3k/SDvQ/Xl3+OPTqqXPDkN7cP5fOj/jq0H7v0cOp2UNf0x47BWfV6Q/zpz83iKfusuHYgAAAAAA4K3aoDfw+jjs3rn4QIbFuwehfeVHcC9/KEa2Yr+v22mH0+fH4fBxHITiJ962Ln2y6/jgMxwvivyoZ9agNxy8SjQ2llx+H8IbYe3+QTiWnz5bzHny9Xpf6+P9UOg1b8O/29X3fJtq0Bt537nyFX3F4hSD3rvkepWOc5Peg+6Szlk4+nojrN4aXL/jp9Ouh+2n/fePHJ7/d0ff+/DiOlzo02gnOLmfXq/zXtnaU+50GfQAAAAAAPA23aDX0w1n31yMVVc/TKCeQa/z037YuD0y3GWVNegVGYJmOOhFnV8OwtYnlz+RdvH2Rtj7sfysMhyUio4yWX+3qM4fuU1fuXb51Zjpj0RX+kCMqPqg132evgddnT/unDh5kP4I9qVXxBW9rhcw8iPVk0e6cqfLoAcAAAAAgLcaBr1oZHC58oqx6Qe97ovt9MMmFsLSJxth+/FhOH5+GtpvOqHT+zHf7MFnOF6M/ghslomDXg2DV6Lbjp9yuhZuDH+sczGsPDrNeW++qz6YV+iN6f9o783L71XXeRY24te/d1Tq73ih6qA3eD+/aU5buXjPxq0fRr/qyHX4x/SXKoofhtG/vLbC0cRvvNzpMugBAAAAAOCtpkFv5D3argxG0w56F2/iv/Iwa/TKHnxOH6Xvn1Zg+Op8t9H/vePD1siPlU471Fzyrh0Ov0g/qXbi+6RdVm7wCeknz2acD7UNeoP3kBv7ntJX7a3+ocg72CkVB72Ry62OH4EdGry33ZVPnr0Y+qp9+MfAyBBZ6FOBL46Ryad78T5/DHoAAAAAAHiqbdA7/iodCa586MKUg95wbGqF/Zfpr40b/eTOscHnYvhayf7zPZ1w+Fn6Na4MWxeD0uKXxzW+0isx8mEguR8aMm7kgzYmvjfcyKfcyg9NqGvQG7xf3aX3lRuMvYth56f0F0qrNujN5Mdt37XDwd30x20fXj0vhx/AEY+DK+8nWVCpH7eNRgbAT/bDWd7pjlxvGPQAAAAAAPA0YdA7D4f3d8Nxe8KE1T4Ia+kAcXXwqmvQy/6E2UsfODE++IyMI/pDO/oufQ0xbHWerqf/bTls/5gzssRX3X39rPhQMjLoXf7xzUm64eR+Oh5dS77fnFf3Df9uye87VINdXYPey/3QSr7O5dEw41V7pVQb9IYfKvGr5HJPf20q7zrh+H76ispryd9Hfarzq/2w0jsvF8Ly/ePeB2iU9mI7vS6uhoOC3/jFeLkY1p5k/KGRMbIXgx4AAAAAAJYmDnqDIWX43nUvzsJ5fO+6N+fh7MXR5feCk4PRlINeOAt7t9Kvf2szHPx8HrrpSNI9Pw2HX62ExWsrYSX9UUc1+Jx/ezHWLX66E45ejn6Ns3D0cDUsLSyGrXub/a+hhq1LY8hSWH14FM5eXyxU8dN3T55sh9XryX8fG0rOv91IP9X2PHRGRq142odfThiI8rxNzrPBeXOtFTYfn4T2yAl0X52E/d+1Jg89NQ16gx9ZHn9fuZ14/ZhqVKsy6F38+Kt8VWKW14dh6/O9cPhzO31/xkS3E9ovDsL28BOdl5PraPY6OToOL93ZvXR9C++64fzlcXLcbOtxNTH88fUrr3bNcx4Oh9fPxbDyILl+nqffY+80j/qfSJ1cz7a+6H9vDHoAAAAAAHgqPOhNavH2ZjiUrxKbdtALlz4U40rXWmHnxdmEwacbTh+tDEeWqy2GtW/OeqfT/98Zw9bb07D76cgrnGSLYeXry+/1N/wAi6yurYTdn7MHolznR2F70qf/xrHvac6cVtcr9GamwqA3+CCOpFLvnzc8LzK6vhr2Jl5W3XD2eD0sqT8/LOu8HnmPu0Lvnzdi0vXz2lrY/2N8ZWf6vxn0AAAAAACwNPk99N51wtnzg7B3bz20Pl4eGSkWw43brbB+by8cvGhfvALpiukHvZ7Xx2Hv89WwHF8BF3/f9eWw+vleOO6NIsUGn84vh2FHfI2jl+lsMmnQi951Q/v5ftj6TevSp9TeuL0aNh4chBP15+IrCR9vhfVL599SWP54PWw9PgpnpVYbIV5G3/e/p+Hfrfc9Ffz6TRz0ftpJB9yxT9ydpNsOR+OX1bUboXVnI+w8PS33I7SvT8LBg42wemvwyr6FsPhRK7nO7eQcM+krGpPfW+qVhQPJdeH06U7YuHPx/S/dSq6bX19cDxj0AAAAAADwVtuHYgAAAAAAAACYPQY9AAAAAAAAwAiDHgAAAAAAAGCEQQ8AAAAAAAAwwqAHAAAAAAAAGGHQAwAAAAAAAIww6AEAAAAAAABGGPQAAAAAAAAAIwx6AAAAAAAAgBEGPQAAAAAAAMAIgx4AAAAAAABghEEPAAAAAAAAMMKgBwAAAAAAABhh0AMAAAAAAACMMOgBAAAAAAAARhj0AAAAAAAAACMMegAAAAAAAIARBj0AAAAAAADACIMeAAAAAAAAYIRBDwAAAAAAADDCoAcAAAAAAAAYYdADAAAAAAAAjDDoAQAAAAAAAEYY9AAAAAAAAAAjuYPe3/mXn5Nx//n//k/JvP/sf/2fybi//ev/kcz7Tz7+78i4/+i//0dk3n/4j/4bMu4/+Pv/NZn37/9X/yUZ9+/9p/8xmfdnf/ZnZNysMeg1ODUQkVdqJCKf1EBEXqmRiHxSAxF5pUYi8kkNROSVGonIJzUQkVdqJCKfZo1Br8GpgYi8UiMR+aQGIvJKjUTkkxqIyCs1EpFPaiAir9RIRD6pgYi8UiMR+TRrDHoNTg1E5JUaicgnNRCRV2okIp/UQEReqZGIfFIDEXmlRiLySQ1E5JUaicinWWPQa3BqICKv1EhEPqmBiLxSIxH5pAYi8kqNROSTGojIKzUSkU9qICKv1EhEPs0ag16DUwMReaVGIvJJDUTklRqJyCc1EJFXaiQin9RARF6pkYh8UgMReaVGIvJp1hj0GpwaiMgrNRKRT2ogIq/USEQ+qYGIvFIjEfmkBiLySo1E5JMaiMgrNRKRT7PGoNfg1EBEXqmRiHxSAxF5pUYi8kkNROSVGonIJzUQkVdqJCKf1EBEXqmRiHyaNQa9BqcGIvJKjUTkkxqIyCs1EpFPaiAir9RIRD6pgYi8UiMR+aQGIvJKjUTk06wx6DU4NRCRV2okIp/UQEReqZGIfFIDEXmlRiLySQ1E5JUaicgnNRCRV2okIp9mjUGvwamBiLxSIxH5pAYi8kqNROSTGojIKzUSkU9qICKv1EhEPqmBiLxSIxH5NGsMeg1ODUTklRqJyCc1EJFXaiQin9RARF6pkYh8UgMReaVGIvJJDUTklRqJyKdZY9BrcGogIq/USEQ+qYGIvFIjEfmkBiLySo1E5JMaiMgrNRKRT2ogIq/USEQ+zRqDXoNTAxF5pUYi8kkNROSVGonIJzUQkVdqJCKf1EBEXqmRiHxSAxF5pUYi8mnWGPQanBqIyCs1EpFPaiAir9RIRD6pgYi8UiMR+aQGIvJKjUTkkxqIyCs1EpFPs8ag1+DUQEReqZGIfFIDEXmlRiLySQ1E5JUaicgnNRCRV2okIp/UQEReqZGIfJo1Br0GpwYi8kqNROSTGojIKzUSkU9qICKv1EhEPqmBiLxSIxH5pAYi8kqNROTTrDHoNTg1EJFXaiQin9RARF6pkYh8UgMReaVGIvJJDUTklRqJyCc1EJFXaiQin2aNQa/BqYGIvFIjEfmkBiLySo1E5JMaiMgrNRKRT2ogIq/USEQ+qYGIvFIjEfk0awx6DU4NROSVGonIJzUQkVdqJCKf1EBEXqmRiHxSAxF5pUYi8kkNROSVGonIp1lj0GtwaiAir9RIRD6pgYi8UiMR+aQGIvJKjUTkkxqIyCs1EpFPaiAir9RIRD7NGoNeg1MDEXmlRiLySQ1E5JUaicgnNRCRV2okIp/UQEReqZGIfFIDEXmlRiLyadYY9BqcGojIKzUSkU9qICKv1EhEPqmBiLxSIxH5pAYi8kqNROSTGojIKzUSkU+zxqDX4NRARF6pkYh8UgMReaVGIvJJDUTklRqJyCc1EJFXaiQin9RARF6pkYh8mjUGvQanBiLySo1E5JMaiMgrNRKRT2ogIq/USEQ+qYGIvFIjEfmkBiLySo1E5NOsMeg1ODUQkVdqJCKf1EBEXqmRiHxSAxF5pUYi8kkNROSVGonIJzUQkVdqJCKfZo1Br8GpgYi8UiMR+aQGIvJKjUTkkxqIyCs1EpFPaiAir9RIRD6pgYi8UiMR+TRrDHoNTg1E5JUaicgnNRCRV2okIp/UQEReqZGIfFIDEXmlRiLySQ1E5JUaicinWWPQa3BqICKv1EhEPqmBiLxSIxH5pAYi8kqNROSTGojIKzUSkU9qICKv1EhEPs0ag16DUwMReaVGIvJJDUTklRqJyCc1EJFXaiQin9RARF6pkYh8UgMReaVGIvJp1hj0GpwaiMgrNRKRT2ogIq/USEQ+qYGIvFIjEfmkBiLySo1E5JMaiMgrNRKRT7PGoNfg1EBEXqmRiHxSAxF5pUYi8kkNROSVGonIJzUQkVdqJCKf1EBEXqmRiHyaNQa9BqcGIvJKjUTkkxqIyCs1EpFPaiAir9RIRD6pgYi8UiMR+aQGIvJKjUTk06wx6DU4NRCRV2okIp/UQEReqZGIfFIDEXmlRiLySQ1E5JUaicgnNRCRV2okIp9mjUGvwamBiLxSIxH5pAYi8kqNROSTGojIKzUSkU9qICKv1EhEPqmBiLxSIxH5NGsMeg1ODUTklRqJyCc1EJFXaiQin9RARF6pkYh8UgMReaVGIvJJDUTklRqJyKdZY9BrcGogIq/USEQ+qYGIvFIjEfmkBiLySo1E5JMaiMgrNRKRT2ogIq/USEQ+zRqDXoNTAxF5pUYi8kkNROSVGonIJzUQkVdqJCKf1EBEXqmRiHxSAxF5pUYi8mnWGPQanBqIyCs1EpFPaiAir9RIRD6pgYi8UiMR+aQGIvJKjUTkkxqIyCs1EpFPs8ag1+DUQEReqZGIfFIDEXmlRiLySQ1E5JUaicgnNRCRV2okIp/UQEReqZGIfJo1Br0GpwYi8kqNROSTGojIKzUSkU9qICKv1EhEPqmBiLxSIxH5pAYi8kqNROTTrDHoNTg1EJFXaiQin9RARF6pkYh8UgMReaVGIvJJDUTklRqJyCc1EJFXaiQin2aNQa/BqYGIvFIjEfmkBiLySo1E5JMaiMgrNRKRT2ogIq/USEQ+qYGIvFIjEfk0awx6DU4NROSVGonIJzUQkVdqJCKf1EBEXqmRiHxSAxF5pUYi8kkNROSVGonIp1lj0GtwaiAir9RIRD6pgYi8UiMR+aQGIvJKjUTkkxqIyCs1EpFPaiAir9RIRD7NGoNeg1MDEXmlRiLySQ1E5JUaicgnNRCRV2okIp/UQEReqZGIfFIDEXmlRiLyadYY9BqcGojIKzUSkU9qICKv1EhEPqmBiLxSIxH5pAYi8kqNROSTGojIKzUSkU+zxqDX4NRARF6pkYh8UgMReaVGIvJJDUTklRqJyCc1EJFXaiQin9RARF6pkYh8mjUGvQanBiLySo1E5JMaiMgrNRKRT2ogIq/USEQ+qYGIvFIjEfmkBiLySo1E5NOsMeg1ODUQkVdqJCKf1EBEXqmRiHxSAxF5pUYi8kkNROSVGonIJzUQkVdqJCKfZo1Br8GpgYi8UiMR+aQGIvJKjUTkkxqIyCs1EpFPaiAir9RIRD6pgYi8UiMR+TRrDHoNTg1E5JUaicgnNRCRV2okIp/UQEReqZGIfFIDEXmlRiLySQ1E5JUaicinWWPQa3BqICKv1EhEPqmBiLxSIxH5pAYi8kqNROSTGojIKzUSkU9qICKv1EhEPs0ag16DUwMReaVGIvJJDUTklRqJyCc1EJFXaiQin9RARF6pkYh8UgMReaVGIvJp1hj0GpwaiMgrNRKRT2ogIq/USEQ+qYGIvFIjEfmkBiLySo1E5JMaiMgrNRKRT7PGoNfg1EBEXqmRiHxSAxF5pUYi8kkNROSVGonIJzUQkVdqJCKf1EBEXqmRiHyaNQa9BqcGIvJKjUTkkxqIyCs1EpFPaiAir9RIRD6pgYi8UiMR+aQGIvJKjUTk06wx6DU4NRCRV2okIp/UQEReqZGIfFIDEXmlRiLySQ1E5JUaicgnNRCRV2okIp9mjUGvwamBiLxSIxH5pAYi8kqNROSTGojIKzUSkU9qICKv1EhEPqmBiLxSIxH5NGsMeg1ODUTklRqJyCc1EJFXaiQin9RARF6pkYh8UgMReaVGIvJJDUTklRqJyKdZY9BrcGogIq/USEQ+qYGIvFIjEfmkBiLySo1E5JMaiMgrNRKRT2ogIq/USEQ+zRqDXoNTAxF5pUYi8kkNROSVGonIJzUQkVdqJCKf1EBEXqmRiHxSAxF5pUYi8mnWGPQanBqIyCs1EpFPaiAir9RIRD6pgYi8UiMR+aQGIvJKjUTkkxqIyCs1EpFPs8ag1+DUQEReqZGIfFIDEXmlRiLySQ1E5JUaicgnNRCRV2okIp/UQEReqZGIfJo1Br0GpwYi8kqNROSTGojIKzUSkU9qICKv1EhEPqmBiLxSIxH5pAYi8kqNROTTrDHoNTg1EJFXaiQin9RARF6pkYh8UgMReaVGIvJJDUTklRqJyCc1EJFXaiQin2aNQa/BqYGIvFIjEfmkBiLySo1E5JMaiMgrNRKRT2ogIq/USEQ+qYGIvFIjEfk0awx6DU4NROSVGonIJzUQkVdqJCKf1EBEXqmRiHxSAxF5pUYi8kkNROSVGonIp1lj0GtwaiAir9RIRD6pgYi8UiMR+aQGIvJKjUTkkxqIyCs1EpFPaiAir9RIRD7NGoNeg1MDEXmlRiLySQ1E5JUaicgnNRCRV2okIp/UQEReqZGIfFIDEXmlRiLyadYY9BqcGojIKzUSkU9qICKv1EhEPqmBiLxSIxH5pAYi8kqNROSTGojIKzUSkU+zxqDX4NRARF6pkYh8UgMReaVGIvJJDUTklRqJyCc1EJFXaiQin9RARF6pkYh8mjUGvQanBiLySo1E5JMaiMgrNRKRT2ogIq/USEQ+qYGIvFIjEfmkBiLySo1E5NOsMeg1ODUQkVdqJCKf1EBEXqmRiHxSAxF5pUYi8kkNROSVGonIJzUQkVdqJCKfZo1Br8GpgYi8UiMR+aQGIvJKjUTkkxqIyCs1EpFPaiAir9RIRD6pgYi8UiMR+TRrDHoNTg1E5JUaicgnNRCRV2okIp/UQEReqZGIfFIDEXmlRiLySQ1E5JUaicinWWPQa3BqICKv1EhEPqmBiLxSIxH5pAYi8kqNROSTGojIKzUSkU9qICKv1EhEPs0ag16DUwMReaVGIvJJDUTklRqJyCc1EJFXaiQin9RARF6pkYh8UgMReaVGIvJp1hj0GpwaiMgrNRKRT2ogIq/USEQ+qYGIvFIjEfmkBiLySo1E5JMaiMgrNRKRT7PGoNfg1EBEXqmRiHxSAxF5pUYi8kkNROSVGonIJzUQkVdqJCKf1EBEXqmRiHyaNQa9BqcGIvJKjUTkkxqIyCs1EpFPaiAir9RIRD6pgYi8UiMR+aQGIvJKjUTk06wx6DU4NRCRV2okIp/UQEReqZGIfFIDEXmlRiLySQ1E5JUaicgnNRCRV2okIp9mjUGvwamBiLxSIxH5pAYi8kqNROSTGojIKzUSkU9qICKv1EhEPqmBiLxSIxH5NGsMeg1ODUTklRqJyCc1EJFXaiQin9RARF6pkYh8UgMReaVGIvJJDUTklRqJyKdZY9BrcGogIq/USEQ+qYGIvFIjEfmkBiLySo1E5JMaiMgrNRKRT2ogIq/USEQ+zRqDXoNTAxF5pUYi8kkNROSVGonIJzUQkVdqJCKf1EBEXqmRiHxSAxF5pUYi8mnWGPQanBqIyCs1EpFPaiAir9RIRD6pgYi8UiMR+aQGIvJKjUTkkxqIyCs1EpFPs8ag1+DUQEReqZGIfFIDEXmlRiLySQ1E5JUaicgnNRCRV2okIp/UQEReqZGIfJo1Br0GpwYi8kqNROSTGojIKzUSkU9qICKv1EhEPqmBiLxSIxH5pAYi8kqNROTTrDHoNTg1EJFXaiQin9RARF6pkYh8UgMReaVGIvJJDUTklRqJyCc1EJFXaiQin2aNQa/BqYGIvFIjEfmkBiLySo1E5JMaiMgrNRKRT2ogIq/USEQ+qYGIvFIjEfk0awx6DU4NROSVGonIJzUQkVdqJCKf1EBEXqmRiHxSAxF5pUYi8kkNROSVGonIp1lj0GtwaiAir9RIRD6pgYi8UiMR+aQGIvJKjUTkkxqIyCs1EpFPaiAir9RIRD7NGoNeg1MDEXmlRiLySQ1E5JUaicgnNRCRV2okIp/UQEReqZGIfFIDEXmlRiLyadYY9BqcGojIKzUSkU9qICKv1EhEPqmBiLxSIxH5pAYi8kqNROSTGojIKzUSkU+zxqDX4NRARF6pkYh8UgMReaVGIvJJDUTklRqJyCc1EJFXaiQin9RARF6pkYh8mjUGvQanBiLySo1E5JMaiMgrNRKRT2ogIq/USEQ+qYGIvFIjEfmkBiLySo1E5NOsMeg1ODUQkVdqJCKf1EBEXqmRiHxSAxF5pUYi8kkNROSVGonIJzUQkVdqJCKfZo1Br8GpgYi8UiMR+aQGIvJKjUTkkxqIyCs1EpFPaiAir9RIRD6pgYi8UiMR+TRrDHoNTg1E5JUaicgnNRCRV2okIp/UQEReqZGIfFIDEXmlRiLySQ1E5JUaicinWWPQa3BqICKv1EhEPqmBiLxSIxH5pAYi8kqNROSTGojIKzUSkU9qICKv1EhEPs0ag16DUwMReaVGIvJJDUTklRqJyCc1EJFXaiQin9RARF6pkYh8UgMReaVGIvJp1hj0GpwaiMgrNRKRT2ogIq/USEQ+qYGIvFIjEfmkBiLySo1E5JMaiMgrNRKRT7PGoNfg1EBEXqmRiHxSAxF5pUYi8kkNROSVGonIJzUQkVdqJCKf1EBEXqmRiHyaNQa9BqcGIvJKjUTkkxqIyCs1EpFPaiAir9RIRD6pgYi8UiMR+aQGIvJKjUTk06wx6DU4NRCRV2okIp/UQEReqZGIfFIDEXmlRiLySQ1E5JUaicgnNRCRV2okIp9mjUGvwamBiLxSIxH5pAYi8kqNROSTGojIKzUSkU9qICKv1EhEPqmBiLxSIxH5NGsMeg1ODUTklRqJyCc1EJFXaiQin9RARF6pkYh8UgMReaVGIvJJDUTklRqJyKdZY9BrcGogIq/USEQ+qYGIvFIjEfmkBiLySo1E5JMaiMgrNRKRT2ogIq/USEQ+zRqDXoNTAxF5pUYi8kkNROSVGonIJzUQkVdqJCKf1EBEXqmRiHxSAxF5pUYi8mnWGPQanBqIyCs1EpFPaiAir9RIRD6pgYi8UiMR+aQGIvJKjUTkkxqIyCs1EpFPs8ag1+DUQEReqZGIfFIDEXmlRiLySQ1E5JUaicgnNRCRV2okIp/UQEReqZGIfJo1Br0GpwYi8kqNROSTGojIKzUSkU9qICKv1EhEPqmBiLxSIxH5pAYi8kqNROTTrM3+FAAAAAAAAADUhkEPAAAAAAAAMMKgBwAAAAAAABhh0AMAAAAAAACMMOgBAAAAAAAARhj0AAAAAAAAACMMegAAAAAAAIARBj0AAAAAAADACIMeAAAAAAAAYGQGg95Z2Lu1Fg7Pk//33UnYvr4TTvr/ASY6f7UZlh70L7XzJ2th7dt4YcIHx6A7jkF3HIPuOAbdcQy64xh0xzHojmPQHcfgn4oZDHrJFWZhIzzrJP/v64OwtrA9+crz5iwcP9kJG5/eCIv3J/zuF9thYWEht7UnOTc4r4/D7m+Ww1Lv9y6F5d/shuPX6X+rxXk4+PXV7+lyBc6TEScPl9I/txYOav1etXijffPRae//P7k/4fyM3nVD++fDsH9vPSxfr/Y9nn+7Fhbj3/HXB8k5mOPtWTi8H0+nf14u3VoP20/PQjf9z7WY9jqWfI8H91bCjWvx98br2HY4epX+t7mY8TE40DkVl8Vp6LxL//sl9R8Xpbw7DydPtsP67eTv1zutxXDjzn5yVzdB9yTs3Op/f9sv0l+bg7kdg1NeVzsvj8Le56vD68DC9eWw/UO84hVwfhjWB5e9us71rrvpf7/Sev8ByiXv+Tp2SYVjsKbbjUn3F/H6dPV86bf0sNy5U/a+Kft2/jwcfjb4PuZ1GeUrfQwmzn/cDeu3+ufJ4kcrYePxydXbw59208cfxb7mRLO8jYq3Ky8Owl5yu9L6aLF/+STH+PrDo9B+m/6eD9acjsF3nXD6ZCuspOdPvNy3nmTdD6aS+9ujx9th487gsWhyf/TpVtj/qYbrw7iqp1Xq/n02ZnYMZinzOGGe50+F06rzdr6693A/WOb2sMrj3oHkunL88OIyiS1+1AqtOzvhWD0EqnJaVW5bajavY/D8+V7/vInn5bUbYeXzvULPzac53ju/HIStwWn2Sq5vH7fC+rft9HdcNtVty3szv2Ow0vnT1NN6D+of9JInacMrzMv90MobaJL/vv6rjbD1+DCcvkoeOCY3HPKJ3ag/7oXl3z4L6vYyOn10M/sGp51cma8th82RG8Tu6+TBzqPNsPuirkmoE559sRx2f0n/57jOs7BR6QlLPCjnM+idPFhMz8NuOLqXd6fYCUf/YjWsf7ETDp6fhfPucbXv8U1ynlzfCkffb+cPem+T8+D2Wtj/+Tx0BwdT9zycfrMWWsn1prZRb5rrWPwe72yGw9EbifOjsP3JZnj2Jv3fszbrYzBqH4b15IndZnLD1k7P+G77JOx9ltxIystiVsfFZN2f98Jq8kBr4+ujcPa63LXk9NFyWPnmqDcUzXPQm8sxOM119V07PPtdK3mysx0OXrRDZ4qDLz5gzB70ylwn3t917Ioyx2BU++1G9v1F0QflxWWf1iVFbudLX+azU/wY7Gs/WQ+rj0Yf6HXD2eP1sJI+GRpX1+Uwu9uo5Lbld0uh9bv9cPKqc3Gf+7Ydjh+shMVbyeX0IY96czkGu8nluBwWP02exA/vCDuh/WI/bH15GNrqQf/LvdC6vhp2v09urwfn37tuOP/5IGzeitc5/WSykqqnVfr+fTZmfQyOKvU4YZ7nT8XTqv92voL3cD9Y6Paw6uPeoeSxxm8Xw/KXR8PLJFPl06pw2zIDsz8Gk7/ng1ZYSv6eRy/TZ13vOuHs6XZy25U8rsi5OZzmeA+/7Ibla/H5ZNYzvcumOq33aU7HYKXzp6mn9Z7UP+jFB+Qfp/+iFV/pdPcw/8ozIvOJXWFnYf/jVth/mf7PS+KTvaWw8Z06eLvh+OFeOB1eYLPT/WErLNw7Sk6xrOTKOK9BL3kgsPVD/A7jK14Ww85P/V+frMr3GO8k0sslXl9ybmzOvl4O60/V5dcJh58th70/pv9zpvKuY/EOeCW5wxOXbnJDulrpcq9g5sdgfDCzpJ8MvGv3rjNbz8v9TasfF/m6yd9/+dZWOCp6BoxKLrOVW7vJ7UL/lV/1PlnON/tjcIrraryM7yaX/zf1vDK2vkEv36yuY1KpY3AWtxvZ14P3M+gVvJ3/kAa9Msdg/L7l3yn+vVfl/UUtl8N7u41KHjN9dTOsPK5xfKrbPI7B+I9/vfM//d+jXh2EHfl4M0fvH523wnH5A768zNOq//69qlkfgwPlHifM8/ypflr1385XMO/7wYq3h6Wfe6YjyXGF54yFT6vu25aKZn4MxmEt4x+Huj9uh5uf7Ad5LzPF8R7FoXL1DwXvv6Y8rfdqHsdgpfOnqaf1/tQ/6I08WO98t1HqRnLqQS+5YFo3kxvA9H9eFp90JHfY8lLrn/bsH6TEK8FCxqg4SZWxrIrRO8LTsHuzzGmW/x67P+2E1uAGZuS6c1X8vlYz/7Wm/YfV+Tx4ybuOxVcADW44r0gefP1qJeyP/uvArMz6GEwezKxfS+6AMx7MlD+OpzkucnST6+Otjdx/fcl2Hg7vtpIHL/E2odyDw+nN4Ric4roaL9/lGv91KvP6Eu9Maxt3ZnQdy1LmGJzJ7Ub29aD+J3qTr3OFb+drvcynUe4YjK/a7j/pEZInJYtfHl95wDj95fA+b6MSyd+r3O38nM3hGIy3Xa1v9J/qHRdZT0YzxdMqc3s/jYzTqv3+varZH4M9ZR8nzPP8meK0PohBb673g9VvD0tfZlPcTxU9rfj76r1tqWIO94MP42CddT3NfmxR+XhPlTk+pj2t92oOx2Cl86epp/Ue1T/oJX/Jha+Oe/9vvEEa/Ox9EaVvVMe0H6/knF68Ycgf9BbTN/68Ir5XwtcbYTX9Gere+2rc7r+HxVmZv2P3OGxdS3+WPcOl9xGIP+N9Z/BeJ9k3bPWKV+7BcBZPM//7vazk9/guuYO4lRxIg5U774le718qB/9SNG7yk/XOL4dh+zet9Gfnk64vh9XeezQch50Jl8mo3OtY/P5zrr/xDmQug8J7PAajOK5mHktKgeOiyjHYebpe+RUk8Y5vafivNvN+sjyHY7DqdbV3zFZ4BcnYewDF95oZvA9X5nWuznGnyHWsTmWOwSluN6rcX1R9olf5vqnM7fzIZd6/zR5936+NsPe8/PddTZljMN4+5Pz9499J/CPQ8HJIb9sG75PUe4+6+4fhdMJ1textVPeP4v2C7lQ/T08fZr9Cr+7TqmQOx2D8urlPupPj4up7feZ4EwecjNvXeD0R79lV5Loi5Z1WjtL375XN/hiMpnmcoOSdP3UfF3mnVfV2vlZzuh+MpnnMlvkY5JLR93nN6Ppu774rT7HT6v++Wm9bKpnPMZjpXf8tZPT7JVc4rZH3r81q/en4iU3396rruWdlMz8GK54/TT2t96imQW++N3RaO+x/cjP7/ZNC/LHMRX2H0PsRsuTBtHqS0X4WNm+3eu+7N3wPkkTvvfe+Th5cxb9bwe+5+3wrLGa+N1s3nDxYCasPjsLZyL8Udl8dh73kxmDl0W7YzHvSNK1KN3Tj+ncyRb/Hs29WLr/SJx50mYNeovfS7K1wNPb1+z8ukRxY8l8xu+H00Uq4cWc3HI++D1DvvSgOwvan8UlU0e85/zoW3/A977ow21cRfgjHYOJtcgd8M+d9zIT84yJR6RiMA3De7UGOt0dh63pyRzs8DuMN+xwGvTkeg5Wvq8kxeDPvslLiewB9shn2X7Qvv/fl0+2wcnsz7H61qr+XeIe5sBUO43F66YOMtsPhH8s9C514HatFtWOw2mVR/f4iPnhZ/fooOXYuRqTeG/1+fRzOM25Dp7lvKnU737vMt8PBt+vhRu89ddL3S43v+/XyKOzeSS7/5LwquUEUV+kYPEkemOccc70nJVeH6Xg5rP3+IOzE27b4/liD27a37XDyeDP//YNK3kZ1X+yElfQYHL7fZXKedl6dhP3ftcq9B208dh+vh6WsH5Oq87RKm+cxmPg5uT3MeOzRSZ5Ixfumovcb3VdHYft29o9XxrcVWX049v5ub8/D2fe7YfWjnOuKkHtaeSrcv5c2x2NwqscJSs75U/txMeGyKH87X5c5H4PRlI/ZSj/uTe+nSvyJocKnVeNtS2lzPQaztf+wlvG4bfrT6t3/Fno+VvW06nzuWdY8j8Fq509TT+t9qv0VeqM3VsUPmL6pxoTBWpp3RxXfM+R6K8RPRe29wWF84834YOj6Ulh/sB1Wx59kvDsL+58sJzea2Xez+a8KvOzk/mJyI6ifUsZ/XWo9zPo68ee/l5ODcFYH/6iRQaD0nVaJQe/1YVi7vRNORs/aSYNeovvH/bB+azm0Pk6e4N9aDRufrYTWZ/vhTDyxiOL7Zi3dPch+A9kyr9yZcB2bdP2N/73M8VDVezsG3ybHS3xvtZJPEvKOi+rH4MiPB8QnL4U/2TqOF62xj+af06A3NPtjsOp1Nd5O9f5cctt58vjyEwX56Wvx1Vm3N7L/Jbn3Pk7J5aK+l/g+NdfG3qQ8HXZ2Pk1ux3OuE+Nyr2MzUOYYrHJZTHN/Ed87Zmn8w0wGI5K4rZzqvqns7Xzv+p5cn7Jus3v/+Jb1Xrh1KnMMTjrm4n+/+ufj9WJhIfu2LfsfqkreRsVPfby9FY4y7iP7l2FynE04Ty8+0Xgh3Ejuc+Wrwmo6rTrM+hjs61//lz7bCyfpG9fHDyyIA81Scr3f/mLC/Ub8kcr0PF1YSG7TftDfY3xCspr5ap1EvB29PeHxb8HTylTx/r262R+D1R8nCHnnT93HRYHLouzt/CzM7Ric8jHbpNO+ovTjsgvFT2vK25ZazOMY1M6T525Z761Xx2kVf25U7bRqfe45hdkfg9XOn6ae1vs0k0FvcMYUP2D6Jp3peeKfLfRR4K+Pw+74qz1+SY6oeGM1/iQjeUC9+NlhPa/qeJdc+Jlrb3xQsR4OR179cEXvxjTvylWXkStp6TutSQfAQP+Nfq/8+OykQS/+K/XDqzeQ3Re7YUt+zHi8U78Zdn9O/+eUJl3HJl1/R4+NWRo9nbkdg2+T6/CnFR7s5x4XicrHYHpd/DG5Do9/snXvX8TXwp76l+34KtBP9sPZpevY+xj0ZnsMVr2u9v/cUe+B5uVPX4uvFNkJa7+7/K+pcQy6mTkG9cWxrfR1Lv642K29jPfEGDPpOjYDZY7B8pfF7O4vTh8mx8pfjV6C05xWhdv53tfS72cyFN/HNPP9UOpS5hicdMyNfK0R8XqR/x4s/beSuHL+lbyNik8sJj42in/HCf+YNtC//VwJy3f3wunYk626T2sasz0GR7zrhNMnW/JVUPF0C91v9G4/d8PqrZWw9d34fehZ2P948rF8cn+phtPKUPX+fSqzPwaHf67s44RxE86fWo+LGi6Lq7fzszGXY7CGx2yTTvuKidfHbKVOq47blqnM4xi8qv3dZs6YF01/WpOujxeqnFa9zz2nMftjsNpl0dTTep8aMujFg2dxuhu3n3bC4tidafx+st/DoKQ4TOQ+iZl0xZh05arLyJW09J1Wse+x9y8X6mXUEwa9+Cm32e+hpz7lNn4/2e+bWM7k69ikl/WefdMqdTxUNfdjsHMcdm7fCOtyVJ0g77hIVD8G42W/GBav3QzbP4orQHzl2N2xNxVOXw149UdYyj04nN7sj8Gq19Xe9eNacr4ml5n6l8fO041LHy5U5PpX6TpX8Eluz4Tr2CyUOQZLXxYzvL+It82XvpcpTqvS7Xzh05v1v2yXOQYn/GhG9yhsiT9f9Ni49OrjCrdRveOr9w+Yk5p0vl+mfhxqVqdVxUyPwULOw+Hdkvcb8sco43VRnYdXK/U9Fv3x2Wnu36cy+2OwfxolHyeMK3D+1HZc1HRZXLmdn5GZH4M1PWbrXT5lzo9C91Na6dOSKty2VDKPY/Cy9pP1cCO+qj9zzIumP60i9799VU4rnm91PfeczuzvB6tdFk09rfepnkGvfRBW5Z3TSJ/lfVRyX+Ubut6b+yZnrHiCWVS8QMd/bC9+P3UNevENpDMPpMJPYnKuXFPphuP7Fz9Oo1sKu3kfV95T7HvsXc7yNAap08p/Aq8vqxpvVItcx+IT1ZyPBD/+Kv9Nfafyvo7B+P52t+LQOukra7nHRaL6MRivL8nf+YuMjyPvvfJo/LoRry9j59l4Bc7DauZ7DFa9rvaeCCy0xHje1/vxzJHLq+hoUf52P75Zc7Hbw0nXsdpUPQbLXhazvL+Ib6A8ellMcVqVbucLn94sHixXPQb7/9izk3VsxuuFePPkosfG5du/8rdR8WsUfVuQUnrvIXN5WJ3ZaRU1r2OwiN4D/vLDc3w/n8vnYbzMZzNgXz2tMVPev5c332Ow2uOEEQXPn1qOizovi/Hb+TrN9Rgsf3uo9O6rypwfhe6ntNKnpVS8bSlm3sfgQP8955buZr+F0oVpT6vY/W9fldOa1WOUguZ6DFa8LJp6Wu9R7a/QiwdJ/4yJZ0a5f0GoekMXn0RO9fHB8WPrb179MZ/eG6knV/rpbzPjg4K8HyOK//0D+ZHbeDqDK2k8CEq9siXeiE3xPeaeXnzgtZn5HiTxk8quDj/ph1jU8LLnQtex+NHYmZ9QN+k6UJ95HYPx/QzXrq8k52/VI2/yeTLNMdj7u2T+2Xh9KnqHW/58nMo8jsGq19XebWX2MRUHv9HjcGY/clv4Ae38jrtRpY7B0pdF/LXZ3F9c/YetGZxW3nW697UmXF7xR24/mfCqmWmVPAZPH2V/4mu8b1L3HfE6MvlHbhcvveI1W871LH6Qzcd7Yz+SVoPeoDf2CYSzOq0KZnsMThbvf6o8Lo0j2+VPLu1/wv/m92W/0mRXT+vC9PfvU5rDMRhVfZxQ6vyZ8rio+7JQL2CYhfd3DJZ7zFb6uWfvfur9DXpVb1tKm9MxGD/B++jL5bD8xbPC7+1Y+bRS8bpZ9B96y59Wfc89pzWPY7DSZdHU03qPah70Rl8GHM+kck8oqt3Q9R/s6B/FLKB3QxJfbikutHhB38p/Q/7w6iCsX58wDPTuzPPf86f3ypbk766/TDccf3UzzOVDMUZ+9Dh+T+Uuj1kOesk16mF8QJP+jzFZ/y3+HXLfmPRdJxw/aGUetH3Fr2Onj1ry92X++Fnt5nMMnv+wHVofrYeDkk9yLilwXEx1DA5uqF+m/3tUfMVl4aGw3IPDqc3pGKx6Xe3dkd3Tr2i4chzGy+B28v1kHV7t+MB44erfMX7K2q3tcJzxTfR+3C/je7ikyHWsduWPwbKXRbX7i+T7+mwxrP0h48Lo/Qje1eOl9vumiYNe3odiJLfXXy2nD1BnqOwx+CZ5wPir8fdxSmT+SFj/gXbeh2KEV8mT+MxPbx+XdxvVfy/Dut//rB2fVF65HGdzWuXN/hjM0xtgbidP+Ce+0mTM2+T2+9bNq9eJ5HYs/z2lKsg6rUQt9+/TmsMx2FPhcUL586f6cVH+tKrdztfvfR6DzR30Kt+2VDGPYzB+wMtnN0LrwfHVD1XLU/V4T5UZ9KqcVjy/pn/uOa05HYMVL4umntb7UvOgl/wlhz8WGZ9YlnvJaaUburi8Fjyd85fpp9umOi+Pwu7dlbD5NOeAaid36B+thJ3n7YuPne591PxpOHy4Gpaur4a9n/LvZuLKO/nHBuMnNa2E1QdH4Wzk1RDdV8dh986NsPJoN2zOYdCLV+7BZRAvj8nf96jZDnq9B6B3NsPBz+cXl8Xb83D6ZDOsJt+zvgr0PwGr9cVBOD0f+R3Jnzt7vh82by+F1u8O8/9VqMR1bDBg7McPWkl1Xx6GzTtzugOewzHY+X4z3EgeUBxlXFDxVXVLGf/qP6rYcZGY4hjsf1Jkch4MPrwh+XPtF/FyT86jwvej8x305nYMVr2upp80uvbNyBuIn5+FowcreviJl98nm2H/xcjl1+0ft63bm2H3q1VxneuGs8frvct29/uzMDx03/RPZ7Hgk9vC17FaVTgGS18WFe8vzo/Cdu82bz+cvBo7Jm4lTwLlE86a75smDnrb4eDb9XDj051w9DK9rU8/3TieXiu5bZl0dk6ryjHYGz6/POq9YXlP8oD95NFqWM94Et97QvH7g7BzuxU2H5+E9uByHnwSZfIk/rCu26j0jfQvXe6p7pv+6S3fHvuQmZf7YeXWWth+knxvby7+zOBYX7y1GZ6p76/KadVuHsdgonMWzgb3LVG3//dbubsXTuRdUqf3fr8rn+/1rtvDTx8dOQZXHp3K63fvjeLHbw+jbif95O+lsPn96IlWO6267t+nNY9jcKDM44TK50+F46LyaVW6na/bnI5BqQGDXunblvrN/hg8C3vxPSEfn2Xcp8dXuo29CnxE1eM9KjXoJcqfVg3PPac2v2Ow0mXR1NN6T2oe9OIVJv0xqCI3ePFVGKM/0y1afzrhgPtpJywVetnjeXh2byU9vcXkTnI9bD1OnqAUuWHsnIbD++vJA+z+Jw0N/nx8oDu8kDPFhVy/nFM5f74XNj69ERZ7p7MUlu9shf2f4nkQz9v0fPls8ntCVBVvtAcvxZ98gxf/JTD9nrK6vjvxTu/k4fj7NeS8V9jbs95lsXy9/3uXbiWXw9OsO4MLvfP1zuDTjZOuL4fV3gPdAleAwtex1Plx2Pt8cF2Ln6S8G45ndYFdMftjsPeARPy+S018wFLuuJjmGOz+8TBsj32y9VGR0z0/DOujf6fYDI+9gbkeg1Wvq+/Ow/HXG5c/fe3xSfa/sKaX3+C4XfyoFdYfHvVGjIvrk3pPtfj9rco/N1nJ61htSh6DAxUui0r3F8kDktOn22E9eSB99c9lm/a+Kf92fvR63D+/Or+MHrfJ8f7pRth7nv891qXcMTjQDWfJ+bo2ckxsPRH3TSO3ub2vO3Ysxfum9fuH4bTIY5Myt1FXLvf+8bT6+U44eH75HzuH4pPIJzuX7jv7n7Q44Risclq1ms8x2P1lb3h59x9TJH+/F5OvK/Efk/fvjd6fxdPaDgcTjsHx28Pen/s4PpZNri+jT/5HlD2teu7fpzfTY1Ao+jhhqvOn5HFR72klf6cCt/P1md/94FDR28NKzz1Pwu7wuMuottOqfttSp9kfgyOPHTIbDFJKueP9/On62NceL+e5Z8nTGpjquefU5nkMVrztbeppvQf1DnrJjenatZ3+FebVfljJeRNCfJhOHiyGtW/jpRZ/lGop+w0h8WHiGLTHMWiOY9Aex6A5jkF7HIPmOAbtcQya4xj8k1L7h2IAAAAAAAAAmB0GPQAAAAAAAMAIgx4AAAAAAABghEEPAAAAAAAAMMKgBwAAAAAAABhh0AMAAAAAAACMMOgBAAAAAAAARrwHvTdvQtjeDuGf//PZd+9eCC9fpicMAAAAAAAAvB/eg14c2v4s+SvMq08+SU8YAAAAAAAAeD/+LP2/nv76r0P4x/84hKWl+fSXf5meMAAAAAAAAPB+eA96AJDn3/27EP7NvwnhX/2rqz9Gr4o/Wv83f5P+YQAAAAAAPkwMegD8xffTjMNdHOX+/M/7r6j9W3/r4sfly8SP1gMAAAAAPnDJs1cAMBI/nCb++Hsc7+KP3P8X/8XVUU719/7e1R+jV/3bf5ueEAAAAAAAH6bkWS4AfIAGr7r7i78I4Z/9s/7YNulVd/G/x9/3T/9p/8dn45+P77UJAAAAAECDJM+AAeA9GLy/XWx7u/yPy/7dv9t/hV78c4eH/VfuAQAAAADwJyB5VgwANYs/tjp4dV0c3GKDH2kt+iOyo/3Df9h/b7vBq+7iq/cAAAAAAPgTlTxTBgAhjmaDV86NFl8VNxjnphnpxoujXfxa8TTi6cbhjlfdAQAAAABwRfIsGgCE+Go4NbyVbfBhFP/kn1yMgvFDLeJgx/vbAQAAAABQWvJsGwCEOLapV+MNij8COxjoYv/qX/VHuhifFAsAAAAAwMww6AEAAAAAAABGGPQAAAAAAAAAIwx6AAAAAAAAgBEGPQAAAAAAAMAIgx4AAAAAAABghEEPAAAAAAAAMMKgBwAAAAAAABhh0AMAAAAAAACMMOgBAAAAAAAARhj0AAAAAAAAACMMegAAAAAAAIARBj0AAAAAAADACIMeAAAAAAAAYIRBDwAAAAAAADDCoAcAAAAAAAAYYdADAAAAAAAAjDDoAQAAAAAAAEYY9AAAAAAAAAAjDHoAAAAAAACAEQY9AAAAAAAAwAiDHgAAAAAAAGCEQQ8AAAAAAAAwwqAHAAAAAAAAGGHQAwAAAAAAAIww6AEAAAAAAABGGPQAAAAAAAAAIwx6AAAAAAAAgBEGPQAAAAAAAMAIgx4AAAAAAABghEEPAAAAAAAAMMKgBwAAAAAAABhh0AMAAAAAAACMMOgBAAAAAAAARhj0AAAAAAAAACMMegAAAAAAAIARBj0AAAAAAADACIMeAAAAAAAAYIRBDwAAAAAAADDCoAcAAAAAAAAYYdADAAAAAAAAjDDoAQAAAAAAAEYY9AAAAAAAAAAjDHoAAAAAAACAEQY9AAAAAAAAwAiDHgAAAAAAAGCEQQ8AAAAAAAAwwqAHAAAAAAAAGGHQAwAAAAAAAIww6AEAAAAAAABGGPQAAAAAAAAAIwx6AAAAAAAAgBEGPQAAAAAAAMAIgx4AAAAAAABghEEPAAAAAAAAMMKgBwAAAAAAABhh0PvQvD0Lh/fXw/L1hbCwkHR9Izw7T/8bmuH1QViLl23S9ov01wAAAAAAAAqa/aDXPgzr1xfC4kcb4fB1+mvQ3p6E7VvpkDdsLRxwvjULgx4AAAAAAJhCzqB3Hg5+PT4uFez+Sfo1Qjh5uDT89bUnvNQsWzccf7nYP69ubYWjdjf99Sl0noWN+PXuHSVf/cLJg3g6q+Ggnf5CQeffb4XlCQPjyf30OlCmkevLJW9Ow+GDjbB6a3AdWgw3bq+H7aenofMu/T01qfX7noRBDwAAAAAATGHmg97wFXq3N8MzXmmWbTC+LSyGrec1jHnRTzthMfmaq38YXe7a4eBXyelc2wmF56jOaTj4Xav3tSa9YrDKMLby+Oqy2P5uMyyL3zto8Xby/b9Nf3MN6vq+C2HQAwAAAAAAU8j9kdtupxM6b8Y7DftxEIqDxJdH4r8n1Ti0FPLmLBw+3grrt41/rDcd3+JgdljTCxnbf1hNvt5i2Pkp/YWoexS24un89lnopL+U6d15OHm8GVrX0ss7/f5yfwT4rbg+iNrfbvS/3s3tcDK2X3a+20jPi8XQ+t1+OHmV/obueTj7fiespN/P4t2D0K7rlXo1fN+FMegBAAAAAIApVHgPvZFX7lX9kcO6vdjufz/O7zc3/DtsF3/lXK5uOLoXv95GeDa63P2yG24mp9P65iz9BaF7Gg7vrYUbwyFvMbRuL6f/fw3n8bvTsNt7r8DFsPHd2KzYPQ5b6ekuJ9cvuZm1D8Ja7/eIPz9Led93GQx6AAAAAABgCgx6H4raB72TsBNHr18dhNEfDD3/dq13Ots/pr+gjAxOix+thd3n57Wex8NX4N3aDadjr7CL/613Ote2wnHOK+DOvlnp/75fHyTXyPnI+75LYdADAAAAAABTYND7UNQ96LUPwmry9RYfXP5qx1/1z6fcH+t9fRg2Pt0Ie9+fXXz4RF3ncfckbN+MX0e/yq3//SWNfZDHFS/3Q6v3/Yy9AnFWJnzfpTDoAQAAAACAKcx+0BuOF2oIOgnbY8NG55fDsP2b1vDHPRc/aoX1+4fh7Mr78hX40A716q3OWTjqvd/ejfR92pKuL4fWb7bDwc9TDDXddjh5sh3WP14OS8PvYSks39kIO09Owrl8RdfF3z+zgqPp8JVtVSryfno1DXrnT/qvENSvcitx3Xp3fOW6o3TbJ+Hg0iflJlW4vPO/7zHvOuHs+72wcefiujC4Hp/Gk2TQAwAAAAAAU/iABr1uOPtm7WJkG+/W9tinmpYf9LovdsY+4GGsiq84PP9hO//rxq6vh/0/jr/mrL5Br/39bth5sDNs45P452+GtS8vfm3ny7Xe++ctfLJx6ffu/VDgh1brGPTie9D1XuW2ENafqjGtE579tv/fJ75Cb2TQW/tWfP/vzsPRV4NP5s2o6OU98fsecX4Utm8vXj2tQcn14PBHBj0AAAAAAFDdBzPobX61HW4uLIfNxyehPRju3rbD8YOV4Siz+OWxHnmKjE1vnoWNdHRb/uIgnJ5ffKXum3Y4fbob1h6VH/Tie9INvr+lO7vh6OV56A5ewdX7VNbdsHq9/98XriXf3+gb2o2q9Uduz8Ph3fi1tsLR6BmWfpKuHMAmqWHQ6zxd73+Nm9mvcjv7ptX/PRPeQy/83P9wj/h7156M/X3etcPhZ4NX5C2Gla8OLj4pN9HtxMtlL2z8vtg5XeT77nmbXJ97H5oRv/+VsPP9WTgfXJe7ndB+nl4Xri0OrzMMegAAAAAAoKwPZtCLrybb/lEtON1w/NXN9PdkvF9agbFp8GEQE0eZMkZHwvvHF+83N25k6FnM+vHWOge9wavX7h5eeoVi+w+ryde/GXZ/SX+hjGkHvXdnYb/3qsGFsPI4a9VMvNoPK73TyfmU29HhLGl80LsYWZfDVpFXH+Yp+n0nTh+lnwScN9x2kssmfbVfjEEPAAAAAACU9eEMep8dZr+P2y+DV2Mthp2f0l8bVWTQG7wHWhz00l+bVvtx+kmrN7fDSd6ryRLdH7bSkSnje6xz0Es/MOLmo9G/aTcc3Ytff+xVe0VNOeh1n6d//2sb4dmb9Belbji5nw5jSfFVj4c/t0PnTSep/0rK/qvcVsLKx/3fc2nQG/nx2OVLf/9qCn/f3eOwlY67V14xOGb4ir8kBj0AAAAAAFDWBzPo5f4YaPcobKW/Tw4gRcam4Y9oLoaVRyfZr6YrrB0OftX/ni4PZxlG/g7yU1KnGPS6vxxeek+8nc/7Q2PrtyO/9mArrMWh68Zq2Br9vY+T8yL9OrmmGvQ64fCz/t8988emR71rh2dfXIx6V7rWCjsvzobXw0vn53D8rTY8Xlbi+05/nLnQp+4OjwkGPQAAAAAAUN4H9KEY6S9JE35fobHp8iu/Fq6vhI2vD8Npu8rL1aKL72nrhyJf4+J8k6/gmmLQG77vXIUKjZHRNIPe8DpwM+z+nP5aAecvDi594nH8dNrVz/fCce/0B+f/5Vdt1vpKzBLfd6nTZdADAAAAAABT+BMa9PrOn++GtY8ufwrp0p3tcHjlE2gnKfq9D0w436YY9C5LXzl4befS14k/8hu/fqUPxIimGPQufjS5vh93DueH6fXq8ivihsPa2CccV1Hm+y51ugx6AAAAAABgCn9yg95A5+VR2Pt8JSylXzd+gMLmd/kfenDZxff0vl+hd8ngR3vHPnzj9FH8YJFW2H+Z/kJZlQe9s7Cfvtdd65uz9NemNxgoFz7eT07hwnBY+9VBKHNpXlXu+y51ugx6AAAAAABgCn+yg95Q5yTsfpq+Yu/aVjgu/EK9kkPV4JNnk+QAWNegl76H3OXvafB+f9vhuOp7B1Y9j9MP6Kj86brSxXvbjX/y7HDoq/rhHwMlv+/OdxvFT3f4Pn8MegAAAAAAoDwGvah9EFZ7fz7jU3QznD6Mr3pL/lz8kcwJQ9nFp9xmfGhCTYNe/5ViY3+Pwav27h5O/nHQLBXP41n8uG03+V6We9/Lejgc/+TZN4dhvfffFsL600mfTpGt9Pc9HAAXJ75ic3i9SWLQAwAAAAAAZTVj0Bt+wmjFHykdDnol//zIj04u3z/O/uTct8n3fyv9fQ9O9Kel1jLodcPRvfg1xkZD+aq9kioNeiPXla+O01+b0qvkPE8/JGNF/n264fjLwSsuk+/1VfrLpVT5vtth/5P0z9xKLsO36S+PuRgj+zHoAQAAAACAspox6HWehY30v9+89yz0Prj2XSec/nAyfEXaycP0U21fdUJ3ZHjrvjoJu3fTAeiT/XBW8kdS20/W0jExfrjGbjh6eX7x9bvn4ez73bB6vf/f84aeega907B7M/ka4+8r923//d22f0x/oYoqg97glYFJG98Vf7XcyaO1sP3kOJy9vrisuq/PwtHXG6GVjnmLdw9Cu8CAunCtFTYfn4R252JG7Xba4fTpXtj4fcY5XfH77v60czHW3doM+y/aF9eFt+1w8niz9/2v3NtKB2QGPQAAAAAAUF4zBr3QDScPlvvf02gjnzh6cn/sv413azM8q/QpCt1w9nh95MM1dEt39sJJ3jZUy6A3Q1UGveF7xZV7/7z8y2oxtH73LHvMGzg/Ctu3L3+a8ZWyrr8Vv++o/d3mpVfgjbf85VE4b1+8spNBDwAAAAAAlNWQQS/xrhNOHm+ElY/SEef6clh/dDL8pNfuq+Nw8GAjrN6+MXxF3cK1G6F1ZyPsPDkJ55MGoklen1z9+sn3sPr5Tjh4UeCd6xo46A1eGZj5voEZOj8fhJ3PV0NrcFkmLd1qhfV7++G49/LLgpLrxNn3+2HrN61wI31l38LCUlj+eD1sPT4KZ+Pvv5eq+n0PvT4O+/fWL77/eD37zfbF9WDkR7UZ9AAAAAAAQFkVBj0AAAAAAAAA7wuDHgAAAAAAAGCEQQ8AAAAAAAAwwqAHAAAAAAAAGGHQAwAAAAAAAIww6AEAAAAAAABGGPQAAAAAAAAAIwx6AAAAAAAAgBEGPQAAAAAAAMAIgx4AAAAAAABghEEPAAAAAAAAMMKgBwAAAAAAABhh0AMAAAAAAACMMOgBAAAAAAAARhj0AAAAAAAAACMMegAAAAAAAIARBj0AAAAAAADACIMeAAAAAAAAYIRBDwAAAAAAADDCoAcAAAAAAAAYYdADAAAAAAAAjDDoAQAAAAAAAEYY9AAAAAAAAAAjDHoAAAAAAACAkdxB7+/8y8/JuL//+y/JvP/2Lx+Qcf/Tv/4/ybz/5f96Qsb9b//3X5F5/8df/0jG/ev/95TM+3/+vzYZ9zdvO2QekIdBr8GpgYi8UiMR+aQGIvJKjUTkkxqIyCs1EpFPaiAir9RIRD6pgYi8AvIw6DU4NRCRV2okIp/UQEReqZGIfFIDEXmlRiLySQ1E5JUaicgnNRCRV0AeBr0GpwYi8kqNROSTGojIKzUSkU9qICKv1EhEPqmBiLxSIxH5pAYi8grIw6DX4NRARF6pkYh8UgMReaVGIvJJDUTklRqJyCc1EJFXaiQin9RARF4BeRj0GpwaiMgrNRKRT2ogIq/USEQ+qYGIvFIjEfmkBiLySo1E5JMaiMgrIA+DXoNTAxF5pUYi8kkNROSVGonIJzUQkVdqJCKf1EBEXqmRiHxSAxF5BeRh0GtwaiAir9RIRD6pgYi8UiMR+aQGIvJKjUTkkxqIyCs1EpFPaiAir4A8DHoNTg1E5JUaicgnNRCRV2okIp/UQEReqZGIfFIDEXmlRiLySQ1E5BWQh0GvwamBiLxSIxH5pAYi8kqNROSTGojIKzUSkU9qICKv1EhEPqmBiLwC8jDoNTg1EJFXaiQin9RARF6pkYh8UgMReaVGIvJJDUTklRqJyCc1EJFXQB4GvQanBiLySo1E5JMaiMgrNRKRT2ogIq/USEQ+qYGIvFIjEfmkBiLyCsjDoNfg1EBEXqmRiHxSAxF5pUYi8kkNROSVGonIJzUQkVdqJCKf1EBEXgF5GPQanBqIyCs1EpFPaiAir9RIRD6pgYi8UiMR+aQGIvJKjUTkkxqIyCsgD4Neg1MDEXmlRiLySQ1E5JUaicgnNRCRV2okIp/UQEReqZGIfFIDEXkF5GHQa3BqICKv1EhEPqmBiLxSIxH5pAYi8kqNROSTGojIKzUSkU9qICKvgDwMeg1ODUTklRqJyCc1EJFXaiQin9RARF6pkYh8UgMReaVGIvJJDUTkFZCHQa/BqYGIvFIjEfmkBiLySo1E5JMaiMgrNRKRT2ogIq/USEQ+qYGIvALyMOg1ODUQkVdqJCKf1EBEXqmRiHxSAxF5pUYi8kkNROSVGonIJzUQkVdAHga9BqcGIvJKjUTkkxqIyCs1EpFPaiAir9RIRD6pgYi8UiMR+aQGIvIKyMOg1+DUQEReqZGIfFIDEXmlRiLySQ1E5JUaicgnNRCRV2okIp/UQEReAXkY9BqcGojIKzUSkU9qICKv1EhEPqmBiLxSIxH5pAYi8kqNROSTGojIKyAPg16DUwMReaVGIvJJDUTklRqJyCc1EJFXaiQin9RARF6pkYh8UgMReQXkYdBrcGogIq/USEQ+qYGIvFIjEfmkBiLySo1E5JMaiMgrNRKRT2ogIq+APAx6DU4NROSVGonIJzUQkVdqJCKf1EBEXqmRiHxSAxF5pUYi8kkNROQVkIdBr8GpgYi8UiMR+aQGIvJKjUTkkxqIyCs1EpFPaiAir9RIRD6pgYi8AvIw6DU4NRCRV2okIp/UQEReqZGIfFIDEXmlRiLySQ1E5JUaicgnNRCRV0AeBr0GpwYi8kqNROSTGojIKzUSkU9qICKv1EhEPqmBiLxSIxH5pAYi8grIw6DX4NRARF6pkYh8UgMReaVGIvJJDUTklRqJyCc1EJFXaiQin9RARF4BeRj0GpwaiMgrNRKRT2ogIq/USEQ+qYGIvFIjEfmkBiLySo1E5JMaiMgrIA+DXoNTAxF5pUYi8kkNROSVGonIJzUQkVdqJCKf1EBEXqmRiHxSAxF5BeRh0GtwaiAir9RIRD6pgYi8UiMR+aQGIvJKjUTkkxqIyCs1EpFPaiAir4A8DHoNTg1E5JUaicgnNRCRV2okIp/UQEReqZGIfFIDEXmlRiLySQ1E5BWQh0GvwamBiLxSIxH5pAYi8kqNROSTGojIKzUSkU9qICKv1EhEPqmBiLwC8jDoNTg1EJFXaiQin9RARF6pkYh8UgMReaVGIvJJDUTklRqJyCc1EJFXQB4GvQanBiLySo1E5JMaiMgrNRKRT2ogIq/USEQ+qYGIvFIjEfmkBiLyCsjDoNfg1EBEXqmRiHxSAxF5pUYi8kkNROSVGonIJzUQkVdqJCKf1EBEXgF5GPQanBqIyCs1EpFPaiAir9RIRD6pgYi8UiMR+aQGIvJKjUTkkxqIyCsgD4Neg1MDEXmlRiLySQ1E5JUaicgnNRCRV2okIp/UQEReqZGIfFIDEXkF5GHQa3BqICKv1EhEPqmBiLxSIxH5pAYi8kqNROSTGojIKzUSkU9qICKvgDwMeg1ODUTklRqJyCc1EJFXaiQin9RARF6pkYh8UgMReaVGIvJJDUTkFZCHQa/BqYGIvFIjEfmkBiLySo1E5JMaiMgrNRKRT2ogIq/USEQ+qYGIvALyMOg1ODUQkVdqJCKf1EBEXqmRiHxSAxF5pUYi8kkNROSVGonIJzUQkVdAHga9BqcGIvJKjUTkkxqIyCs1EpFPaiAir9RIRD6pgYi8UiMR+aQGIvIKyMOg1+DUQEReqZGIfFIDEXmlRiLySQ1E5JUaicgnNRCRV2okIp/UQEReAXkY9BqcGojIKzUSkU9qICKv1EhEPqmBiLxSIxH5pAYi8kqNROSTGojIKyAPg16DUwMReaVGIvJJDUTklRqJyCc1EJFXaiQin9RARF6pkYh8UgMReQXkYdBrcGogIq/USEQ+qYGIvFIjEfmkBiLySo1E5JMaiMgrNRKRT2ogIq+APAx6DU4NROSVGonIJzUQkVdqJCKf1EBEXqmRiHxSAxF5pUYi8kkNROQVkIdBr8GpgYi8UiMR+aQGIvJKjUTkkxqIyCs1EpFPaiAir9RIRD6pgYi8AvIw6DU4NRCRV2okIp/UQEReqZGIfFIDEXmlRiLySQ1E5JUaicgnNRCRV0AeBr0GpwYi8kqNROSTGojIKzUSkU9qICKv1EhEPqmBiLxSIxH5pAYi8grIw6DX4NRARF6pkYh8UgMReaVGIvJJDUTklRqJyCc1EJFXaiQin9RARF4BeRj0GpwaiMgrNRKRT2ogIq/USEQ+qYGIvFIjEfmkBiLySo1E5JMaiMgrIA+DXoNTAxF5pUYi8kkNROSVGonIJzUQkVdqJCKf1EBEXqmRiHxSAxF5BeRh0GtwaiAir9RIRD6pgYi8UiMR+aQGIvJKjUTkkxqIyCs1EpFPaiAir4A8DHoNTg1E5JUaicgnNRCRV2okIp/UQEReqZGIfFIDEXmlRiLySQ1E5BWQh0GvwamBiLxSIxH5pAYi8kqNROSTGojIKzUSkU9qICKv1EhEPqmBiLwC8jDoNTg1EJFXaiQin9RARF6pkYh8UgMReaVGIvJJDUTklRqJyCc1EJFXQB4GvQanBiLySo1E5JMaiMgrNRKRT2ogIq/USEQ+qYGIvFIjEfmkBiLyCsjDoNfg1EBEXqmRiHxSAxF5pUYi8kkNROSVGonIJzUQkVdqJCKf1EBEXgF5GPQanBqIyCs1EpFPaiAir9RIRD6pgYi8UiMR+aQGIvJKjUTkkxqIyCsgD4Neg1MDEXmlRiLySQ1E5JUaicgnNRCRV2okIp/UQEReqZGIfFIDEXkF5GHQa3BqICKv1EhEPqmBiLxSIxH5pAYi8kqNROSTGojIKzUSkU9qICKvgDwMeg1ODUTklRqJyCc1EJFXaiQin9RARF6pkYh8UgMReaVGIvJJDUTkFZCHQa/BqYGIvFIjEfmkBiLySo1E5JMaiMgrNRKRT2ogIq/USEQ+qYGIvALyMOg1ODUQkVdqJCKf1EBEXqmRiHxSAxF5pUYi8kkNROSVGonIJzUQkVdAHga9BqcGIvJKjUTkkxqIyCs1EpFPaiAir9RIRD6pgYi8UiMR+aQGIvIKyMOg1+DUQEReqZGIfFIDEXmlRiLySQ1E5JUaicgnNRCRV2okIp/UQEReAXkY9BqcGojIKzUSkU9qICKv1EhEPqmBiLxSIxH5pAYi8kqNROSTGojIKyAPg16DUwMReaVGIvJJDUTklRqJyCc1EJFXaiQin9RARF6pkYh8UgMReQXkYdBrcGogIq/USEQ+qYGIvFIjEfmkBiLySo1E5JMaiMgrNRKRT2ogIq+APAx6DU4NROSVGonIJzUQkVdqJCKf1EBEXqmRiHxSAxF5pUYi8kkNROQVkIdBr8GpgYi8UiMR+aQGIvJKjUTkkxqIyCs1EpFPaiAir9RIRD6pgYi8AvIw6DU4NRCRV2okIp/UQEReqZGIfFIDEXmlRiLySQ1E5JUaicgnNRCRV0AeBr0GpwYi8kqNROSTGojIKzUSkU9qICKv1EhEPqmBiLxSIxH5pAYi8grIw6DX4NRARF6pkYh8UgMReaVGIvJJDUTklRqJyCc1EJFXaiQin9RARF4BeRj0GpwaiMgrNRKRT2ogIq/USEQ+qYGIvFIjEfmkBiLySo1E5JMaiMgrIA+DXoNTAxF5pUYi8kkNROSVGonIJzUQkVdqJCKf1EBEXqmRiHxSAxF5BeRh0GtwaiAir9RIRD6pgYi8UiMR+aQGIvJKjUTkkxqIyCs1EpFPaiAir4A8DHoNTg1E5JUaicgnNRCRV2okIp/UQEReqZGIfFIDEXmlRiLySQ1E5BWQh0GvwamBiLxSIxH5pAYi8kqNROSTGojIKzUSkU9qICKv1EhEPqmBiLwC8jDoNTg1EJFXaiQin9RARF6pkYh8UgMReaVGIvJJDUTklRqJyCc1EJFXQB4GvQanBiLySo1E5JMaiMgrNRKRT2ogIq/USEQ+qYGIvFIjEfmkBiLyCsjDoNfg1EBEXqmRiHxSAxF5pUYi8kkNROSVGonIJzUQkVdqJCKf1EBEXgF5GPQanBqIyCs1EpFPaiAir9RIRD6pgYi8UiMR+aQGIvJKjUTkkxqIyCsgD4Neg1MDEXmlRiLySQ1E5JUaicgnNRCRV2okIp/UQEReqZGIfFIDEXkF5GHQa3BqICKv1EhEPqmBiLxSIxH5pAYi8kqNROSTGojIKzUSkU9qICKvgDwMeg1ODUTklRqJyCc1EJFXaiQin9RARF6pkYh8UgMReaVGIvJJDUTkFZCHQa/BqYGIvFIjEfmkBiLySo1E5JMaiMgrNRKRT2ogIq/USEQ+qYGIvALyMOg1ODUQkVdqJCKf1EBEXqmRiHxSAxF5pUYi8kkNROSVGonIJzUQkVdAHga9BqcGIvJKjUTkkxqIyCs1EpFPaiAir9RIRD6pgYi8UiMR+aQGIvIKyMOg1+DUQEReqZGIfFIDEXmlRiLySQ1E5JUaicgnNRCRV2okIp/UQEReAXkY9BqcGojIKzUSkU9qICKv1EhEPqmBiLxSIxH5pAYi8kqNROSTGojIKyAPg16DUwMReaVGIvJJDUTklRqJyCc1EJFXaiQin9RARF6pkYh8UgMReQXkYdBrcGogIq/USEQ+qYGIvFIjEfmkBiLySo1E5JMaiMgrNRKRT2ogIq+APAx6DU4NROSVGonIJzUQkVdqJCKf1EBEXqmRiHxSAxF5pUYi8kkNROQVkIdBr8GpgYi8UiMR+aQGIvJKjUTkkxqIyCs1EpFPaiAir9RIRD6pgYi8AvIw6DU4NRCRV2okIp/UQEReqZGIfFIDEXmlRiLySQ1E5JUaicgnNRCRV0AeBr0GpwYi8kqNROSTGojIKzUSkU9qICKv1EhEPqmBiLxSIxH5pAYi8grIw6DX4NRARF6pkYh8UgMReaVGIvJJDUTklRqJyCc1EJFXaiQin9RARF4BeRj0GpwaiMgrNRKRT2ogIq/USEQ+qYGIvFIjEfmkBiLySo1E5JMaiMgrIA+DXoNTAxF5pUYi8kkNROSVGonIJzUQkVdqJCKf1EBEXqmRiHxSAxF5BeRh0GtwaiAir9RIRD6pgYi8UiMR+aQGIvJKjUTkkxqIyCs1EpFPaiAir4A8DHoNTg1E5JUaicgnNRCRV2okIp/UQEReqZGIfFIDEXmlRiLySQ1E5BWQh0GvwamBiLxSIxH5pAYi8kqNROSTGojIKzUSkU9qICKv1EhEPqmBiLwC8jDoNTg1EJFXaiQin9RARF6pkYh8UgMReaVGIvJJDUTklRqJyCc1EJFXQB4GvQanBiLySo1E5JMaiMgrNRKRT2ogIq/USEQ+qYGIvFIjEfmkBiLyCsjDoNfg1EBEXqmRiHxSAxF5pUYi8kkNROSVGonIJzUQkVdqJCKf1EBEXgF5GPQanBqIyCs1EpFPaiAir9RIRD6pgYi8UiMR+aQGIvJKjUTkkxqIyCsgD4Neg1MDEXmlRiLySQ1E5JUaicgnNRCRV2okIp/UQEReqZGIfFIDEXkF5GHQa3BqICKv1EhEPqmBiLxSIxH5pAYi8kqNROSTGojIKzUSkU9qICKvgDwMeg1ODUTklRqJyCc1EJFXaiQin9RARF6pkYh8UgMReaVGIvJJDUTkFZAnd9ADAAAAAAAA8GFh0AMAAAAAAACMMOgBAAAAAAAARhj0AAAAAAAAACMMegAAAAAAAIARBj0AAAAAAADACIMeAAAAAAAAYIRBDwAAAAAAADDCoAcAAAAAAAAYmcGgdxb2bq2Fw/Pk/313Erav74ST/n+Aic5fbYalB/1L7fzJWlj7Nl6Y8MEx6I5j0B3HoDuOQXccg+44Bt1xDLrjGHTHMfinYgaDXnKFWdgIzzrJ//v6IKwtbE++8rw5C8dPdsLGpzfC4v0Jv/vFdlhYWMht7UnODc7r47D7m+Ww1Pu9S2H5N7vh+HX632pxHg5+ffV7ulyB82TEycOl9M+thYNav1ct3mjffHTa+/9P7k84P6POaTi8vx6Wr/f/fku31sP209PQeZf+9/cs/h0un/8XLT3MuSTenom/11nopv/5w1XhGBxx/u1aWIznz68Pkmtzht7XvXxeXrTev/OYhXfn4fjhxWUSW/yoFVp3dsJx/PuOK3O8T3vbUqNSx+DML4vzcPjZ4OuVuy5dMvPbXq3Q9bl2RY/BKe4v3nVD+8VB2Lu3HlofLfZ/7/XlsP7wKLTfpr+nLmVO66fd9DKe4niJp/fzYdhPTm/5+nzu98aVvh8sen9Rx/lTl/PDsJ5+LwvDx141He/v3XT3g4XV9fhHXhapudw3fXiX++Rj0PC+qczznRxFnhec/7jXP534+67dCCuf74Xjud7k1HAM5h0XI85/3A3rt/rnyeJHK2Hj8UlNz0He03Hxvh5jjyl9P1hKTc+XSzwvqPx8cKDkc5Dz5+IYnOvjmerHYOeXg7A1+N57JbeNH7fC+rft9HcIZZ+jpZp6WvNU/6CX3PgOrzAv90Mr70lU8t/Xf7URth4fhtNXyQP45IYj7wa75497Yfm3z0LW+Xf66Gb2DU47uTJfWw6bTy4ebHVfn4WjR5th90VdM00nPPtiOez+kv7PcZ1nYaPSnUI8KOfzxObkwWJ6HnbD0b2FsP2i/+tSO7mzTZ7YbSZ3nu30LOy2T8LeZ8kBklyWH8L4VelO6G1yft9eC/s/n4fu4EFB9zycfrMWWh/I3ytTmWNw3Jvk+nl9Kxx9nzyBmDjoVbkeTyM5tn67GJa/PBpe13KVPd6nuW2pWaljcF6XxTSnM5fbXqHo9bluhY/BqvcXnXD0u6XQ+t1+OHnVubiNetsOxw9WwuKt5M/UNupVO61qD/6T0/oXq2H9i51w8PwsnHeP53a/N67UMVjh/qL+J0fVxSdtVx57vZfb+BpNcz9Y1Awe/8jLYp73TR/Q5V74GHS4b6ryfGei7OcF8eu34mOlkdvm7qujsJXcTh3kPG+tVY3HoDwuUu0n62H10eiA1w1nj9fDSjpE1WLex8UHchyWuh8srY7ny+WeF0x3v1vmtLrJedcKS5/uhKOX6S33u044e7odWvEfKT/0Y/CX3bB8LT6mKbNWlXyONtDU05qz+ge9eCP08X44i/9//FfFu4eFb8DzbrCLOQv7H7fC/sv0f16SXCBfLIWN79SF2A3HD/fC6fDOYHa6P2yFhXtHySmWNcdBL7nB2/ohfofxX08Ww85P/V+/Kl7Jl5IbR3HL9K7d+7Nbz9//tb/KDfjZ18th/am6rnTC4WfLYe+P6f/8EFU+BuMddnqMxD+Xd8P/Ph5spHdMx4WO07qP97zblvoVPwYT87osKp/O+7rtLXF9rtsU94Ojqt1fJOfpVzfDyuN5PGLMPq16Bqv53e+NK3MMVrm/qOf8qUcjB72ajsFss3n8U/5xcM33TR/Q5V74GLS7b6pyOSsZt4+dZ2Hz1q7+3n9OntB+kT0O16rGYzDz/IqnIe/b4/3/qu9x8YEch6Uei9as0OOfUs8LprzfLXNacTjK+MfO7o/b4eYn+2Eum17FYzAOuat/KPkdlrwsBpp6WvNW/6A38sSp891GqTusqe/g4vp8M7kTS//nZfGObyscZdwyxNOe/fjU/xcO/eBhknk9sYk32oN/hTkNuzdzTjO5kq9fS26wMq7k9TxgmV75G/B4Hqxm/gtK+w+rH8wTManiMdj9aSe0Bjf2I19Deh8PNkqdZs3He+5tS91KHIPRvC6Lyqfzfm57S12f6zbF/eCFKe4vkgeMc7vtzTitegared3vjStzDFa7v6jn/KmHvK9+H7fxdarlGMwxo8c/pf9c3fdNH8zlXuIYNLtviqpePy7LuH2M1/2vjtP/MeZdfNXznC7fGo/BrPMrvjq1PzgJyX3T4pfH+YNQUfM+Lj6I47DkY9FaFXz8U/J8mup+t8RpxR+Jzz6dOT6uqXgMVjqfKl5nm3pa81b/oBcf3Kd3JPEGePCz90VMewfXfrySc3qT77gX0zf+vCL+7PTXG2E1fX+GhYXFcON2/31Szsr8HbvHYeta+rPsGS79vH38ue47W2H/p3jlm9cNQDsc/Grw5CSeZv73myc+kck6T7t/FD/Dfmcj7D3POdDiy5WfH4Sdz1eHP8cef4Z9/eFxOM9ZzssfwPFf3gf/KjUu/06m2z4Nh4+3wvrty5fhwS8Vz8QqqhyD75I761srF/+aOXInIFW8gSt//oy+f0lG13fF9zHF8S7k37bUreQxOMWdTeeXw7D9m1a4cW1wXi6H1d57fByHnfHbqpHT6f+5wXsOJbeHn+YduxUvi4rHe0/Z63PdprgfHCpwf5Hl9GH+K/RKXe4TZJ3W8HY3vf9cGX3vvfuH4bTQaczrfm9cmWOw2v3FVOdPlcckY+/11j+Wjno/khevo1cee1U+3pO/dZX797qVPAbrvu/Oe/xT+rLIUeS+aT6383UrcQzO/b5Jv59S8du1cpdz6ecFv+yGm4NX5Yyb5z9Olr0fLH1cxMEp5/4hXi8y/q6lb6PmfXs4cnrvT8nHojUcF0O5j3+qPi8Yud8trPppZeqN6ukHVcxamWNw5P19s1p/Ov5NVzx/mnpa71FNg149f/Eyd3BXtcP+JzezfxY/edB9+NmiHmLij0fcTR5Mqyd87Wdh83ar9/4a56PvRRHfY+Pr5IYr/t0Kfs/d51thMfN9UOLP26+E1QdH4exN+kuJ7qvjsJc8EFt5tBs2Z/nEptIVPsfb5Abrpn5vhO6LnbDyyWbYf9EOncEDqXfd0Hl1EvZ/18p+z6EHS+HG3e30vZXSX3zbDkdftcJSzsuI4w346tdHyeV18aSp96a5X+cMA72XSycP9MbO7+6L7eTXkwcI6s/Fl+Vej1+3/x4pPcnf6/zn/d777Oz8lPGosRbTHYNn36yE5dEb+kKD3lY4fHEw8sAmeZDym+1w+MeMv+e050+pBzgVj3dp0m1LTaoeg1Uui+QIO320Em7c2Q3Ho++L1u30Pvxg+9N4nIzd3qTn/8G368kD2Pi+IOn7hcXL8OVR2L2TnKY8dqtdFlWP96j09bkW9T4AyL+/yBDft+3xeljKfA+9Cpd7lgmn1Xvg/PuDsBPvP+N7jA1+T3IZnjzeLPg+MhlPWGel6jFY4f6i8vlT5TFJfK+39D730nv8Pd0OK7c3w+5Xq1f/TMXjver9ez0qHoN133fnPP6pdFlkmnTfNM/b+ZpUOQbned+U/Hr8MfrVh8lj9dcjX/HteTj7fjesflTkdi25yhV6vlP1eUH64+DfjH04S+/vlPUjxnWpeAxWOi5Ows419fdPZbwasdJt1LxvD3unV/ZxXU2qHIM1HRcDhR//pJdL0VvMSs8HB0qeVpb2H9bKP7YrZfrHouWHz0TF86eppzVvtb9Cb/ROquwZN9WgF8/w+C8xeQdkfPPb663eJ8/17uTiK0DiDc31pbD+YDusXrnjPkseLC2H7Zw3xi3zyp2T+4vJjaA+hONLYVsPs75Ocqd+fzk5CHPuuGoz8gSq6pX4bXK+JQ8a5HvLdJM74NvJEx/5ZDOKf9dWuQcc8dU4OS8Fjz8zv3QnuSMevUMdPGm6exDaGdeZ7h+TB/O3lkPr4+TO9NZq2PhsJbQ+2w9nmd97ts7T9erX7ZJKH4Ovkyczt3fCyejVfNIAEp8AXUsup+SOcXjnnT6w2fk0OcZKvpl0ofOn7PWx7PGepchtS61KHoMVLov43iRLOdd9+a+jve8lefCT9efynizUdVlEE473Stfnmk1zPziQd38x7uITDxfCjeQ2Kutfwytd7mOKnlb8ey8sZN9/5v7jyNCcB72h8veDZe8vKp0/VR6TxOPl9kb2qwF6HwqQfC/jt79VjvdZ3L9XVMcxGJW+7857/FP1ssgy4b5p7rfztSpxDE7zPZe8b4qfmr76jXztW1/8ercnP14o8nxnqucF8dVSX62EG7dbofXRjeSx7kbyfa2E7bm9wrLEMVj5uJh0/xD/+9j1pupt1LxvD2t+jF1N8WOwruNioPDjn0m3DWOqPh/sKXlaynlym5z13nqzUPV+sNJ9ZsXzp6mnNW8zGfQGZ1bZM67IHVyW+GcLfQT8lY+n3w6H8Ucq4gU2/oQveUC9+NlhPSv6u+SGMfNfkuIT1PVwOPIvcFf0rlB5d1x1GbkDrHIlfpv8XT7NeDCbiA8wJ15O6rLINeFl9zlOHy6Hzb8Sl3By53z48OqNe/fFbtjK+2jrLHFQqHjdLqvcMdj/l9wrPy42zQDy5jB5Yrunf9wjS5Hzp8r1sczxnqHwbUttpjwGR8nLIh4vN8Puz+n/LKr3vayE/Vfp/1bij/Nk/ahPDZdFX97xPoPrcwXT3A/25N5fZOv2/tV/JSzf3QunVx4wVrzcM+SfVv/vnf/+Rf0fR818/6OekScUc1XyGKxwf1Hp/KnwmCSOAjczR4G++OTpyu1vheN9Nvfv1Ux9DA6Uue+e8Pin8mWRIf++6T3dztemxDE47fdc+L4pfgDJ5Nujk/tLof++Y9niZZd/OU/3vKD7Yi/s/Th2SxFvp+7tznVMKHIMVj8uJt0/jFyHUpVvoypcx2Z2e1jlMXYlRY/B+o6LnjKPf3K/r3Iynw8OTHla7e825zrmRVXvByvdZ1Y8f5p6WvPWkEEvPnBZLHZDkeWnnbA4dqMav59W3r84lBEfiGfdaBe6sky646pL0RtwoXMcdm7fCOs5g1fvMu49aJqUON30/TVaw/cNSroeXxGxEloV36w13uGq61z81MLs90TK/pTb3nud3Bl5r5reexu1wuonyxWv2+WVOQbj339JvfR7qgEk+859qvOnzhtVcbxrNdy2lDbFMXiFuizi19/KfN+gTIVvpya8z8q4rMuiwvE+m+tzedPcD/bk3V8UoH+ko+LlPkHWj48U+XvH8yn/Fe7xe57H/d64csdglfuLKudP/N9lH5MUPZ0rt78Vjvfe1xkcq7lNc5tWTPxeyhyDU993F3j8U/mykCbdN1U83md1O19aiWNwbvdN8WuMXo+zm/pyLvx3EreP8VNuP8kYL1/uh5U5fcpt0WOw+nEx4Uduu0dha+w87H0dcXldbey8/6BuD4sNaNMregzWd1z0lHn8U+hyKSbr+eDQFKfVfrKe3J/szHXMi4oeg+PK/N6hiudPU09r3uoZ9NoHYVUcuJf6bPJHJesb7ALiv1bkfNpYEWfftK48sYjfT12DXnzj8MwrUaErS8Yddy264fj+yJNm2VLYzfu48vi+Prfik5r8Szmep0V/RPmS3kvul66+P0Oi++Yk7FW9c4tvGHrlOpd/Z6mvF/0ff1i8PfZeGVG3E86/26x23S6q4jHYO+bU7x024XKX2uHgV+PnXw3nT403qup4l2q4bSmmhmNQUpdFvC2Z5RO9cl9bXhYVj/fZXJ8Lqul+MMq9vyii995B409eK17uk8jTKvbAafJ97Czv98ZVPQar3F9UO38mn19XFT2dK7e/FY73+HUq3b/XpdIxWMN9U8HHP5UvC2XifdOHdTtfTMVjcG73TfFr1DNkTrycC/+drt725A8Ts7rsUhWOwerHRX/U3sm6T4/fy9iHYlS+jfqgbg/V47q6VDkG6zsuolKPfwpdLgXJ54MjKp1W/31Ml+7uV3q7pkpqeCxa5Ji8ouJl0dTTmrfaX6EXz6z++wHEG9rBx10XU/iBzJj4cu2pPpq8m9wY3bz6Uurem3ImV/rpb6PiS+fzXqr9Af3IbTydwR1gwVe1xPcOim8ovftzgUug9+lbe+Gs1EDS/xTBze+zvn68rlU7b/SwE5+gbWa+70V8T50rT6om/b3ieVnhul3FNMfg0DSvaOr9q+jYnXsd509dN6oZx7sy9W1LFRWOwUzqshi8kfqsfhTrk/3kFAqSl8UMjvdpz8eSpjsGJ91fFCA/Ra3i5T5Jxie2xfNg8o+ULoat53lHV3yiMIf7vXGljsEK9xeJKudPlcckM/+R29HjvdL9+2wUPganvG8q8/inzh+5nXzf9AHdzldR5hj8YO6bipv8fKf684I46C3/Pmv4T77ujRkOeiOKHoPTHBenj7I/0T3e9l45RqreRn1It4fycd0MFD4G6zsuSj/+6V0u9YwtE/+hv+xpvTsPR18uh+UvnuW/N98MVX0sGv8cg16qxuvYLNU86J2Hw7uDK0w8KMs9EK826PVvSPLfhydH74BrJRewuEOIb9R6K/8NqMOrg7B+fcKdY+9GPf/9RuIdWvanv3XD8Vc3w1w+FGPkRwzi9zTp8jj/YTu0PloPB0VvfHuXV/Z7zGjxhih5YJrxSW6dn3bDinzZffykn8Ww9oeM0+p9El1yx/Ey/d8jTh/GB+jp/xgj/1u8s8v61KL4viVfzOtHbqc7Bofy7rzjJ2Dd2g7HGQ8mej+Cd+/o8nW5jvOnjhvVvOP9iilvW6oqcwxWuSwS8evmvln6u044ftC6/EC5d/7nvSl08me+Wk4fPBSQeVlUPd5zTHpCWKspj8EC9xeTtJP7UvUjK5Uu9wmyTis+cMr70Ifwaj+sfagfilHyfrD0/UWi0vlT5TFJ7w3nk/Mw6yJt94/rK3/HSsd7lfv3WShxDE5x31T68U/Vy+KKYvdNH8TtfFVljsG53TclktvnOt4Hq8jznfj3rvS8IL56M2v4z/tvtSpxDE5zXLx5FjZ+ldxfjl/u6QcIXX0cUfE2ap63hxUf19WuzDFY03FR+vFP73Ip8ryg+vPBocKnlYgfjvTZjdB6cBwufdL0XFV/LMqgN6Liac1bzYPe6I+exAfi5f4VqNKg10luzAuezvnL9FOsUp34UeN3V8Lm05wb2/hR6h+thJ3nIx+l3vvI8dNw+HA1LF1fDXs/5d81xn9BmvxjMt3Mj6ffvXMj5+Pp6zX6Uv14eeR9353vN8ON29vhKOPYiK8mWHogLs/0jaNbv9sPJ68uX3DdN/1PG1q+vXfpBj1+gtLSpzvhuJ3+/pGPfV+6vR7Wsn7k6fwobN8eO63kz7Zf7IfNW8mNe9Yd7dvk+ntnMxz8nH40fe/XzsPpk82wqh5gxU+zSp5obT45vbiODT6uPX5a2mfVXn1a3nTH4FDuANINZ4/Xe9f93e/Pwvng6785C0fJdXhR3anXcf6UvFGtdLyPKnHbUqcyx2Cly6In3t60QuuLg3A6/EOJeJk8T46N3jFzePmBa3r+H3y7Hm4kx+LRy/TYSD95Ld5OtZLjXZ1dZS+Lysd7lrkOetMdg4XuL17uh5Vba2H7yUlov7n44t3zweW+GZ7Js7bC5V7xtHoPnH5/EHZut8Lm4+TPDq6Hg0+U+2g9HE48FN/PoFfuGEyUvb9IVD5/qjwmiX/mk/6PlA7/TLf//bVub4bdr1av3v5WPd4r3L/Xr8QxWPG+qfLjnyqXxbjC903zvZ2vU6ljcI73TVHvze3H73Oj+CPayZ/fSa7/m9/nPy8o9nyn+vOC+J5dqw+OQ3vwM+S924jjsHNnPXs4q1XJ+8Epjove8PnlUTgf/Ll3nXDyaDWsZz6+r3AbNdfbw6qP6+pV9n6wjuOi2PPlEenlMulI6qn6fHCg8Gmdhb34fqqPzzJuJ+Orp6/+VEP9qj8WZdAbUfG05q3mQS9eYdKXARc5A+K/QsR/dclp/emEM/6nnbBU6EfizsOzeyvp6cU3O14PW4+TO8n825a+wZuzf7SYfl/9Px+f4AzvQDLFhbz4y4d7b8z86Y2w2DudpbB8Zyvs/xTPg3jepufLhJ99n0a80R685HjSFb/3gGTwPWWV9YAlucM9fbod1pMbvf7fdSEsftQKq5/vhIPnlx9g9SV3cPH3D98gP543G2EvuePovOu/lLj363cOrv5IxZXTGj1fc7w9613uy9f7X3vpVnKZP826gU6cH4e9z1eGb6od/z7r9w/CSbwxjYNCetrbPxa8Ra2k5DE45uTh+Htn5Lzn2Ov4910dnj+9v+/Do4snpuMqnT8nYTf9+pnJ42GK432g8G1Lvcocg0NlL4tU/43gB5/ul3R9OTkG95IHq6NnVPyXzfS/p9enzi+HYXv4qYDJ+ftpciw+z/o+q1wWUxzvI0pdn2szzTFY4v6imzwZeLJz6fJb/GglbHxd1+U+osxpjdyv9667yeV1/PVGWBncfyantX7/MJzKkxq9rmV0fbfUbVoVlY7BovcXU50/qSqPSdI/o24jLu7L4/Ex7fGeKH3/XreSx2CF+6apHv8UvizS3z+u5H3TfG7n61XsGHwf902psfvc3n3Ux/HPJ8fu4B+iRk3xfKfq84LzH0f+3LUbYSW5zI+zzoraVbgfrHxc9B8vrKW3h/G+aetJzmP1qPBt1Hu8Paz4uK4uxY7BMWWPi0uS87rQ45+qzwsSpZ8PVjmtkeMyMz3E16vcMXj+dF18n6OpY6/aZdHU03qf6h30zg/D2rWd/hXm1X5Yufth/WUx2cmDxbD2bbzU4sv5l7LfbBYfJo5BexyD5jgG7XEMmuMYtMcxaI5j0B7HoDmOwT8ptX8oBgAAAAAAAIDZYdADAAAAAAAAjDDoAQAAAAAAAEYY9AAAAAAAAAAjDHoAAAAAAACAEQY9AAAAAAAAwAiDHgAAAAAAAGCEQQ8AAAAAAAAwwqAHAAAAAAAAGGHQAwAAAAAAAIww6AEA3r+//usQ/vk/v+jevRBevkz/IwAAAABgFIMeAOD9+Ju/CeHBgxD+yT9J7o2Su6PxPvkk/Y0AAAAAgFHJMyYAACqKo9y/+Tch/MVfXH6FXRzjlpZ0f+/vXR3vYn/7b1/+fX/5l+mJAAAAAABGJc+gzLx5E8L29uUnjh9S/IgYgCaJt7lxsDs87N/G/bN/1h/b/sE/uDrIVS1+rXi7Hk8LAAAAADBR8kzKTHxCqZ4Qfij943+cfqMAYGTwjyWDV9ZlvYourzjMjb7CLhYHwNF/9BgUX30Xh0JGPAAAAAAoLXkGZia+cXoczcafNH4o8SNiABzFD6FQI91ogx+J/fM/749y8cds4ygXf+wWAAAAADA3yTM0AMCfvNF/LFldvTzYxf8GAAAAAPhgMOgBAAAAAAAARhj0AAAAAAAAACMMegAAAAAAAIARBj0AAAAAAADACIMeAAAAAAAAYIRBDwAAAAAAADDCoAcAAAAAAAAYYdADAAAAAAAAjDDoAQAAAAAAAEYY9AAAAAAAAAAjDHoAAAAAAACAEQY9AAAAAAAAwAiDHgAAAAAAAGCEQQ8AAAAAAAAwwqAHAAAAAAAAGGHQAwAAAAAAAIww6AEAAAAAAABGGPQAAAAAAAAAIwx6AAAAAAAAgBEGPQAAAAAAAMAIgx4AAAAAAABghEEPAAAAAAAAMMKgBwAAAAAAABhh0AMAAAAAAACMMOgBAAAAAAAARhj0AAAAAAAAACMMegAAAAAAAIARBj0AAAAAAADACIMeAAAAAAAAYIRBDwAAAAAAADDCoAcAAAAAAAAYYdADAAAAAAAAjDDoAQAAAAAAAEYY9AAAAAAAAAAjDHoAAAAAAACAEQY9AAAAAAAAwAiDHgAAAAAAAGCEQQ8AAAAAAAAwwqAHAAAAAAAAGGHQAwAAAAAAAIww6AEAAAAAAABGGPQAAAAAAAAAIwx6AAAAAAAAgBEGPQAAAAAAAMAIgx4AAAAAAABghEEPAAAAAAAAMMKgBwAAAAAAABhh0AMAAAAAAACMMOgBAAAAAAAARhj0AAAAAAAAACMMegAAAAAAAIARBj0AAAAAAADACIMeAAAAAAAAYIRBDwAAAAAAADDCoAcAAAAAAAAYYdADAAAAAAAAjDDoAQAAAAAAAEYY9AAAAAAAAAAjDHoAAAAAAACAEQY9AAAAAAAAwAiDHgAAAAAAAGCEQQ8AAAAAAAAwwqAHAAAAAAAAGGHQAwAAAAAAAIww6AEAAAAAAABGGPQAAAAAAAAAIwx6AAAAAAAAgBEGPQAAAAAAAMAIgx4AAAAAAABghEEPAAAAAAAAMMKgBwAAAAAAABhh0AMAAAAAAACMMOgBAAAAAAAARhj0AAAAAAAAACMMegAAAAAAAIARBj0AAAAAAADACIMeAAAAAAAAYIRBDwAAAAAAADDCoAcAAAAAAAAYYdADAAAAAAAAjDDoAQAAAAAAAEYY9AAAAAAAAAAjDHoAAAAAAACAEQY9AAAAAAAAwAiDHgAAAAAAAGCEQQ8AAAAAAAAwwqAHAAAAAAAAGGHQAwAAAAAAAIww6AEAAAAAAABGGPQAAAAAAAAAIwx6AAAAAAAAgBEGPQAAAAAAAMAIgx4AAAAAAABghEEPAAAAAAAAMMKgBwAAAAAAABhh0AMAAAAAAACMMOgBAAAAAAAARhj0AAAAAAAAACMMegAAAAAAAIARBj0AAAAAAADACIMeAAAAAAAAYIRBDwAAAAAAADDCoAcAAAAAAAAYYdADAAAAAAAAjDDoAQAAAAAAAEYY9AAAAAAAAAAjDHoAAAAAAACAEQY9AAAAAAAAwAiDHgAAAAAAAGCEQQ8AAAAAAAAwwqAHAAAAAAAAGGHQAwAAAAAAAIww6AEAAAAAAABGGPQAAAAAAAAAIwx6AAAAAAAAgBEGPQAAAAAAAMAIgx4AAAAAAABghEEPAAAAAAAAMMKgBwAAAAAAABhh0AMAAAAAAACMMOgBAAAAAAAARhj0AAAAAAAAACMMegAAAAAAAIARBj0AAAAAAADACIMeAAAAAAAAYIRBDwAAAAAAADDCoAcAAAAAAAAYYdADAAAAAAAAjDDoAQAAAAAAAEYY9AAAAAAAAAAbIfz/OfVmJFpx47IAAAAASUVORK5CYII=;" vertex="1" parent="1">
          <mxGeometry x="149" y="760" width="496" height="235.48" as="geometry" />
        </mxCell>
      </root>
    </mxGraphModel>
  </diagram>
</mxfile>
